<?xml version="1.0" encoding="utf-8"?>
<!-- Generator: Adobe Illustrator 22.1.0, SVG Export Plug-In . SVG Version: 6.00 Build 0)  -->
<svg version="1.1" id="Layer_1" xmlns="http://www.w3.org/2000/svg" xmlns:xlink="http://www.w3.org/1999/xlink" x="0px" y="0px"
	 viewBox="0 0 257 74" style="enable-background:new 0 0 257 74;" xml:space="preserve">
<style type="text/css">
	.st0{opacity:0.5;fill:#FFFFFF;enable-background:new    ;}
	.st1{fill:#FFFFFF;}
</style>
<title>DL_Workbench_Logo_3-5-19</title>
<g>
	<circle class="st0" cx="33.9" cy="68.4" r="4.6"/>
	<circle class="st0" cx="61.7" cy="53.3" r="4.6"/>
	<circle class="st0" cx="6.1" cy="53.3" r="4.6"/>
	<circle class="st0" cx="33.9" cy="5.8" r="4.6"/>
	<circle class="st0" cx="6.1" cy="20.8" r="4.6"/>
	<circle class="st0" cx="61.7" cy="21" r="4.6"/>
	<path class="st0" d="M38,34.7c-0.4,0.9-1.5,1.2-2.3,0.8c-0.6-0.3-1-0.9-1-1.6c0-0.7,0.4-1.3,1-1.6C35.2,32.1,34.6,32,34,32
		c-2.4,0-4.4,1.9-4.5,4.3s1.9,4.4,4.3,4.5s4.4-1.9,4.5-4.3c0,0,0,0,0-0.1C38.3,35.8,38.2,35.2,38,34.7z"/>
	<path class="st0" d="M151.9,34.7c-0.3,0.6-0.9,1-1.6,1c-1,0-1.8-0.8-1.8-1.8c0-0.7,0.4-1.3,1-1.6c-0.5-0.2-1.1-0.4-1.7-0.4
		c-2.4,0-4.4,1.9-4.5,4.3c0,2.4,1.9,4.4,4.3,4.5s4.4-1.9,4.5-4.3c0,0,0,0,0,0C152.2,35.8,152.1,35.2,151.9,34.7z"/>
</g>
<g>
	<path class="st1" d="M61.6,47.9c-2.9,0-5.3,2.4-5.3,5.3c0,0.7,0.2,1.5,0.4,2.1L38.6,65.9c-0.3-0.6-0.7-1.2-1.3-1.6l6-10.3v-2.6
		l-7.1,12.1c-0.7-0.4-1.5-0.6-2.4-0.6c-0.8,0-1.6,0.2-2.3,0.5L20.9,45.3l1.5-0.9c-0.2-0.4-0.5-0.7-0.7-1.1l-1.5,0.9l-4.1-7l4.3-7.3
		l0.8,0.4c0.2-0.4,0.4-0.8,0.6-1.1l-0.7-0.4l10.7-18.2c0.6,0.3,1.3,0.4,2.1,0.4c0.7,0,1.4-0.2,2.1-0.4l10.7,18.2l0,0l0.2,0.4h1.5
		l-0.6-1.1l0,0l0.6,1.1h0.1l9-5.2c0.4,0.5,0.8,0.9,1.3,1.2l-2.3,3.9c0.4,0.1,0.9,0.2,1.3,0.3l2.2-3.7c0.3,0.1,0.7,0.2,1.1,0.2v5.2
		c0.5,0.4,0.9,0.8,1.3,1.2V26c2.6-0.3,4.6-2.5,4.6-5.2c0,0,0,0,0,0c0-2.9-2.4-5.3-5.3-5.3c-1.7,0-3.2,0.8-4.2,2.1L39.1,6.9
		c0.1-0.4,0.1-0.7,0.1-1.1c0-2.9-2.4-5.3-5.3-5.3s-5.3,2.4-5.3,5.3c0,0.4,0,0.7,0.1,1.1L10.3,17.6c-1-1.3-2.5-2.1-4.2-2.1
		c-2.9,0-5.3,2.4-5.3,5.3c0,2.7,2,4.9,4.6,5.2v22c-2.6,0.3-4.6,2.5-4.6,5.2c0,2.9,2.4,5.3,5.3,5.3c1.7,0,3.2-0.8,4.2-2.1l18.4,10.7
		c-0.1,0.4-0.1,0.7-0.1,1.1c0,2.9,2.4,5.3,5.3,5.3c2.9,0,5.3-2.4,5.3-5.3c0,0,0,0,0,0c0-0.4,0-0.7-0.1-1.1l18.4-10.7
		c1,1.2,2.5,2.1,4.2,2.1c2.9,0,5.3-2.4,5.3-5.3c0,0,0,0,0,0C66.9,50.3,64.5,47.9,61.6,47.9z M58.2,18.9c0,0,0-0.1,0.1-0.1
		c0.7-1.1,2-1.9,3.4-1.9c2.2,0,4,1.8,4,4c0,2.2-1.8,4-4,4c-0.5,0-1-0.1-1.5-0.3c-0.1-0.1-0.1-0.1-0.2-0.2c-0.1-0.1-0.2-0.1-0.3-0.1
		c0,0,0,0,0,0c-0.5-0.3-1-0.7-1.3-1.3c0-0.1-0.1-0.2-0.2-0.3c-0.3-0.6-0.5-1.2-0.5-1.9C57.7,20.1,57.9,19.4,58.2,18.9z M56.8,18.7
		c-0.3,0.6-0.4,1.3-0.4,2.1c0,0.7,0.2,1.4,0.4,2.1l-9,5.3L37.1,9.9c0.6-0.5,1.2-1.1,1.5-1.9L56.8,18.7z M33.9,1.8c2.2,0,4,1.8,4,4
		c0,1.4-0.8,2.7-1.9,3.4c0,0-0.1,0-0.1,0c0,0-0.1,0.1-0.1,0.1c-0.6,0.3-1.2,0.5-1.9,0.5c-0.7,0-1.3-0.2-1.9-0.5c0,0-0.1-0.1-0.1-0.1
		c0,0-0.1,0-0.1,0c-0.7-0.5-1.3-1.2-1.6-2c0-0.1,0-0.2-0.1-0.3c-0.1-0.3-0.2-0.7-0.2-1.1C29.9,3.6,31.7,1.8,33.9,1.8z M29.2,8.1
		c0.4,0.7,0.9,1.4,1.5,1.8L20,28.2l-9-5.3c0.3-0.6,0.4-1.3,0.4-2.1c0,0,0,0,0,0c0-0.7-0.2-1.5-0.4-2.1L29.2,8.1z M19.4,29.3L15.5,36
		L9.1,25.1c0.5-0.3,0.8-0.7,1.2-1.1L19.4,29.3z M14.7,37.2L8.2,48.3C7.8,48.2,7.3,48,6.8,48V26C7.2,26,7.6,25.9,8,25.7L14.7,37.2z
		 M2.1,20.8c0-2.2,1.8-4,4-4c1.4,0,2.7,0.7,3.4,1.9c0,0.1,0.1,0.1,0.1,0.2c0.3,0.6,0.5,1.2,0.5,2c0,0.7-0.2,1.3-0.5,1.9
		c-0.1,0.1-0.1,0.2-0.1,0.3c-0.4,0.6-0.9,1-1.5,1.4c0,0-0.1,0-0.1,0c0,0-0.1,0-0.1,0.1c-0.5,0.2-1,0.4-1.6,0.4c0,0-0.1,0-0.1,0
		s-0.1,0-0.1,0C3.9,24.7,2.1,23,2.1,20.8z M9.6,55.1C9.6,55.2,9.6,55.2,9.6,55.1c-0.1,0.1-0.1,0.1-0.1,0.2c-0.7,1.1-2,1.9-3.4,1.9
		c-2.2,0-4-1.8-4-4c0-2.2,1.8-4,4-4c1.5,0,2.7,0.8,3.4,2c0,0,0,0,0,0c0,0,0,0,0,0c0.3,0.6,0.6,1.3,0.6,2
		C10.1,53.9,9.9,54.6,9.6,55.1z M9.3,49l6.2-10.5l3.7,6.3L10.3,50C10,49.6,9.7,49.3,9.3,49z M11,55.3c0.3-0.6,0.4-1.3,0.4-2.1
		c0,0,0,0,0,0c0-0.7-0.2-1.4-0.4-2.1l8.8-5.2l10.7,18.2c-0.6,0.5-1,1-1.3,1.7L11,55.3z M33.9,72.2c-2.2,0-4-1.8-4-4c0-2.2,1.8-4,4-4
		c2.2,0,4,1.8,4,4C37.9,70.5,36.1,72.2,33.9,72.2z M61.7,57.2c-1.4,0-2.7-0.8-3.4-1.9c0,0,0,0,0,0c-0.4-0.6-0.6-1.3-0.6-2.1
		c0-2.2,1.8-4,4-4c2.2,0,4,1.8,4,4C65.7,55.4,63.9,57.2,61.7,57.2z"/>
	<path class="st1" d="M23.1,36.4C23.1,36.4,23.1,36.4,23.1,36.4c0,6,4.9,10.9,10.9,10.9c6,0,10.8-4.9,10.8-10.8
		c0-6-4.8-10.9-10.8-10.9C28,25.5,23.1,30.4,23.1,36.4z M41.7,36.4C41.7,36.4,41.7,36.4,41.7,36.4c0,4.3-3.4,7.8-7.7,7.8
		c-4.2,0-7.6-3.4-7.7-7.6c-0.1-4.2,3.3-7.7,7.6-7.8S41.6,32.1,41.7,36.4z"/>
	<polygon class="st1" points="157.3,26.2 157.9,26.2 157.9,27.8 158.3,27.8 158.3,26.2 158.9,26.2 158.9,25.8 157.3,25.8 	"/>
	<polygon class="st1" points="160.2,27 159.8,25.8 159.2,25.8 159.2,27.8 159.6,27.8 159.6,26.4 160.1,27.8 160.3,27.8 160.8,26.4 
		160.8,27.8 161.3,27.8 161.3,25.8 160.7,25.8 	"/>
	<path class="st1" d="M46.6,32.5v21.2h3.1v-8.5c1.2,1.4,3,2.1,4.9,2.1c0.1,0,0.1,0,0.2,0c4-0.1,7.2-3.5,7-7.5c0-0.1,0-0.2,0-0.3
		c0-4-3.2-7.2-7.2-7.2c-1.9,0-3.7,0.8-4.8,2.3v-2H46.6z M54,35.3c2.5-0.1,4.6,1.9,4.7,4.4h0c0,0,0,0.1,0,0.1c0,2.5-2,4.6-4.6,4.6
		c-2.5,0-4.5-2-4.6-4.4C49.5,37.4,51.4,35.3,54,35.3z"/>
	<path class="st1" d="M70.7,32.2c-0.1,0-0.1,0-0.2,0c-4.1,0.1-7.4,3.5-7.3,7.6h0c0.1,2.7,1.6,5.2,3.9,6.5c3.7,2.1,8.4,0.8,10.5-3
		L75,41.9c-0.8,1.6-2.4,2.6-4.2,2.6c-2.3,0.2-4.3-1.4-4.7-3.7h12v-1.2c0-0.2,0-0.3,0-0.5C78,35.1,74.7,32,70.7,32.2z M66.3,38.2
		c0.6-2,2.4-3.3,4.4-3.2c2.1-0.2,3.9,1.2,4.3,3.2H66.3z"/>
	<path class="st1" d="M87.5,32.2c-1.8,0-3.4,0.8-4.5,2.2v-1.9H80V47h3.1v-8c0-2.5,1.6-4.1,3.7-4.1c2.3,0,3.5,1.5,3.5,3.9V47h3.1
		v-8.5C93.4,34.6,91.2,32.2,87.5,32.2z"/>
	<polygon class="st1" points="101.6,42.3 95.9,25.8 92.6,25.8 100,47 103.2,47 110.6,25.8 107.3,25.8 	"/>
	<rect x="111.7" y="25.8" class="st1" width="3.2" height="21.2"/>
	<polygon class="st1" points="132,41.8 121.3,25.8 117.8,25.8 117.8,47 120.9,47 120.9,30.7 131.8,47 135.2,47 135.2,25.8 132,25.8 
			"/>
	<path class="st1" d="M147.9,25.6c-6,0-10.9,4.8-10.9,10.8c0,0,0,0,0,0c0,6,4.8,10.8,10.8,10.8c6,0,10.9-4.8,10.9-10.8
		C158.7,30.4,153.9,25.6,147.9,25.6z M155.6,36.4C155.6,36.4,155.6,36.4,155.6,36.4c0,4.4-3.5,7.8-7.8,7.8c-4.2,0-7.6-3.4-7.7-7.6
		c-0.1-4.2,3.3-7.7,7.6-7.8C152,28.7,155.5,32.1,155.6,36.4L155.6,36.4z"/>
	<polygon class="st1" points="176,44.4 174.5,39 174.5,39 172.6,39 171.1,44.3 169.9,38.5 169.9,38.4 167.7,38.4 170,46.8 170,46.8 
		172.1,46.8 173.5,41.7 175,46.8 177,46.8 179.3,38.4 177.2,38.4 	"/>
	<path class="st1" d="M188.4,39.4c-0.4-0.4-0.8-0.7-1.3-0.9c-1.1-0.4-2.3-0.4-3.4,0c-0.5,0.2-0.9,0.5-1.3,0.9
		c-0.4,0.4-0.6,0.9-0.8,1.4c-0.4,1.2-0.4,2.5,0,3.7c0.2,0.5,0.4,1,0.8,1.4c0.4,0.4,0.8,0.7,1.3,0.9c1.1,0.4,2.3,0.4,3.4,0
		c0.5-0.2,0.9-0.5,1.3-0.9c0.4-0.4,0.6-0.9,0.8-1.4c0.4-1.2,0.4-2.5,0-3.7C189.1,40.3,188.8,39.8,188.4,39.4z M187,44.7
		c-0.4,0.5-1,0.7-1.6,0.7c-0.6,0-1.2-0.2-1.6-0.7c-0.4-0.6-0.6-1.3-0.5-2.1c-0.1-0.7,0.1-1.5,0.5-2.1c0.8-0.9,2.2-0.9,3-0.1
		c0,0,0.1,0.1,0.1,0.1c0.4,0.6,0.6,1.3,0.5,2.1C187.6,43.4,187.4,44.1,187,44.7z"/>
	<path class="st1" d="M198.2,42.5c0.3-0.4,0.5-1,0.5-1.5c0-0.4-0.1-0.7-0.2-1c-0.1-0.3-0.3-0.6-0.6-0.8c-0.3-0.2-0.6-0.4-0.9-0.5
		c-0.4-0.1-0.8-0.2-1.2-0.2h-3.3v8.4h1.9v-3.2h0.4c0.1,0,0.2,0,0.3,0.1c0.1,0.1,0.2,0.2,0.2,0.2l1.7,2.9h2.2l-2.3-3.5
		C197.5,43.2,197.9,42.9,198.2,42.5z M196.5,41.9c-0.3,0.2-0.6,0.3-1,0.3h-1.1l0-2.2h1.1c0.4,0,0.7,0.1,1,0.3
		c0.2,0.2,0.3,0.5,0.3,0.8C196.8,41.4,196.7,41.7,196.5,41.9z"/>
	<path class="st1" d="M208.7,38.4h-2.3l-2,2.8l-0.2,0.3c-0.1,0.1-0.1,0.1-0.2,0.2c-0.1,0-0.1,0-0.2,0h-0.2v-3.2h-2v8.4h2v-3.6h0.2
		c0.1,0,0.1,0,0.2,0.1c0.1,0,0.1,0.1,0.1,0.1l0.2,0.2l2.2,3.1h2.5l-3.3-4.4L208.7,38.4z"/>
	<path class="st1" d="M216.3,42.5c0.7-0.3,1.1-1,1-1.7c0-0.7-0.3-1.3-0.8-1.7c-0.7-0.4-1.4-0.6-2.2-0.6h-2.9v8.4h3.2
		c0.9,0.1,1.7-0.2,2.4-0.6c0.5-0.4,0.8-1.1,0.8-1.8c0-0.5-0.1-1-0.4-1.4C217,42.8,216.6,42.6,216.3,42.5z M213.1,40h0.9
		c0.3,0,0.7,0,1,0.2c0.2,0.2,0.3,0.4,0.3,0.7c0,0.3-0.1,0.5-0.3,0.7c-0.3,0.2-0.7,0.3-1,0.2h-0.9V40z M215.4,45
		c-0.3,0.2-0.7,0.3-1.1,0.2h-1.2l0-2h1.2c0.4,0,0.7,0.1,1,0.2c0.2,0.2,0.3,0.5,0.3,0.8C215.8,44.6,215.6,44.9,215.4,45z"/>
	<polygon class="st1" points="222.5,43.4 225.7,43.4 225.7,41.8 222.5,41.8 222.5,40 226.3,40 226.3,38.4 220.5,38.4 220.5,46.8 
		226.4,46.8 226.4,45.3 222.5,45.3 	"/>
	<polygon class="st1" points="234.3,44 231.3,38.5 231.3,38.4 229.2,38.4 229.2,46.8 231,46.8 231,41.4 234,46.8 234.1,46.8 
		236.2,46.8 236.2,38.4 234.3,38.4 	"/>
	<path class="st1" d="M245.3,44.9c-0.2,0.2-0.5,0.3-0.8,0.4c-0.3,0.1-0.6,0.1-0.9,0.1c-0.7,0-1.3-0.2-1.8-0.7
		c-0.4-0.6-0.7-1.3-0.6-2c-0.1-0.7,0.2-1.5,0.6-2.1c0.5-0.5,1.1-0.7,1.8-0.7c0.3,0,0.6,0,0.8,0.1c0.3,0.1,0.5,0.2,0.7,0.3l0.1,0.1
		L246,39l-0.1-0.1c-0.7-0.5-1.6-0.8-2.5-0.7c-0.6,0-1.2,0.1-1.8,0.3c-1,0.4-1.9,1.2-2.2,2.2c-0.4,1.2-0.4,2.5,0,3.7
		c0.2,0.5,0.5,1,0.8,1.4c0.4,0.4,0.8,0.7,1.3,0.9c0.6,0.2,1.2,0.3,1.8,0.3c0.5,0,1-0.1,1.5-0.2c0.4-0.1,0.8-0.3,1.1-0.6h0.1
		L245.3,44.9L245.3,44.9z"/>
	<polygon class="st1" points="253.6,41.8 250.7,41.8 250.7,38.4 248.7,38.4 248.7,46.8 250.7,46.8 250.7,43.4 253.6,43.4 
		253.6,46.8 255.6,46.8 255.6,38.4 253.6,38.4 	"/>
	<path class="st1" d="M173.4,33.2c0.7-0.9,1.1-2,1-3.1c0.1-1.1-0.3-2.2-1-3.1c-0.8-0.8-1.9-1.2-3-1.1h-2.5v8.4h2.5
		C171.5,34.4,172.6,33.9,173.4,33.2z M168.8,26.7h1.6c0.8-0.1,1.7,0.2,2.3,0.8c0.6,0.7,0.8,1.6,0.7,2.6c0.1,0.9-0.2,1.8-0.7,2.6
		c-0.6,0.6-1.4,0.9-2.3,0.8h0h-1.6V26.7z"/>
	<polygon class="st1" points="181.3,33.4 177,33.4 177,30.4 180.6,30.4 180.6,29.6 177,29.6 177,26.7 181.2,26.7 181.2,25.9 
		176,25.9 176,34.3 181.3,34.3 	"/>
	<polygon class="st1" points="188.2,33.4 183.9,33.4 183.9,30.4 187.6,30.4 187.6,29.6 183.9,29.6 183.9,26.7 188.2,26.7 
		188.2,25.9 183,25.9 183,34.3 188.2,34.3 	"/>
	<path class="st1" d="M194.8,30.4c0.5-0.5,0.8-1.2,0.8-1.9c0-0.7-0.2-1.4-0.8-1.9c-0.6-0.5-1.4-0.7-2.2-0.7h-2.7v8.4h0.9v-3.2h1.8
		C193.4,31.1,194.2,30.9,194.8,30.4z M190.8,30.2v-3.5h1.8c0.5,0,1.1,0.1,1.5,0.4c0.4,0.3,0.5,0.8,0.5,1.3c0,0.5-0.1,1-0.5,1.3
		c-0.4,0.3-1,0.5-1.5,0.4h0H190.8z"/>
	<polygon class="st1" points="205.7,33.4 201.6,33.4 201.6,25.9 200.7,25.9 200.7,34.3 205.7,34.3 	"/>
	<polygon class="st1" points="212.4,33.4 208,33.4 208,30.4 211.7,30.4 211.7,29.6 208,29.6 208,26.7 212.3,26.7 212.3,25.9 
		207.1,25.9 207.1,34.3 212.4,34.3 	"/>
	<path class="st1" d="M220.9,34.3l-3.3-8.3l0-0.1h-0.9l-3.2,8.3l-0.1,0.1h1l0.9-2.4h3.6l0.9,2.4v0.1H220.9z M215.6,31l1.5-3.9
		l1.5,3.9H215.6z"/>
	<path class="st1" d="M227.1,30c0.4-0.4,0.6-1,0.6-1.6c0-0.7-0.2-1.4-0.8-1.8c-0.6-0.5-1.4-0.7-2.2-0.6h-2.5v8.4h0.9v-3.5h1.2h0.3
		c0,0,0.1,0,0.1,0c0.1,0,0.1,0.1,0.1,0.1l0.2,0.2l2.2,3.1h1.1l-2.6-3.6C226.2,30.6,226.7,30.4,227.1,30z M224.7,30h-1.6v-3.3h1.6
		c0.5,0,1.1,0.1,1.5,0.4c0.3,0.3,0.5,0.8,0.5,1.2v0c0,0.5-0.1,0.9-0.5,1.2C225.8,29.9,225.3,30,224.7,30z"/>
	<polygon class="st1" points="230.5,27.5 234.9,34.2 234.9,34.3 235.8,34.3 235.8,25.9 234.9,25.9 234.9,32.7 230.6,25.9 
		230.5,25.9 229.6,25.9 229.6,34.3 230.5,34.3 	"/>
	<rect x="238.1" y="25.9" class="st1" width="0.9" height="8.4"/>
	<polygon class="st1" points="246.5,32.7 242.2,25.9 242.2,25.9 241.2,25.9 241.2,34.3 242.2,34.3 242.2,27.5 246.5,34.2 
		246.5,34.3 247.5,34.3 247.5,25.9 246.5,25.9 	"/>
	<path class="st1" d="M252.6,30v0.8h2.1v2.5c-0.2,0.1-0.5,0.1-0.7,0.2c-0.3,0-0.6,0.1-0.9,0.1c-0.9,0.1-1.7-0.3-2.4-0.9
		c-0.6-0.7-0.9-1.6-0.8-2.6c-0.1-1,0.2-1.9,0.8-2.7c0.6-0.6,1.4-1,2.3-0.9c0.4,0,0.7,0,1.1,0.1c0.3,0.1,0.6,0.2,0.9,0.4l0.1,0.1
		l0.5-0.7l-0.1-0.1c-0.3-0.2-0.6-0.4-1-0.5c-0.5-0.1-0.9-0.2-1.4-0.2c-0.6,0-1.1,0.1-1.7,0.3c-0.5,0.2-0.9,0.5-1.3,0.8
		c-0.4,0.4-0.6,0.9-0.8,1.4c-0.2,0.6-0.3,1.2-0.3,1.9c0,0.6,0.1,1.2,0.2,1.7c0.1,0.5,0.4,1,0.7,1.4c0.3,0.4,0.8,0.7,1.3,0.9
		c0.6,0.2,1.2,0.4,1.8,0.3c0.5,0,0.9,0,1.3-0.2c0.4-0.1,0.8-0.2,1.1-0.4h0.1V30H252.6z"/>
</g>
</svg>
