<svg width="382" height="470" fill="none" xmlns="http://www.w3.org/2000/svg">
  <rect x="162" y="190" width="220" height="90" rx="3" fill="#E5F0FB"/>
  <path d="M201.063 223.75v.547c0 .752-.098 1.426-.293 2.023a4.386 4.386 0 0 1-.841 1.525c-.36.419-.793.74-1.299.964a4.21 4.21 0 0 1-1.682.328c-.61 0-1.169-.11-1.675-.328a3.773 3.773 0 0 1-1.305-.964 4.505 4.505 0 0 1-.862-1.525c-.2-.597-.3-1.271-.3-2.023v-.547c0-.752.1-1.424.3-2.017a4.466 4.466 0 0 1 .848-1.524 3.646 3.646 0 0 1 1.306-.964 4.107 4.107 0 0 1 1.675-.335c.615 0 1.175.112 1.681.335.506.219.941.54 1.306.964.364.419.645.927.841 1.524.2.593.3 1.265.3 2.017Zm-1.715.547v-.561c0-.556-.055-1.046-.164-1.469-.105-.429-.262-.787-.472-1.074a1.977 1.977 0 0 0-.759-.656 2.25 2.25 0 0 0-1.018-.225c-.379 0-.716.075-1.012.225a2.052 2.052 0 0 0-.759.656c-.205.287-.362.645-.472 1.074a5.918 5.918 0 0 0-.164 1.469v.561c0 .556.055 1.048.164 1.476.11.429.269.791.479 1.087.214.292.469.513.766.663.296.146.633.219 1.011.219.383 0 .723-.073 1.019-.219a2.04 2.04 0 0 0 .752-.663c.205-.296.36-.658.465-1.087.109-.428.164-.92.164-1.476Zm4.922-1.272v8.819h-1.648v-10.24h1.518l.13 1.421Zm4.819 2.208v.144c0 .538-.064 1.037-.192 1.497a3.646 3.646 0 0 1-.553 1.196c-.242.338-.54.6-.896.786a2.6 2.6 0 0 1-1.23.281c-.461 0-.864-.085-1.21-.253a2.471 2.471 0 0 1-.868-.732 3.966 3.966 0 0 1-.575-1.107 7.111 7.111 0 0 1-.3-1.408v-.554a7.573 7.573 0 0 1 .3-1.477c.146-.442.338-.822.575-1.141.237-.319.526-.565.868-.738.342-.174.74-.26 1.196-.26.465 0 .877.091 1.237.273a2.5 2.5 0 0 1 .91.766c.246.328.43.724.553 1.189.123.461.185.973.185 1.538Zm-1.648.144v-.144a4.44 4.44 0 0 0-.095-.95 2.477 2.477 0 0 0-.301-.779 1.44 1.44 0 0 0-1.285-.711c-.292 0-.543.05-.752.15-.21.096-.385.231-.527.404a1.92 1.92 0 0 0-.328.608 3.683 3.683 0 0 0-.164.745v1.326c.055.328.148.629.281.903.132.273.319.492.56.656.246.159.561.239.943.239.297 0 .55-.064.759-.191a1.49 1.49 0 0 0 .513-.527c.137-.227.237-.489.301-.786.064-.296.095-.61.095-.943Zm6.44-3.773v1.203h-4.17v-1.203h4.17Zm-2.967-1.812h1.648v7.164c0 .228.031.403.095.526a.513.513 0 0 0 .281.24c.118.041.257.061.416.061a2.68 2.68 0 0 0 .582-.061l.006 1.257a3.984 3.984 0 0 1-.478.11 3.506 3.506 0 0 1-.615.048c-.379 0-.714-.066-1.005-.199a1.471 1.471 0 0 1-.684-.663c-.164-.305-.246-.711-.246-1.216v-7.267Zm6.002 1.812V229h-1.654v-7.396h1.654Zm-1.764-1.942c0-.251.082-.458.246-.622.169-.169.401-.253.698-.253.291 0 .522.084.69.253a.83.83 0 0 1 .253.622.821.821 0 0 1-.253.615c-.168.164-.399.246-.69.246-.297 0-.529-.082-.698-.246a.834.834 0 0 1-.246-.615Zm5.216 3.445V229h-1.647v-7.396h1.551l.096 1.503Zm-.266 1.921-.561-.007c0-.51.064-.982.191-1.415.128-.432.315-.808.561-1.127.246-.324.551-.572.916-.746.369-.177.795-.266 1.278-.266.338 0 .645.05.923.15.283.096.527.249.732.458.209.21.369.479.478.807.114.328.171.724.171 1.189V229h-1.647v-4.785c0-.36-.055-.643-.165-.848a.901.901 0 0 0-.458-.437 1.655 1.655 0 0 0-.704-.137c-.31 0-.574.059-.793.178a1.49 1.49 0 0 0-.526.485 2.171 2.171 0 0 0-.301.711 3.712 3.712 0 0 0-.095.861Zm4.586-.437-.772.171c0-.447.062-.868.185-1.265.127-.401.312-.752.553-1.053.246-.305.549-.544.909-.717.361-.174.773-.26 1.238-.26.378 0 .715.052 1.011.157.301.1.556.26.766.479.21.218.369.503.479.854.109.346.164.766.164 1.258V229h-1.655v-4.792c0-.374-.054-.663-.164-.868a.846.846 0 0 0-.451-.424 1.817 1.817 0 0 0-.704-.123c-.255 0-.481.048-.677.144a1.347 1.347 0 0 0-.485.389 1.746 1.746 0 0 0-.301.568 2.421 2.421 0 0 0-.096.697Zm7.992-2.987V229h-1.655v-7.396h1.655Zm-1.764-1.942c0-.251.082-.458.246-.622.169-.169.401-.253.697-.253.292 0 .522.084.691.253a.833.833 0 0 1 .253.622.825.825 0 0 1-.253.615c-.169.164-.399.246-.691.246-.296 0-.528-.082-.697-.246a.834.834 0 0 1-.246-.615Zm9.29 8.026V229h-5.51v-1.312h5.51Zm-.15-5.059L235.257 229h-1.067v-1.06l4.772-6.336h1.094v1.025Zm-.636-1.025v1.312h-5.148v-1.312h5.148Zm5.257 7.533a3.942 3.942 0 0 1-1.484-.267 3.27 3.27 0 0 1-1.121-.759 3.365 3.365 0 0 1-.704-1.141 4 4 0 0 1-.246-1.415v-.274c0-.579.084-1.103.253-1.572.169-.469.403-.87.704-1.203a3.03 3.03 0 0 1 1.067-.773c.41-.177.854-.266 1.333-.266.528 0 .991.089 1.387.266.397.178.725.429.985.752.264.319.46.7.587 1.142.133.442.199.93.199 1.463v.704h-5.715v-1.183h4.088v-.13a2.321 2.321 0 0 0-.178-.834 1.422 1.422 0 0 0-.485-.628c-.219-.16-.511-.24-.875-.24-.274 0-.518.06-.732.178-.209.114-.385.28-.526.499a2.624 2.624 0 0 0-.328.793c-.073.305-.11.649-.11 1.032v.274c0 .323.044.624.13.902.091.273.224.513.397.718.173.205.383.367.629.485.246.114.526.171.84.171.397 0 .75-.08 1.06-.239.31-.16.579-.385.807-.677l.868.841c-.16.232-.367.456-.622.67-.255.209-.568.38-.937.512-.364.133-.788.199-1.271.199Zm11.122-7.533v1.203h-4.17v-1.203h4.17Zm-2.967-1.812h1.647v7.164c0 .228.032.403.096.526a.514.514 0 0 0 .28.24c.119.041.258.061.417.061a2.68 2.68 0 0 0 .582-.061l.006 1.257a3.984 3.984 0 0 1-.478.11 3.506 3.506 0 0 1-.615.048c-.379 0-.714-.066-1.005-.199a1.471 1.471 0 0 1-.684-.663c-.164-.305-.246-.711-.246-1.216v-7.267Zm5.865-1.292V229h-1.64v-10.5h1.64Zm-.287 6.528-.533-.007a4.83 4.83 0 0 1 .212-1.415 3.62 3.62 0 0 1 .588-1.127 2.617 2.617 0 0 1 2.098-1.012c.365 0 .693.05.985.15.296.1.551.262.765.486.215.218.376.505.486.861.114.351.171.779.171 1.285V229h-1.655v-4.765c0-.355-.052-.638-.157-.847a.907.907 0 0 0-.444-.451 1.62 1.62 0 0 0-.718-.144c-.296 0-.558.059-.786.178-.223.118-.41.28-.561.485-.15.205-.264.442-.341.711-.073.269-.11.556-.11.861Zm9.7 4.109a3.937 3.937 0 0 1-1.483-.267 3.261 3.261 0 0 1-1.121-.759 3.365 3.365 0 0 1-.704-1.141 4 4 0 0 1-.246-1.415v-.274c0-.579.084-1.103.253-1.572.168-.469.403-.87.704-1.203.3-.337.656-.595 1.066-.773a3.33 3.33 0 0 1 1.333-.266c.529 0 .991.089 1.388.266.396.178.724.429.984.752.265.319.46.7.588 1.142a5.1 5.1 0 0 1 .198 1.463v.704h-5.715v-1.183h4.088v-.13a2.32 2.32 0 0 0-.177-.834 1.417 1.417 0 0 0-.486-.628c-.218-.16-.51-.24-.875-.24-.273 0-.517.06-.731.178a1.45 1.45 0 0 0-.527.499 2.65 2.65 0 0 0-.328.793 4.447 4.447 0 0 0-.109 1.032v.274c0 .323.043.624.13.902.091.273.223.513.396.718.174.205.383.367.629.485.246.114.527.171.841.171.397 0 .75-.08 1.06-.239.31-.16.578-.385.806-.677l.868.841a3.352 3.352 0 0 1-.622.67 3.12 3.12 0 0 1-.936.512c-.365.133-.789.199-1.272.199Zm9.379-6.03V229h-1.647v-7.396h1.552l.095 1.503Zm-.266 1.921-.561-.007c0-.51.064-.982.192-1.415.127-.432.314-.808.56-1.127.246-.324.551-.572.916-.746.369-.177.795-.266 1.278-.266.338 0 .645.05.923.15.283.096.527.249.732.458.209.21.369.479.478.807.114.328.171.724.171 1.189V229h-1.647v-4.785c0-.36-.055-.643-.164-.848a.909.909 0 0 0-.458-.437 1.663 1.663 0 0 0-.705-.137c-.309 0-.574.059-.792.178-.215.118-.39.28-.527.485a2.171 2.171 0 0 0-.301.711 3.767 3.767 0 0 0-.095.861Zm4.587-.437-.773.171c0-.447.062-.868.185-1.265.127-.401.312-.752.553-1.053a2.6 2.6 0 0 1 .91-.717c.36-.174.772-.26 1.237-.26.378 0 .715.052 1.012.157.3.1.556.26.765.479.21.218.369.503.479.854.109.346.164.766.164 1.258V229h-1.654v-4.792c0-.374-.055-.663-.165-.868a.846.846 0 0 0-.451-.424 1.817 1.817 0 0 0-.704-.123c-.255 0-.481.048-.677.144a1.347 1.347 0 0 0-.485.389 1.746 1.746 0 0 0-.301.568 2.422 2.422 0 0 0-.095.697Zm5.913.793v-.157c0-.534.077-1.028.232-1.484a3.52 3.52 0 0 1 .67-1.196 3.02 3.02 0 0 1 1.08-.793 3.506 3.506 0 0 1 1.449-.287c.543 0 1.026.095 1.45.287.428.187.79.451 1.086.793.297.337.522.736.677 1.196.155.456.233.95.233 1.484v.157c0 .533-.078 1.027-.233 1.483-.155.456-.38.855-.677 1.196a3.117 3.117 0 0 1-1.08.793 3.533 3.533 0 0 1-1.442.281 3.605 3.605 0 0 1-1.456-.281 3.117 3.117 0 0 1-1.08-.793 3.543 3.543 0 0 1-.677-1.196 4.579 4.579 0 0 1-.232-1.483Zm1.647-.157v.157c0 .332.034.647.103.943.068.296.175.556.321.779.146.224.333.399.56.527.228.127.5.191.814.191.305 0 .57-.064.793-.191.228-.128.415-.303.56-.527.146-.223.253-.483.322-.779.073-.296.109-.611.109-.943v-.157c0-.329-.036-.638-.109-.93a2.413 2.413 0 0 0-.328-.786 1.563 1.563 0 0 0-.561-.533 1.534 1.534 0 0 0-.8-.199c-.31 0-.578.066-.806.199a1.576 1.576 0 0 0-.554.533 2.47 2.47 0 0 0-.321.786 4.028 4.028 0 0 0-.103.93Zm11.122 2.242V218.5h1.654V229h-1.497l-.157-1.531Zm-4.812-2.085v-.144c0-.56.066-1.071.198-1.531.132-.465.323-.864.574-1.196.251-.338.556-.595.916-.773a2.66 2.66 0 0 1 1.217-.273c.447 0 .839.086 1.176.26.337.173.624.421.861.745.237.319.426.702.567 1.148.142.442.242.934.301 1.477v.458a7.341 7.341 0 0 1-.301 1.449c-.141.437-.33.816-.567 1.135a2.447 2.447 0 0 1-.868.738c-.337.173-.732.26-1.183.26-.446 0-.85-.094-1.21-.281a2.664 2.664 0 0 1-.909-.786 3.683 3.683 0 0 1-.574-1.189 5.409 5.409 0 0 1-.198-1.497Zm1.647-.144v.144c0 .337.03.651.089.943.064.292.162.549.294.773.132.218.303.392.513.519.214.123.469.185.765.185.374 0 .682-.082.923-.246a1.68 1.68 0 0 0 .568-.663c.141-.283.236-.597.287-.944v-1.237a3.072 3.072 0 0 0-.171-.752 2.006 2.006 0 0 0-.335-.608 1.418 1.418 0 0 0-.527-.411 1.65 1.65 0 0 0-.731-.15c-.301 0-.556.064-.766.191a1.559 1.559 0 0 0-.519.527c-.132.223-.23.483-.294.779a4.492 4.492 0 0 0-.096.95Zm9.803 3.897a3.946 3.946 0 0 1-1.484-.267 3.27 3.27 0 0 1-1.121-.759 3.365 3.365 0 0 1-.704-1.141 4 4 0 0 1-.246-1.415v-.274c0-.579.085-1.103.253-1.572.169-.469.403-.87.704-1.203a3.03 3.03 0 0 1 1.067-.773c.41-.177.854-.266 1.333-.266.528 0 .991.089 1.387.266.397.178.725.429.985.752.264.319.46.7.588 1.142a5.1 5.1 0 0 1 .198 1.463v.704h-5.715v-1.183h4.088v-.13a2.3 2.3 0 0 0-.178-.834 1.415 1.415 0 0 0-.485-.628c-.219-.16-.511-.24-.875-.24-.274 0-.517.06-.732.178-.209.114-.385.28-.526.499a2.624 2.624 0 0 0-.328.793c-.073.305-.11.649-.11 1.032v.274c0 .323.044.624.13.902.092.273.224.513.397.718.173.205.383.367.629.485.246.114.526.171.841.171.396 0 .749-.08 1.059-.239.31-.16.579-.385.807-.677l.868.841c-.16.232-.367.456-.622.67-.255.209-.567.38-.937.512-.364.133-.788.199-1.271.199Zm6.009-10.637V229h-1.655v-10.5h1.655Zm9.741 8.757v-5.653h1.654V229h-1.558l-.096-1.743Zm.232-1.538.554-.014c0 .497-.055.955-.164 1.374a3.175 3.175 0 0 1-.506 1.087 2.365 2.365 0 0 1-.875.718c-.355.168-.781.253-1.278.253-.36 0-.691-.053-.991-.158a2.021 2.021 0 0 1-.78-.485 2.217 2.217 0 0 1-.499-.854c-.118-.351-.177-.771-.177-1.258v-4.778h1.647v4.792c0 .268.032.494.096.676.063.178.15.322.259.431.11.109.237.187.383.232.146.046.301.069.465.069.469 0 .839-.091 1.108-.274.273-.187.467-.437.581-.752.118-.314.177-.667.177-1.059Zm7.26 1.278a.824.824 0 0 0-.123-.444c-.082-.137-.239-.26-.472-.369-.228-.11-.565-.21-1.011-.301a8.698 8.698 0 0 1-1.08-.308 3.415 3.415 0 0 1-.834-.444 1.854 1.854 0 0 1-.54-.615 1.702 1.702 0 0 1-.192-.821c0-.3.066-.585.198-.854.133-.269.322-.506.568-.711a2.75 2.75 0 0 1 .895-.485 3.736 3.736 0 0 1 1.19-.178c.619 0 1.15.105 1.592.314.447.205.789.486 1.026.841.237.351.355.747.355 1.19h-1.647c0-.196-.05-.379-.151-.547a1.032 1.032 0 0 0-.437-.417c-.196-.11-.442-.164-.738-.164-.283 0-.518.045-.704.136a.972.972 0 0 0-.411.342.876.876 0 0 0-.129.465c0 .123.022.235.068.335.05.096.132.184.246.267.114.077.269.15.465.218.2.069.451.135.752.199.565.118 1.05.271 1.456.458.41.182.724.419.943.71.219.288.328.652.328 1.094 0 .328-.07.629-.212.903a2.053 2.053 0 0 1-.601.704 3.03 3.03 0 0 1-.95.458 4.295 4.295 0 0 1-1.231.164c-.67 0-1.237-.119-1.702-.356-.465-.241-.818-.549-1.06-.923a2.191 2.191 0 0 1-.355-1.175h1.593c.018.305.102.549.253.731.155.178.346.308.574.39.232.077.472.116.718.116.296 0 .544-.039.745-.116.2-.082.353-.192.458-.328a.784.784 0 0 0 .157-.479Zm4.819-5.393V229h-1.654v-7.396h1.654Zm-1.763-1.942c0-.251.082-.458.246-.622.168-.169.401-.253.697-.253.292 0 .522.084.691.253a.832.832 0 0 1 .252.622.824.824 0 0 1-.252.615c-.169.164-.399.246-.691.246-.296 0-.529-.082-.697-.246a.834.834 0 0 1-.246-.615Zm5.202 3.521V229h-1.648v-7.396h1.552l.096 1.579Zm-.294 1.845-.533-.007a4.803 4.803 0 0 1 .218-1.442c.146-.437.347-.813.602-1.128.26-.314.57-.556.93-.724.36-.174.761-.26 1.203-.26.355 0 .677.05.964.15.291.096.54.253.745.472.209.219.369.503.478.854.11.347.164.773.164 1.279V229h-1.654v-4.785c0-.356-.052-.636-.157-.841a.874.874 0 0 0-.444-.444 1.672 1.672 0 0 0-.718-.137c-.283 0-.536.059-.759.178-.223.118-.412.28-.567.485a2.335 2.335 0 0 0-.349.711 2.938 2.938 0 0 0-.123.861Zm11.19-3.424h1.497v7.191c0 .665-.141 1.23-.423 1.695a2.73 2.73 0 0 1-1.183 1.06c-.506.246-1.091.369-1.757.369-.282 0-.597-.041-.943-.123a3.83 3.83 0 0 1-.998-.397 2.46 2.46 0 0 1-.8-.704l.772-.97c.265.314.556.544.875.69.319.146.654.219 1.005.219.379 0 .7-.071.964-.212.269-.137.476-.34.622-.609.146-.268.219-.597.219-.984v-5.551l.15-1.674Zm-5.024 3.78v-.144c0-.56.068-1.071.205-1.531.137-.465.333-.864.588-1.196.255-.338.565-.595.93-.773a2.73 2.73 0 0 1 1.237-.273c.478 0 .886.086 1.224.26.341.173.626.421.854.745.228.319.406.702.533 1.148.132.442.23.934.294 1.477v.458a7.341 7.341 0 0 1-.301 1.449 4.01 4.01 0 0 1-.56 1.135 2.4 2.4 0 0 1-.861.738c-.338.173-.736.26-1.197.26-.451 0-.859-.094-1.223-.281a2.77 2.77 0 0 1-.93-.786 3.726 3.726 0 0 1-.588-1.189 5.224 5.224 0 0 1-.205-1.497Zm1.647-.144v.144c0 .337.032.651.096.943a2.6 2.6 0 0 0 .308.773c.141.218.319.392.533.519.219.123.476.185.772.185.388 0 .704-.082.951-.246.25-.164.442-.385.574-.663.137-.283.232-.597.287-.944v-1.237a2.983 2.983 0 0 0-.171-.752 2.006 2.006 0 0 0-.335-.608 1.4 1.4 0 0 0-.533-.411c-.214-.1-.467-.15-.759-.15-.296 0-.554.064-.772.191a1.564 1.564 0 0 0-.54.527c-.137.223-.24.483-.308.779a4.237 4.237 0 0 0-.103.95Zm-122.103 15.807V251h-1.716v-9.953h1.716Zm10.028 0V251h-1.716l-4.463-7.13V251h-1.716v-9.953h1.716l4.477 7.143v-7.143h1.702Zm5.934 0V251h-1.702v-9.953h1.702Zm3.124 0v1.367h-7.923v-1.367h7.923Zm7.56 7.239c0 .62-.143 1.142-.43 1.566a2.695 2.695 0 0 1-1.176.963c-.492.215-1.048.322-1.668.322-.62 0-1.178-.107-1.675-.322a2.695 2.695 0 0 1-1.176-.963c-.287-.424-.43-.946-.43-1.566a2.495 2.495 0 0 1 .916-1.982 3.174 3.174 0 0 1 1.039-.568 4.173 4.173 0 0 1 1.312-.198c.629 0 1.192.116 1.689.349a2.84 2.84 0 0 1 1.169.964c.287.41.43.888.43 1.435Zm-1.654-.082c0-.333-.068-.624-.205-.875a1.44 1.44 0 0 0-.574-.581 1.728 1.728 0 0 0-.855-.205 1.7 1.7 0 0 0-.854.205 1.45 1.45 0 0 0-.568.581 1.851 1.851 0 0 0-.198.875c0 .337.066.629.198.875.133.242.322.426.568.554.246.127.535.191.868.191.333 0 .62-.064.861-.191.242-.128.429-.312.561-.554.132-.246.198-.538.198-.875Zm1.429-4.539c0 .497-.132.939-.397 1.326a2.653 2.653 0 0 1-1.08.916c-.46.219-.984.328-1.572.328-.592 0-1.121-.109-1.586-.328a2.714 2.714 0 0 1-1.087-.916 2.322 2.322 0 0 1-.39-1.326c0-.592.13-1.091.39-1.497.264-.41.627-.722 1.087-.937.46-.214.987-.321 1.579-.321.593 0 1.119.107 1.579.321.461.215.821.527 1.08.937.265.406.397.905.397 1.497Zm-1.648.055a1.65 1.65 0 0 0-.177-.78 1.286 1.286 0 0 0-.486-.533 1.409 1.409 0 0 0-.745-.191c-.287 0-.535.061-.745.184-.21.123-.371.297-.485.52a1.74 1.74 0 0 0-.171.8c0 .305.057.572.171.8.114.223.275.398.485.526.214.128.465.191.752.191s.535-.063.745-.191c.21-.128.372-.303.485-.526.114-.228.171-.495.171-.8Zm12.948 4.04h1.709a3.947 3.947 0 0 1-.547 1.743c-.31.506-.745.905-1.306 1.196-.561.292-1.242.438-2.044.438a4.06 4.06 0 0 1-1.661-.328 3.65 3.65 0 0 1-1.265-.944 4.263 4.263 0 0 1-.806-1.483c-.183-.579-.274-1.226-.274-1.942v-.827c0-.715.094-1.362.281-1.941a4.285 4.285 0 0 1 .82-1.484 3.55 3.55 0 0 1 1.278-.95 4.192 4.192 0 0 1 1.689-.328c.793 0 1.463.146 2.009.438.547.291.971.695 1.272 1.21.305.515.492 1.105.56 1.77h-1.709a3.144 3.144 0 0 0-.3-1.1 1.555 1.555 0 0 0-.67-.698c-.296-.164-.684-.246-1.162-.246-.392 0-.734.073-1.026.219-.291.146-.535.36-.731.643a3.108 3.108 0 0 0-.445 1.045c-.095.411-.143.88-.143 1.409v.84c0 .502.043.957.13 1.368.091.405.228.754.41 1.046.187.291.424.517.711.676.287.16.631.24 1.032.24.488 0 .882-.078 1.183-.233.305-.155.535-.38.69-.677.16-.3.264-.667.315-1.1Zm7.273 1.757v-3.528c0-.264-.048-.492-.144-.683a1 1 0 0 0-.437-.445c-.191-.104-.433-.157-.725-.157-.269 0-.501.046-.697.137a1.123 1.123 0 0 0-.458.369.892.892 0 0 0-.164.526h-1.641c0-.291.071-.574.212-.847a2.27 2.27 0 0 1 .616-.732 3.07 3.07 0 0 1 .963-.506 4.013 4.013 0 0 1 1.258-.184c.556 0 1.048.093 1.477.28a2.24 2.24 0 0 1 1.018.848c.251.373.376.843.376 1.408v3.288c0 .337.023.64.069.909.05.265.12.495.212.691V251h-1.689a2.914 2.914 0 0 1-.184-.677 5.53 5.53 0 0 1-.062-.806Zm.239-3.015.014 1.019h-1.183c-.305 0-.574.029-.806.088a1.665 1.665 0 0 0-.581.246 1.07 1.07 0 0 0-.349.397c-.077.155-.116.33-.116.526s.045.376.137.54c.091.16.223.285.396.376.178.091.392.137.643.137.337 0 .631-.068.881-.205a1.8 1.8 0 0 0 .602-.513c.146-.205.223-.398.232-.581l.534.732a2.478 2.478 0 0 1-.281.601c-.132.214-.305.42-.519.615a2.577 2.577 0 0 1-1.771.657 2.83 2.83 0 0 1-1.292-.287 2.29 2.29 0 0 1-.888-.787 2.028 2.028 0 0 1-.322-1.127c0-.392.073-.739.219-1.04.15-.305.369-.56.656-.765.292-.205.647-.36 1.067-.465a5.72 5.72 0 0 1 1.435-.164h1.292Zm4.902-6.002V251h-1.655v-10.5h1.655Zm3.568 3.104V251h-1.654v-7.396h1.654Zm-1.764-1.942c0-.251.082-.458.246-.622.169-.169.401-.253.698-.253.291 0 .522.084.69.253a.83.83 0 0 1 .253.622.821.821 0 0 1-.253.615c-.168.164-.399.246-.69.246-.297 0-.529-.082-.698-.246a.834.834 0 0 1-.246-.615Zm3.576-1.162h1.647v8.921l-.157 1.579h-1.49v-10.5Zm6.473 6.733v.144c0 .547-.061 1.05-.184 1.511a3.495 3.495 0 0 1-.547 1.189 2.542 2.542 0 0 1-.903.786c-.355.183-.768.274-1.237.274-.46 0-.861-.087-1.203-.26a2.384 2.384 0 0 1-.861-.738 4.087 4.087 0 0 1-.554-1.142 7.546 7.546 0 0 1-.301-1.463v-.458c.059-.538.16-1.025.301-1.463a4.08 4.08 0 0 1 .554-1.141c.232-.324.517-.572.854-.745.342-.174.741-.26 1.196-.26.474 0 .891.091 1.251.273.365.183.668.442.91.78.241.332.421.729.54 1.189.123.46.184.968.184 1.524Zm-1.647.144v-.144c0-.332-.028-.644-.082-.936a2.455 2.455 0 0 0-.274-.779 1.364 1.364 0 0 0-.506-.527c-.209-.132-.471-.198-.786-.198-.291 0-.542.05-.752.15a1.513 1.513 0 0 0-.526.411 2.029 2.029 0 0 0-.335.601c-.077.228-.13.474-.157.738v1.238c.041.341.127.656.26.943.136.283.328.51.574.684.246.168.563.253.95.253.305 0 .563-.062.772-.185.21-.123.376-.294.499-.513.128-.223.219-.483.274-.779.059-.296.089-.615.089-.957Zm4.696-2.365V251h-1.647v-7.396h1.572l.075 1.408Zm2.263-1.456-.014 1.531a4.345 4.345 0 0 0-.67-.055c-.282 0-.531.041-.745.123a1.419 1.419 0 0 0-.54.342 1.507 1.507 0 0 0-.328.533c-.078.21-.123.445-.137.704l-.376.028c0-.465.046-.896.137-1.292a3.53 3.53 0 0 1 .41-1.046c.187-.301.419-.536.697-.704a1.87 1.87 0 0 1 .978-.253 2.064 2.064 0 0 1 .588.089Zm4.956 5.961v-3.528c0-.264-.048-.492-.144-.683a1.005 1.005 0 0 0-.437-.445c-.192-.104-.433-.157-.725-.157-.269 0-.501.046-.697.137a1.123 1.123 0 0 0-.458.369.885.885 0 0 0-.164.526h-1.641c0-.291.071-.574.212-.847.141-.274.346-.518.615-.732.269-.214.59-.383.964-.506a4.013 4.013 0 0 1 1.258-.184c.556 0 1.048.093 1.477.28.432.187.772.469 1.018.848.251.373.376.843.376 1.408v3.288c0 .337.023.64.068.909.051.265.121.495.212.691V251h-1.688a2.91 2.91 0 0 1-.185-.677 5.526 5.526 0 0 1-.061-.806Zm.239-3.015.014 1.019h-1.183c-.305 0-.574.029-.807.088a1.673 1.673 0 0 0-.581.246 1.068 1.068 0 0 0-.464.923c0 .196.045.376.136.54.091.16.224.285.397.376.177.091.392.137.642.137.338 0 .631-.068.882-.205a1.81 1.81 0 0 0 .602-.513c.146-.205.223-.398.232-.581l.533.732a2.472 2.472 0 0 1-.28.601c-.132.214-.305.42-.519.615a2.577 2.577 0 0 1-1.771.657c-.483 0-.914-.096-1.292-.287a2.301 2.301 0 0 1-.889-.787 2.036 2.036 0 0 1-.321-1.127c0-.392.073-.739.219-1.04.15-.305.369-.56.656-.765.292-.205.647-.36 1.066-.465.42-.109.898-.164 1.436-.164h1.292Zm6.528-2.898v1.203h-4.17v-1.203h4.17Zm-2.966-1.812h1.647v7.164c0 .228.032.403.096.526a.508.508 0 0 0 .28.24c.118.041.257.061.417.061.114 0 .223-.007.328-.02.105-.014.189-.028.253-.041l.007 1.257a4.004 4.004 0 0 1-.479.11 3.49 3.49 0 0 1-.615.048 2.4 2.4 0 0 1-1.005-.199 1.474 1.474 0 0 1-.683-.663c-.164-.305-.246-.711-.246-1.216v-7.267Zm6.001 1.812V251h-1.654v-7.396h1.654Zm-1.763-1.942c0-.251.082-.458.246-.622.169-.169.401-.253.697-.253.292 0 .522.084.691.253a.833.833 0 0 1 .253.622.825.825 0 0 1-.253.615c-.169.164-.399.246-.691.246-.296 0-.528-.082-.697-.246a.834.834 0 0 1-.246-.615Zm3.254 5.722v-.157c0-.534.077-1.028.232-1.484a3.52 3.52 0 0 1 .67-1.196 3.02 3.02 0 0 1 1.08-.793 3.51 3.51 0 0 1 1.449-.287c.543 0 1.026.095 1.45.287.428.187.79.451 1.086.793.297.337.522.736.677 1.196.155.456.233.95.233 1.484v.157c0 .533-.078 1.027-.233 1.483-.155.456-.38.855-.677 1.196a3.117 3.117 0 0 1-1.08.793 3.533 3.533 0 0 1-1.442.281 3.605 3.605 0 0 1-1.456-.281 3.117 3.117 0 0 1-1.08-.793 3.543 3.543 0 0 1-.677-1.196 4.579 4.579 0 0 1-.232-1.483Zm1.647-.157v.157c0 .332.034.647.103.943.068.296.175.556.321.779.146.224.333.399.561.527.227.127.499.191.813.191.305 0 .57-.064.793-.191a1.59 1.59 0 0 0 .561-.527c.145-.223.252-.483.321-.779.073-.296.109-.611.109-.943v-.157c0-.329-.036-.638-.109-.93a2.413 2.413 0 0 0-.328-.786 1.563 1.563 0 0 0-.561-.533 1.534 1.534 0 0 0-.8-.199c-.31 0-.578.066-.806.199a1.576 1.576 0 0 0-.554.533 2.47 2.47 0 0 0-.321.786 4.028 4.028 0 0 0-.103.93Zm8.244-2.044V251h-1.647v-7.396h1.552l.095 1.579Zm-.294 1.845-.533-.007a4.834 4.834 0 0 1 .219-1.442 3.57 3.57 0 0 1 .601-1.128c.26-.314.57-.556.93-.724.36-.174.761-.26 1.203-.26.356 0 .677.05.964.15.292.096.54.253.745.472.21.219.369.503.479.854.109.347.164.773.164 1.279V251h-1.654v-4.785c0-.356-.053-.636-.158-.841a.874.874 0 0 0-.444-.444 1.669 1.669 0 0 0-.718-.137c-.282 0-.535.059-.759.178-.223.118-.412.28-.567.485-.15.205-.267.442-.349.711a2.938 2.938 0 0 0-.123.861Z" fill="#383838"/>
  <path d="m23.773 236.992 1.976-6.945h.957l-.554 2.7L24.026 240h-.95l.697-3.008Zm-2.043-6.945 1.572 6.808.471 3.145h-.943l-2.413-9.953h1.313Zm7.533 6.802 1.538-6.802h1.32L29.713 240h-.944l.493-3.151Zm-2.413-6.802 1.92 6.945.698 3.008h-.95l-2.051-7.253-.56-2.7h.943Zm7.806-.547V240h-1.264v-10.5h1.264Zm-.3 6.521-.527-.02c.005-.506.08-.973.226-1.401.145-.433.35-.809.615-1.128.264-.319.579-.565.943-.739.37-.177.777-.266 1.224-.266.364 0 .693.05.984.15.292.096.54.251.745.465.21.214.37.492.479.834.11.337.164.75.164 1.237V240h-1.272v-4.86c0-.388-.056-.698-.17-.93a1.052 1.052 0 0 0-.5-.513c-.218-.109-.487-.164-.806-.164-.314 0-.602.066-.861.198a2.078 2.078 0 0 0-.663.547 2.756 2.756 0 0 0-.431.8c-.1.296-.15.611-.15.943Zm11.108 2.714v-3.807c0-.292-.06-.545-.178-.759a1.165 1.165 0 0 0-.52-.506c-.232-.118-.519-.178-.86-.178-.32 0-.6.055-.841.164-.237.11-.424.253-.561.431a.944.944 0 0 0-.198.574H41.04c0-.264.068-.526.205-.786a2.3 2.3 0 0 1 .588-.704c.26-.214.57-.383.93-.506a3.68 3.68 0 0 1 1.216-.191c.538 0 1.012.091 1.422.273.415.183.739.458.971.827.237.365.355.823.355 1.374v3.446c0 .246.021.508.062.786.046.278.112.517.198.718V240h-1.32a2.368 2.368 0 0 1-.15-.581 4.681 4.681 0 0 1-.054-.684Zm.219-3.219.013.888h-1.278c-.36 0-.681.03-.964.089a2.21 2.21 0 0 0-.71.253 1.205 1.205 0 0 0-.438.431c-.1.168-.15.367-.15.594 0 .233.052.445.157.636.104.192.261.344.471.458.214.11.476.164.786.164.388 0 .73-.082 1.026-.246.296-.164.53-.364.704-.601.178-.237.273-.467.287-.691l.54.609a1.833 1.833 0 0 1-.26.635 3.072 3.072 0 0 1-1.401 1.197 2.73 2.73 0 0 1-1.08.205c-.502 0-.941-.098-1.32-.294a2.256 2.256 0 0 1-.875-.786 2.082 2.082 0 0 1-.307-1.115c0-.396.077-.745.232-1.046.155-.305.379-.558.67-.758.292-.205.643-.36 1.053-.465.41-.105.868-.157 1.374-.157h1.47Zm6.132-2.912v.97h-4v-.97h4Zm-2.646-1.798h1.265v7.362c0 .251.038.44.116.567a.554.554 0 0 0 .3.253c.124.041.256.062.397.062.105 0 .214-.009.328-.028a8.13 8.13 0 0 0 .267-.054l.007 1.032c-.1.032-.233.062-.397.089-.16.032-.353.048-.58.048-.31 0-.596-.062-.855-.185a1.374 1.374 0 0 1-.623-.615c-.15-.292-.225-.684-.225-1.176v-7.355Zm11.963 7.929v-3.807c0-.292-.06-.545-.178-.759a1.165 1.165 0 0 0-.52-.506c-.232-.118-.519-.178-.86-.178-.32 0-.6.055-.842.164-.237.11-.423.253-.56.431a.944.944 0 0 0-.198.574h-1.265c0-.264.068-.526.205-.786a2.3 2.3 0 0 1 .588-.704c.26-.214.57-.383.93-.506a3.68 3.68 0 0 1 1.216-.191c.538 0 1.012.091 1.422.273.415.183.739.458.971.827.237.365.356.823.356 1.374v3.446c0 .246.02.508.061.786.046.278.112.517.198.718V240h-1.32a2.373 2.373 0 0 1-.15-.581 4.695 4.695 0 0 1-.054-.684Zm.219-3.219.013.888h-1.278c-.36 0-.681.03-.964.089a2.21 2.21 0 0 0-.71.253 1.205 1.205 0 0 0-.438.431c-.1.168-.15.367-.15.594 0 .233.052.445.157.636.104.192.261.344.471.458.214.11.476.164.786.164.388 0 .73-.082 1.026-.246.296-.164.53-.364.704-.601.177-.237.273-.467.287-.691l.54.609a1.834 1.834 0 0 1-.26.635 3.072 3.072 0 0 1-1.401 1.197 2.73 2.73 0 0 1-1.08.205c-.502 0-.941-.098-1.32-.294a2.256 2.256 0 0 1-.875-.786 2.082 2.082 0 0 1-.307-1.115c0-.396.077-.745.232-1.046.155-.305.378-.558.67-.758.292-.205.643-.36 1.053-.465.41-.105.868-.157 1.374-.157h1.47Zm4.3-1.75V240h-1.265v-7.396h1.23l.034 1.162Zm2.31-1.204-.007 1.176a1.852 1.852 0 0 0-.3-.041 3.248 3.248 0 0 0-.315-.013c-.292 0-.55.045-.773.136a1.6 1.6 0 0 0-.567.383 1.84 1.84 0 0 0-.37.588 2.817 2.817 0 0 0-.17.738l-.356.205c0-.446.044-.866.13-1.257.091-.392.23-.739.417-1.039a2.03 2.03 0 0 1 .711-.711c.292-.174.638-.26 1.04-.26.09 0 .195.011.314.034a.96.96 0 0 1 .246.061Zm4.102 7.575c-.516 0-.983-.087-1.402-.26a3.18 3.18 0 0 1-1.073-.745 3.31 3.31 0 0 1-.684-1.135 4.159 4.159 0 0 1-.239-1.435v-.288c0-.601.089-1.137.267-1.606.177-.474.419-.875.724-1.203a3.097 3.097 0 0 1 1.04-.745 2.978 2.978 0 0 1 1.202-.253c.53 0 .985.091 1.368.273a2.5 2.5 0 0 1 .95.766c.246.323.428.706.547 1.148.118.438.177.916.177 1.436v.567h-5.523v-1.032h4.259v-.096a3.154 3.154 0 0 0-.205-.957 1.715 1.715 0 0 0-.547-.765c-.25-.201-.593-.301-1.026-.301a1.721 1.721 0 0 0-1.415.718 2.681 2.681 0 0 0-.403.868 4.4 4.4 0 0 0-.144 1.182v.288c0 .35.048.681.144.991.1.305.244.574.43.806.192.233.422.415.691.547.274.132.584.198.93.198.447 0 .825-.091 1.135-.273.31-.182.58-.426.813-.731l.766.608c-.16.242-.363.472-.609.69-.246.219-.549.397-.909.534-.355.136-.777.205-1.264.205Zm9.7-1.449 1.9-6.084h.834l-.164 1.209L82.398 240h-.813l.178-1.312Zm-1.279-6.084 1.62 6.152.117 1.244h-.855l-2.146-7.396h1.264Zm5.831 6.104 1.545-6.104h1.258L86.972 240h-.848l.191-1.292Zm-1.633-6.104 1.859 5.981.212 1.415h-.807l-1.989-6.2-.164-1.196h.889Zm8.804 7.533c-.515 0-.982-.087-1.401-.26a3.18 3.18 0 0 1-1.073-.745 3.31 3.31 0 0 1-.684-1.135 4.159 4.159 0 0 1-.24-1.435v-.288c0-.601.09-1.137.268-1.606a3.59 3.59 0 0 1 .724-1.203 3.097 3.097 0 0 1 1.04-.745 2.979 2.979 0 0 1 1.202-.253c.529 0 .985.091 1.367.273a2.5 2.5 0 0 1 .95.766c.247.323.429.706.547 1.148.119.438.178.916.178 1.436v.567h-5.523v-1.032H95.1v-.096a3.154 3.154 0 0 0-.206-.957 1.715 1.715 0 0 0-.546-.765c-.251-.201-.593-.301-1.026-.301a1.722 1.722 0 0 0-1.415.718 2.681 2.681 0 0 0-.403.868 4.4 4.4 0 0 0-.144 1.182v.288c0 .35.048.681.144.991.1.305.244.574.43.806.192.233.422.415.691.547.273.132.583.198.93.198.446 0 .825-.091 1.134-.273a2.81 2.81 0 0 0 .814-.731l.766.608c-.16.242-.363.472-.609.69-.246.219-.549.397-.909.534-.356.136-.777.205-1.265.205Zm12.49-1.573V229.5h1.271V240h-1.162l-.109-1.436Zm-4.977-2.18v-.144c0-.565.068-1.078.205-1.538.141-.465.34-.863.595-1.196.26-.333.567-.588.923-.766.36-.182.761-.273 1.203-.273.465 0 .87.082 1.217.246.351.159.647.394.888.704.246.305.44.674.581 1.107a6.9 6.9 0 0 1 .294 1.47v.629a6.43 6.43 0 0 1-.294 1.463 3.44 3.44 0 0 1-.581 1.107c-.241.306-.537.54-.888.704-.351.16-.761.24-1.231.24a2.54 2.54 0 0 1-1.189-.281 2.786 2.786 0 0 1-.923-.786 3.822 3.822 0 0 1-.595-1.189 5.224 5.224 0 0 1-.205-1.497Zm1.272-.144v.144c0 .369.036.715.109 1.039.077.323.196.608.355.854.16.246.363.44.609.581.246.137.54.205.882.205.419 0 .763-.088 1.032-.266.273-.178.492-.413.656-.704a4.08 4.08 0 0 0 .383-.95v-1.648a3.702 3.702 0 0 0-.239-.724 2.247 2.247 0 0 0-.397-.629 1.718 1.718 0 0 0-.595-.445 1.93 1.93 0 0 0-.827-.164c-.346 0-.645.073-.895.219a1.746 1.746 0 0 0-.609.588 2.717 2.717 0 0 0-.355.861c-.073.324-.109.67-.109 1.039Zm6.61.144v-.157c0-.534.077-1.028.232-1.484.155-.46.379-.859.67-1.196a2.99 2.99 0 0 1 1.06-.793 3.275 3.275 0 0 1 1.394-.287 3.3 3.3 0 0 1 1.402.287c.419.187.774.451 1.066.793.296.337.522.736.677 1.196.155.456.232.95.232 1.484v.157c0 .533-.077 1.027-.232 1.483a3.543 3.543 0 0 1-.677 1.196 3.094 3.094 0 0 1-1.059.793 3.33 3.33 0 0 1-1.395.281c-.52 0-.987-.094-1.401-.281a3.153 3.153 0 0 1-1.067-.793 3.614 3.614 0 0 1-.67-1.196 4.579 4.579 0 0 1-.232-1.483Zm1.265-.157v.157c0 .369.043.718.129 1.046.087.323.217.61.39.861.178.251.399.449.663.595.264.141.572.212.923.212.346 0 .649-.071.909-.212.264-.146.483-.344.656-.595.174-.251.303-.538.39-.861.091-.328.137-.677.137-1.046v-.157c0-.365-.046-.709-.137-1.033a2.685 2.685 0 0 0-.396-.868 1.88 1.88 0 0 0-.657-.601 1.837 1.837 0 0 0-.916-.219c-.346 0-.651.073-.916.219a1.968 1.968 0 0 0-.656.601c-.173.251-.303.54-.39.868a4.01 4.01 0 0 0-.129 1.033Zm8.428-3.623V240h-1.271v-7.396h1.271Zm-1.367-1.962c0-.205.062-.379.185-.52.127-.141.314-.212.56-.212.242 0 .426.071.554.212a.733.733 0 0 1 .198.52.713.713 0 0 1-.198.505c-.128.137-.312.206-.554.206-.246 0-.433-.069-.56-.206a.742.742 0 0 1-.185-.505Zm4.662 3.541V240h-1.265v-7.396h1.197l.068 1.579Zm-.301 1.838-.526-.02c.005-.506.08-.973.226-1.401.145-.433.35-.809.615-1.128.264-.319.579-.565.943-.739a2.793 2.793 0 0 1 1.224-.266c.364 0 .693.05.984.15.292.096.54.251.745.465.21.214.369.492.479.834.109.337.164.75.164 1.237V240h-1.272v-4.86c0-.388-.057-.698-.171-.93a1.047 1.047 0 0 0-.499-.513c-.218-.109-.487-.164-.806-.164-.315 0-.602.066-.862.198a2.08 2.08 0 0 0-.663.547 2.767 2.767 0 0 0-.43.8 2.903 2.903 0 0 0-.151.943Zm11.567-3.417h1.148v7.239c0 .651-.132 1.207-.396 1.668a2.59 2.59 0 0 1-1.108 1.046c-.469.241-1.011.362-1.627.362-.255 0-.556-.041-.902-.123a3.67 3.67 0 0 1-1.012-.403 2.528 2.528 0 0 1-.827-.759l.663-.752c.31.374.634.633.971.779.342.146.679.219 1.012.219.401 0 .747-.075 1.039-.226.291-.15.517-.373.676-.67.165-.291.247-.651.247-1.08v-5.674l.116-1.626Zm-5.093 3.78v-.144c0-.565.066-1.078.198-1.538.137-.465.331-.863.581-1.196a2.608 2.608 0 0 1 2.14-1.039c.465 0 .87.082 1.217.246.351.159.647.394.888.704.246.305.44.674.581 1.107a6.9 6.9 0 0 1 .294 1.47v.629a6.43 6.43 0 0 1-.294 1.463 3.44 3.44 0 0 1-.581 1.107c-.241.306-.537.54-.888.704-.351.16-.761.24-1.231.24a2.57 2.57 0 0 1-1.203-.281 2.724 2.724 0 0 1-.916-.786 3.726 3.726 0 0 1-.588-1.189 5.409 5.409 0 0 1-.198-1.497Zm1.265-.144v.144c0 .369.036.715.109 1.039.077.323.194.608.349.854.159.246.362.44.608.581.246.137.54.205.882.205.419 0 .766-.088 1.039-.266.273-.178.49-.413.649-.704a4.08 4.08 0 0 0 .383-.95v-1.648a3.323 3.323 0 0 0-.232-.724 2.247 2.247 0 0 0-.397-.629 1.714 1.714 0 0 0-.594-.445 1.98 1.98 0 0 0-.834-.164 1.75 1.75 0 0 0-.896.219 1.735 1.735 0 0 0-.608.588 2.806 2.806 0 0 0-.349.861c-.073.324-.109.67-.109 1.039Zm9.645.957h-1.271c.004-.437.043-.795.116-1.073.077-.283.203-.54.376-.772.173-.233.403-.497.69-.793.21-.215.401-.415.575-.602.177-.191.321-.396.43-.615.11-.224.164-.49.164-.8 0-.314-.057-.586-.171-.813a1.168 1.168 0 0 0-.492-.527c-.214-.123-.481-.184-.8-.184-.264 0-.515.047-.752.143a1.298 1.298 0 0 0-.574.444c-.146.196-.221.454-.225.773h-1.265c.009-.515.137-.957.383-1.326.25-.369.588-.652 1.011-.848a3.35 3.35 0 0 1 1.422-.294c.579 0 1.071.105 1.477.315.41.209.722.51.936.902.215.387.322.848.322 1.381 0 .41-.085.788-.253 1.135a4.341 4.341 0 0 1-.636.963c-.26.301-.535.588-.827.862a1.74 1.74 0 0 0-.506.786c-.087.292-.13.606-.13.943Zm-1.326 2.167c0-.205.064-.378.191-.519.128-.142.313-.212.554-.212.246 0 .433.07.561.212a.748.748 0 0 1 .191.519.731.731 0 0 1-.191.506c-.128.141-.315.212-.561.212-.241 0-.426-.071-.554-.212a.731.731 0 0 1-.191-.506Z" fill="#757575"/>
  <path d="M272.707 371.707a.999.999 0 0 1-1.414 0l-6.364-6.364a.999.999 0 1 1 1.414-1.414l5.657 5.657 5.657-5.657a.999.999 0 1 1 1.414 1.414l-6.364 6.364ZM273 291v80h-2v-80h2ZM272.707 180.707a.999.999 0 0 1-1.414 0l-6.364-6.364a.999.999 0 1 1 1.414-1.414l5.657 5.657 5.657-5.657a.999.999 0 1 1 1.414 1.414l-6.364 6.364ZM273 100v80h-2v-80h2Z" fill="#6D0F3F"/>
  <path d="m24.007 46.992 1.975-6.945h.957l-.553 2.7L24.26 50h-.95l.697-3.008Zm-2.044-6.945 1.572 6.809.472 3.144h-.944l-2.413-9.953h1.313Zm7.533 6.802 1.538-6.802h1.32L29.946 50h-.943l.492-3.151Zm-2.413-6.802 1.92 6.945.698 3.008h-.95l-2.05-7.253-.561-2.7h.943Zm7.807-.547V50h-1.265V39.5h1.265Zm-.301 6.522L34.063 46c.004-.506.08-.973.225-1.401.146-.433.351-.81.615-1.128a2.741 2.741 0 0 1 2.167-1.005c.365 0 .693.05.985.15.291.096.54.25.745.465.21.214.369.492.478.834.11.337.164.75.164 1.237V50h-1.271v-4.86c0-.388-.057-.698-.171-.93a1.05 1.05 0 0 0-.499-.513c-.219-.11-.488-.164-.807-.164-.314 0-.601.066-.861.198a2.062 2.062 0 0 0-.663.547 2.75 2.75 0 0 0-.43.8c-.101.296-.151.61-.151.944Zm11.108 2.713v-3.807c0-.292-.059-.545-.178-.76a1.163 1.163 0 0 0-.519-.505c-.232-.118-.52-.178-.861-.178-.32 0-.6.055-.841.164-.237.11-.424.253-.56.431a.943.943 0 0 0-.199.574h-1.265c0-.264.069-.526.206-.786.136-.26.332-.494.587-.704.26-.214.57-.383.93-.506.365-.127.77-.191 1.217-.191.538 0 1.012.09 1.422.273.414.182.738.458.97.827.237.365.356.823.356 1.374v3.446c0 .246.02.508.061.786.046.278.112.517.199.718V50h-1.32a2.36 2.36 0 0 1-.15-.581 4.679 4.679 0 0 1-.055-.684Zm.219-3.22.014.89H44.65c-.36 0-.68.029-.964.088-.282.055-.519.14-.71.253a1.202 1.202 0 0 0-.438.43c-.1.17-.15.368-.15.596 0 .232.052.444.157.635.105.192.262.344.472.458.214.11.476.164.786.164.387 0 .729-.082 1.025-.246.296-.164.531-.364.704-.601.178-.237.274-.468.287-.69l.54.608a1.837 1.837 0 0 1-.26.635 3.06 3.06 0 0 1-1.401 1.196 2.715 2.715 0 0 1-1.08.206c-.501 0-.94-.098-1.32-.294a2.255 2.255 0 0 1-.874-.786 2.08 2.08 0 0 1-.308-1.115c0-.396.078-.745.233-1.045a2.02 2.02 0 0 1 .67-.76c.291-.204.642-.36 1.052-.464.41-.105.868-.157 1.374-.157h1.47Zm6.132-2.912v.971h-4v-.97h4Zm-2.646-1.797h1.265v7.362c0 .25.039.44.116.567a.555.555 0 0 0 .301.253c.123.041.255.062.396.062.105 0 .215-.01.329-.027.118-.023.207-.042.266-.055L52.082 50c-.1.032-.232.062-.397.089-.159.032-.353.048-.58.048a1.97 1.97 0 0 1-.855-.185 1.374 1.374 0 0 1-.622-.615c-.15-.292-.226-.684-.226-1.176v-7.355Zm12.264 7.759V39.5h1.272V50h-1.163l-.109-1.435Zm-4.976-2.181v-.144c0-.565.068-1.078.205-1.538.14-.465.339-.863.594-1.196a2.69 2.69 0 0 1 .923-.766c.36-.182.761-.273 1.203-.273.465 0 .87.082 1.217.246.35.16.647.394.889.704.246.305.44.675.58 1.107.142.433.24.923.295 1.47v.629a6.44 6.44 0 0 1-.294 1.463 3.452 3.452 0 0 1-.581 1.107c-.242.306-.538.54-.889.705-.35.159-.761.239-1.23.239-.433 0-.83-.094-1.19-.28a2.805 2.805 0 0 1-.923-.787 3.83 3.83 0 0 1-.594-1.19 5.238 5.238 0 0 1-.206-1.496Zm1.27-.144v.144c0 .369.037.715.11 1.039.078.323.196.608.356.854.16.246.362.44.608.581.246.137.54.206.882.206.42 0 .763-.09 1.032-.267.274-.178.492-.413.657-.704.164-.292.291-.609.382-.95v-1.648a3.647 3.647 0 0 0-.239-.724 2.231 2.231 0 0 0-.396-.63 1.714 1.714 0 0 0-.595-.444 1.926 1.926 0 0 0-.827-.164 1.75 1.75 0 0 0-.896.219 1.744 1.744 0 0 0-.608.588c-.16.246-.278.533-.356.861a4.72 4.72 0 0 0-.11 1.04Zm6.611.144v-.157c0-.534.078-1.028.233-1.484.155-.46.378-.859.67-1.196a2.99 2.99 0 0 1 1.06-.793 3.29 3.29 0 0 1 1.394-.287c.52 0 .986.096 1.401.287.42.187.775.451 1.067.793.296.337.521.736.676 1.196.155.456.233.95.233 1.484v.157c0 .533-.078 1.027-.233 1.483-.155.456-.38.855-.677 1.197a3.1 3.1 0 0 1-1.06.792c-.41.187-.874.28-1.394.28-.52 0-.986-.093-1.401-.28a3.172 3.172 0 0 1-1.066-.793 3.616 3.616 0 0 1-.67-1.196 4.582 4.582 0 0 1-.233-1.483Zm1.265-.157v.157c0 .369.043.718.13 1.046.086.323.216.61.39.861.177.25.398.449.663.595.264.141.572.212.922.212.347 0 .65-.071.91-.212.264-.146.483-.344.656-.595.173-.25.303-.538.39-.861.09-.328.136-.677.136-1.046v-.157c0-.365-.045-.71-.136-1.033a2.658 2.658 0 0 0-.397-.868 1.884 1.884 0 0 0-.656-.601 1.842 1.842 0 0 0-.916-.22c-.347 0-.652.074-.916.22-.26.145-.479.346-.656.601-.174.25-.304.54-.39.868-.087.324-.13.668-.13 1.033Zm12.4 2.46 1.9-6.084h.835l-.164 1.21L78.872 50h-.813l.177-1.313Zm-1.278-6.084 1.62 6.153.116 1.244h-.854l-2.147-7.397h1.265Zm5.831 6.105 1.545-6.105h1.258L83.445 50h-.847l.191-1.292Zm-1.634-6.105 1.86 5.982.212 1.415h-.807l-1.99-6.2-.163-1.197h.888Zm8.805 7.534a3.64 3.64 0 0 1-1.401-.26 3.178 3.178 0 0 1-1.074-.745 3.313 3.313 0 0 1-.683-1.135 4.162 4.162 0 0 1-.24-1.435v-.288c0-.601.09-1.137.267-1.606.178-.474.42-.875.725-1.203a3.103 3.103 0 0 1 1.039-.745 2.985 2.985 0 0 1 1.203-.253c.528 0 .984.09 1.367.273.388.182.704.438.95.766.246.323.429.706.547 1.148.119.438.178.916.178 1.436v.567h-5.523v-1.032h4.258v-.096a3.153 3.153 0 0 0-.205-.957 1.722 1.722 0 0 0-.547-.765c-.25-.2-.592-.301-1.025-.301a1.722 1.722 0 0 0-1.415.718 2.685 2.685 0 0 0-.403.868 4.4 4.4 0 0 0-.144 1.182v.288c0 .35.048.68.144.99.1.306.243.575.43.807.192.233.422.415.69.547.274.132.584.199.93.199.447 0 .825-.092 1.135-.274.31-.182.581-.426.814-.731l.765.608c-.16.242-.362.472-.608.69-.246.22-.55.397-.91.534-.355.136-.776.205-1.264.205ZM99.052 39.5V50h-1.265V39.5h1.265Zm-.301 6.522L98.225 46c.004-.506.08-.973.225-1.401.146-.433.351-.81.615-1.128a2.741 2.741 0 0 1 2.167-1.005c.365 0 .693.05.985.15.291.096.54.25.745.465.21.214.369.492.478.834.11.337.164.75.164 1.237V50h-1.271v-4.86c0-.388-.057-.698-.171-.93a1.05 1.05 0 0 0-.499-.513c-.219-.11-.488-.164-.807-.164-.314 0-.601.066-.86.198a2.062 2.062 0 0 0-.664.547 2.75 2.75 0 0 0-.43.8c-.1.296-.151.61-.151.944Zm11.108 2.713v-3.807c0-.292-.059-.545-.177-.76a1.162 1.162 0 0 0-.52-.505c-.232-.118-.519-.178-.861-.178-.319 0-.6.055-.841.164-.237.11-.424.253-.561.431a.944.944 0 0 0-.198.574h-1.264c0-.264.068-.526.205-.786.136-.26.332-.494.587-.704.26-.214.57-.383.93-.506.365-.127.77-.191 1.217-.191.538 0 1.012.09 1.422.273.415.182.738.458.971.827.237.365.355.823.355 1.374v3.446c0 .246.021.508.062.786.045.278.111.517.198.718V50h-1.32a2.425 2.425 0 0 1-.15-.581 4.752 4.752 0 0 1-.055-.684Zm.219-3.22.014.89h-1.279c-.36 0-.681.029-.963.088-.283.055-.52.14-.711.253a1.197 1.197 0 0 0-.438.43c-.1.17-.15.368-.15.596 0 .232.052.444.157.635.105.192.262.344.472.458.214.11.476.164.786.164a2.08 2.08 0 0 0 1.025-.246c.296-.164.531-.364.704-.601.178-.237.274-.468.287-.69l.54.608a1.822 1.822 0 0 1-.259.635 3.064 3.064 0 0 1-1.402 1.197 2.715 2.715 0 0 1-1.08.205c-.501 0-.941-.098-1.319-.294a2.256 2.256 0 0 1-.875-.786 2.082 2.082 0 0 1-.308-1.115c0-.396.078-.745.233-1.045.155-.306.378-.559.67-.76.291-.204.642-.36 1.052-.464a5.559 5.559 0 0 1 1.374-.157h1.47Zm5.175 3.343 2.023-6.255h1.292L115.909 50h-.847l.191-1.142Zm-1.689-6.255 2.085 6.29.144 1.107h-.848l-2.679-7.397h1.298Zm9.195 7.534c-.515 0-.982-.087-1.402-.26a3.187 3.187 0 0 1-1.073-.745 3.308 3.308 0 0 1-.683-1.135 4.15 4.15 0 0 1-.24-1.435v-.288c0-.601.089-1.137.267-1.606.178-.474.419-.875.725-1.203a3.094 3.094 0 0 1 1.039-.745 2.982 2.982 0 0 1 1.203-.253c.528 0 .984.09 1.367.273.387.182.704.438.95.766.246.323.428.706.547 1.148a5.5 5.5 0 0 1 .178 1.436v.567h-5.524v-1.032h4.259v-.096a3.162 3.162 0 0 0-.205-.957 1.72 1.72 0 0 0-.547-.765c-.251-.2-.592-.301-1.025-.301a1.72 1.72 0 0 0-1.415.718 2.696 2.696 0 0 0-.404.868 4.43 4.43 0 0 0-.143 1.182v.288c0 .35.048.68.143.99.101.306.244.575.431.807.191.233.422.415.69.547.274.132.584.199.93.199.447 0 .825-.092 1.135-.274.31-.182.581-.426.813-.731l.766.608a3.522 3.522 0 0 1-.608.69c-.246.22-.55.397-.91.534-.355.136-.777.205-1.264.205Zm7.102-2.94h-1.271c.004-.437.043-.795.116-1.073.078-.282.203-.54.376-.772a8.28 8.28 0 0 1 .69-.793c.21-.215.402-.415.575-.602.177-.191.321-.397.43-.615.11-.224.164-.49.164-.8 0-.315-.057-.586-.17-.814a1.176 1.176 0 0 0-.493-.526c-.214-.123-.48-.184-.799-.184-.265 0-.515.047-.752.143a1.296 1.296 0 0 0-.575.444c-.145.196-.221.454-.225.773h-1.265c.009-.515.137-.957.383-1.326.251-.37.588-.652 1.012-.848a3.343 3.343 0 0 1 1.422-.294c.578 0 1.07.105 1.476.315.41.21.722.51.937.902.214.387.321.848.321 1.38 0 .411-.084.79-.253 1.136a4.344 4.344 0 0 1-.636.963c-.26.301-.535.588-.827.862a1.744 1.744 0 0 0-.506.786c-.086.292-.13.606-.13.943Zm-1.326 2.167c0-.205.064-.378.192-.52.127-.14.312-.211.553-.211.246 0 .433.07.561.212a.75.75 0 0 1 .191.52.731.731 0 0 1-.191.505c-.128.141-.315.212-.561.212-.241 0-.426-.07-.553-.212a.728.728 0 0 1-.192-.506Z" fill="#757575"/>
  <path d="m163.22 45 30.73-44h156.1l30.73 44-30.73 44h-156.1l-30.73-44Z" fill="#F8F8F8" stroke="#6D0F3F" stroke-width="2"/>
  <path d="M232.023 35.76h1.709a3.946 3.946 0 0 1-.546 1.743c-.31.506-.746.905-1.306 1.196-.561.292-1.242.438-2.044.438-.615 0-1.169-.11-1.661-.328a3.645 3.645 0 0 1-1.265-.944 4.251 4.251 0 0 1-.806-1.483c-.183-.579-.274-1.226-.274-1.942v-.827c0-.715.094-1.362.28-1.941a4.294 4.294 0 0 1 .821-1.483 3.538 3.538 0 0 1 1.278-.95 4.177 4.177 0 0 1 1.688-.329c.793 0 1.463.146 2.01.438.547.291.971.695 1.272 1.21.305.515.492 1.105.56 1.77h-1.709a3.148 3.148 0 0 0-.301-1.1 1.547 1.547 0 0 0-.669-.698c-.297-.164-.684-.246-1.163-.246-.391 0-.733.073-1.025.219-.292.146-.535.36-.731.642a3.112 3.112 0 0 0-.445 1.046c-.095.41-.143.88-.143 1.409v.84c0 .502.043.958.13 1.368.091.405.227.754.41 1.045.187.292.424.518.711.677.287.16.631.24 1.032.24.488 0 .882-.078 1.183-.233a1.55 1.55 0 0 0 .69-.677c.159-.3.264-.667.314-1.1Zm7.554 1.497v-5.653h1.654V39h-1.558l-.096-1.743Zm.233-1.538.553-.014c0 .497-.054.955-.164 1.374a3.176 3.176 0 0 1-.506 1.087 2.362 2.362 0 0 1-.875.718c-.355.168-.781.253-1.278.253-.36 0-.69-.053-.991-.157a2.023 2.023 0 0 1-.779-.486 2.192 2.192 0 0 1-.499-.854c-.119-.351-.178-.77-.178-1.258v-4.778h1.647v4.791c0 .27.032.495.096.677.064.178.15.322.26.43.109.11.237.188.383.233.145.046.3.069.464.069.47 0 .839-.091 1.108-.274.273-.187.467-.437.581-.752.118-.314.178-.667.178-1.06Zm4.764-2.707V39h-1.647v-7.396h1.572l.075 1.408Zm2.263-1.456-.014 1.53a4.296 4.296 0 0 0-.67-.055c-.282.001-.531.042-.745.124a1.406 1.406 0 0 0-.54.342c-.141.146-.25.324-.328.533a2.41 2.41 0 0 0-.137.704l-.376.028c0-.465.046-.896.137-1.292.091-.397.228-.745.41-1.046.187-.301.419-.536.697-.704.283-.169.609-.253.978-.253.1 0 .207.009.321.027.119.018.208.039.267.062Zm2.686 1.456V39h-1.647v-7.396h1.572l.075 1.408Zm2.263-1.456-.014 1.53a4.29 4.29 0 0 0-.669-.055c-.283.001-.531.042-.746.124a1.406 1.406 0 0 0-.54.342c-.141.146-.25.324-.328.533-.077.21-.123.445-.136.704l-.376.028c0-.465.045-.896.136-1.292.091-.397.228-.745.41-1.046.187-.301.42-.536.698-.704.282-.169.608-.253.977-.253.101 0 .208.009.322.027.118.018.207.039.266.062Zm4.156 7.58a3.945 3.945 0 0 1-1.483-.266 3.27 3.27 0 0 1-1.121-.759 3.367 3.367 0 0 1-.704-1.141 3.999 3.999 0 0 1-.246-1.415v-.274c0-.578.084-1.103.253-1.572.168-.47.403-.87.704-1.203a3.026 3.026 0 0 1 1.066-.773c.41-.177.855-.266 1.333-.266.529 0 .991.089 1.388.266.396.178.724.429.984.752.265.32.46.7.588 1.142.132.442.198.93.198 1.463v.704h-5.714V34.61h4.087v-.13a2.318 2.318 0 0 0-.177-.834 1.418 1.418 0 0 0-.486-.628c-.218-.16-.51-.24-.875-.24-.273 0-.517.06-.731.178-.21.114-.385.28-.527.5-.141.218-.25.482-.328.792-.073.305-.109.65-.109 1.032v.274c0 .323.043.624.13.902.091.273.223.513.396.718.174.205.383.367.629.485.246.114.527.171.841.171.397 0 .75-.08 1.06-.24.31-.159.578-.384.806-.676l.868.84a3.347 3.347 0 0 1-.622.67c-.255.21-.567.381-.936.514a3.732 3.732 0 0 1-1.272.198Zm5.879-5.953V39h-1.647v-7.396h1.552l.095 1.579Zm-.294 1.845-.533-.006a4.834 4.834 0 0 1 .219-1.443c.146-.437.346-.813.601-1.128.26-.314.57-.556.93-.724.36-.174.761-.26 1.203-.26.356 0 .677.05.964.15.292.096.54.253.745.472.21.219.369.503.479.854.109.347.164.773.164 1.279V39h-1.654v-4.785c0-.356-.053-.636-.158-.841a.878.878 0 0 0-.444-.444c-.191-.091-.431-.137-.718-.137-.282 0-.535.06-.759.178-.223.118-.412.28-.567.485-.15.205-.267.442-.349.711a2.938 2.938 0 0 0-.123.861Zm9.844-3.424v1.203h-4.17v-1.204h4.17Zm-2.967-1.812h1.648v7.164c0 .228.032.403.095.526a.514.514 0 0 0 .281.24c.118.04.257.061.417.061.114 0 .223-.007.328-.02.105-.014.189-.028.253-.041l.007 1.258a4.246 4.246 0 0 1-.479.109 3.517 3.517 0 0 1-.615.048c-.378 0-.713-.066-1.005-.199a1.478 1.478 0 0 1-.684-.663c-.164-.305-.246-.71-.246-1.216v-7.267Zm9.379 3.233v8.819h-1.647v-10.24h1.517l.13 1.421Zm4.82 2.208v.144a5.57 5.57 0 0 1-.192 1.497 3.638 3.638 0 0 1-.554 1.196c-.241.338-.54.6-.895.786-.356.187-.766.28-1.231.28-.46 0-.863-.084-1.21-.252a2.486 2.486 0 0 1-.868-.732 3.974 3.974 0 0 1-.574-1.107 7.184 7.184 0 0 1-.301-1.408v-.554c.06-.542.16-1.035.301-1.477.146-.442.337-.822.574-1.141.237-.32.527-.565.868-.738.342-.174.741-.26 1.197-.26a2.7 2.7 0 0 1 1.237.273c.36.178.663.433.909.766.246.328.431.724.554 1.19.123.46.185.972.185 1.537Zm-1.648.144v-.144c0-.341-.032-.658-.096-.95a2.479 2.479 0 0 0-.3-.78 1.478 1.478 0 0 0-.527-.519 1.43 1.43 0 0 0-.759-.191c-.291 0-.542.05-.752.15-.209.096-.385.23-.526.404a1.901 1.901 0 0 0-.328.608 3.682 3.682 0 0 0-.164.745v1.326c.055.328.148.63.28.903.132.273.319.492.561.656.246.16.56.24.943.24.296 0 .549-.065.759-.192.21-.128.38-.303.513-.527.136-.227.237-.49.3-.786a4.46 4.46 0 0 0 .096-.943Zm4.703-2.365V39h-1.647v-7.396h1.572l.075 1.408Zm2.263-1.456-.014 1.53a4.296 4.296 0 0 0-.67-.055c-.282.001-.531.042-.745.124a1.406 1.406 0 0 0-.54.342 1.5 1.5 0 0 0-.328.533 2.41 2.41 0 0 0-.137.704l-.376.028c0-.465.046-.896.137-1.292.091-.397.228-.745.41-1.046.187-.301.419-.536.697-.704.283-.169.609-.253.978-.253.1 0 .207.009.321.027.119.018.208.039.267.062Zm.54 3.828v-.157c0-.534.077-1.028.232-1.484.155-.46.379-.859.67-1.196a3.038 3.038 0 0 1 1.08-.793 3.52 3.52 0 0 1 1.45-.287c.542 0 1.025.096 1.449.287.428.187.79.451 1.087.793.296.337.522.736.676 1.196.155.456.233.95.233 1.484v.157c0 .533-.078 1.027-.233 1.483-.154.456-.38.855-.676 1.197a3.15 3.15 0 0 1-1.08.792c-.424.187-.905.28-1.443.28a3.61 3.61 0 0 1-1.456-.28 3.132 3.132 0 0 1-1.08-.793 3.555 3.555 0 0 1-.677-1.196 4.579 4.579 0 0 1-.232-1.483Zm1.647-.157v.157c0 .333.035.647.103.943.068.296.175.556.321.78.146.223.333.398.561.526.228.127.499.191.813.191.306 0 .57-.064.793-.191a1.59 1.59 0 0 0 .561-.527c.146-.223.253-.483.321-.779a3.93 3.93 0 0 0 .109-.943v-.157c0-.329-.036-.638-.109-.93a2.39 2.39 0 0 0-.328-.786 1.57 1.57 0 0 0-.561-.534 1.542 1.542 0 0 0-.799-.198c-.31 0-.579.066-.807.198a1.592 1.592 0 0 0-.554.534c-.146.228-.253.49-.321.786a4.084 4.084 0 0 0-.103.93Zm6.693-3.623h1.654v8.039c0 .505-.087.931-.26 1.278-.173.35-.428.615-.765.793-.338.182-.75.273-1.238.273-.145 0-.296-.011-.451-.034a3.302 3.302 0 0 1-.451-.082l.007-1.285c.096.018.198.032.307.041.105.014.206.02.301.02.196 0 .36-.034.492-.102a.662.662 0 0 0 .301-.321c.069-.146.103-.34.103-.581v-8.04Zm-.144-1.942c0-.25.085-.458.253-.622.169-.169.399-.253.691-.253.296 0 .526.084.69.253a.83.83 0 0 1 .253.622.822.822 0 0 1-.253.615c-.164.164-.394.246-.69.246-.292 0-.522-.082-.691-.246a.825.825 0 0 1-.253-.615Zm6.836 9.475a3.941 3.941 0 0 1-1.483-.267 3.27 3.27 0 0 1-1.121-.759 3.352 3.352 0 0 1-.704-1.141 4 4 0 0 1-.247-1.415v-.274c0-.578.085-1.103.253-1.572.169-.47.404-.87.705-1.203.3-.337.656-.595 1.066-.773.41-.177.854-.266 1.333-.266.529 0 .991.089 1.388.266.396.178.724.429.984.752.264.32.46.7.588 1.142.132.442.198.93.198 1.463v.704h-5.715V34.61h4.088v-.13a2.297 2.297 0 0 0-.178-.834 1.409 1.409 0 0 0-.485-.628c-.219-.16-.51-.24-.875-.24-.273 0-.517.06-.731.178-.21.114-.385.28-.527.5-.141.218-.25.482-.328.792-.073.305-.109.65-.109 1.032v.274c0 .323.043.624.13.902.091.273.223.513.396.718.173.205.383.367.629.485.246.114.526.171.841.171.396 0 .75-.08 1.059-.24.31-.159.579-.384.807-.676l.868.84a3.376 3.376 0 0 1-.622.67c-.255.21-.567.381-.936.514a3.732 3.732 0 0 1-1.272.198Zm7.267-1.313c.269 0 .51-.052.724-.157.219-.11.395-.26.527-.451.136-.192.212-.413.225-.663h1.552c-.009.478-.15.914-.424 1.305a2.931 2.931 0 0 1-1.087.937c-.451.228-.95.342-1.497.342-.565 0-1.057-.096-1.476-.287a2.914 2.914 0 0 1-1.046-.807 3.546 3.546 0 0 1-.629-1.183 4.871 4.871 0 0 1-.205-1.435v-.24c0-.51.068-.988.205-1.435.141-.451.351-.848.629-1.19a2.848 2.848 0 0 1 1.046-.8c.419-.195.909-.293 1.469-.293.593 0 1.112.118 1.559.355.447.233.798.558 1.053.978.26.415.394.898.403 1.449h-1.552a1.645 1.645 0 0 0-.205-.738 1.35 1.35 0 0 0-.506-.534 1.44 1.44 0 0 0-.772-.198c-.333 0-.608.069-.827.205-.219.133-.39.315-.513.547a2.677 2.677 0 0 0-.267.773c-.05.282-.075.576-.075.881v.24c0 .305.025.601.075.889.051.287.137.544.26.772.128.223.301.403.52.54.219.132.497.198.834.198Zm7.683-6.22v1.203h-4.17v-1.204h4.17Zm-2.966-1.812h1.647v7.164c0 .228.032.403.096.526a.512.512 0 0 0 .28.24c.118.04.257.061.417.061.114 0 .223-.007.328-.02.105-.014.189-.028.253-.041l.007 1.258a4.196 4.196 0 0 1-.479.109 3.501 3.501 0 0 1-.615.048c-.378 0-.713-.066-1.005-.199a1.481 1.481 0 0 1-.683-.663c-.164-.305-.246-.71-.246-1.216v-7.267Zm-85.183 29.567 1.709-5.756h1.053l-.287 1.723L231.046 61h-.943l.191-1.64Zm-1.005-5.756 1.333 5.784.109 1.613h-1.052l-2.003-7.397h1.613Zm5.366 5.715 1.292-5.715h1.607L235.558 61h-1.053l.15-1.682Zm-1.422-5.715 1.689 5.688.212 1.709h-.944l-1.743-5.68-.287-1.717h1.073Zm7.205 0V61h-1.654v-7.397h1.654Zm-1.763-1.94c0-.252.082-.459.246-.623.169-.169.401-.253.697-.253.292 0 .522.084.691.253a.834.834 0 0 1 .253.622.825.825 0 0 1-.253.615c-.169.164-.399.246-.691.246-.296 0-.528-.082-.697-.246a.835.835 0 0 1-.246-.615Zm6.959 1.94v1.204h-4.17v-1.204h4.17Zm-2.967-1.811h1.647v7.164c0 .228.032.403.096.526a.515.515 0 0 0 .28.24c.119.04.258.061.417.061.114 0 .224-.007.329-.02.104-.014.189-.028.252-.041l.007 1.258a4.175 4.175 0 0 1-.478.109 3.517 3.517 0 0 1-.615.048c-.379 0-.714-.066-1.005-.199a1.478 1.478 0 0 1-.684-.663c-.164-.305-.246-.71-.246-1.216v-7.267Zm5.865-1.292V61h-1.64V50.5h1.64Zm-.287 6.528-.533-.006c.004-.51.075-.983.212-1.416.141-.433.337-.809.588-1.128a2.61 2.61 0 0 1 2.098-1.011c.365 0 .693.05.985.15.296.1.551.262.765.486.215.218.376.505.486.86.114.352.171.78.171 1.286V61h-1.655v-4.765c0-.355-.052-.638-.157-.847a.91.91 0 0 0-.444-.451 1.625 1.625 0 0 0-.718-.144c-.296 0-.558.06-.786.178a1.65 1.65 0 0 0-.561.485c-.15.205-.264.442-.342.711a3.318 3.318 0 0 0-.109.861Zm11.806-5.981V61h-1.716v-9.953h1.716Zm4.06 4.354v1.36h-4.498v-1.36h4.498Zm.568-4.354v1.367h-5.066v-1.367h5.066Zm5.147 6.241h-2.591v-1.36h2.591c.451 0 .816-.073 1.094-.219a1.36 1.36 0 0 0 .608-.602c.132-.26.199-.556.199-.888 0-.315-.067-.609-.199-.882a1.506 1.506 0 0 0-.608-.67c-.278-.169-.643-.253-1.094-.253h-2.064V61h-1.716v-9.953h3.78c.77 0 1.424.137 1.962.41.542.269.955.643 1.237 1.121.283.474.424 1.016.424 1.627 0 .643-.141 1.194-.424 1.654-.282.46-.695.814-1.237 1.06-.538.246-1.192.37-1.962.37Zm10.131-2.18V61h-1.647v-7.397h1.551l.096 1.504Zm-.267 1.92-.56-.006c0-.51.064-.983.191-1.416.128-.433.315-.809.561-1.128a2.46 2.46 0 0 1 .916-.745c.369-.177.795-.266 1.278-.266.337 0 .645.05.923.15.283.096.526.249.731.458.21.21.37.479.479.807.114.328.171.724.171 1.19V61h-1.648v-4.785c0-.36-.054-.643-.164-.848a.904.904 0 0 0-.458-.437 1.656 1.656 0 0 0-.704-.137c-.31 0-.574.06-.793.178-.214.118-.389.28-.526.485a2.172 2.172 0 0 0-.301.711 3.712 3.712 0 0 0-.096.861Zm4.587-.437-.772.17c0-.446.061-.867.184-1.264.128-.401.313-.752.554-1.053.246-.305.549-.544.909-.717.36-.174.773-.26 1.238-.26.378 0 .715.052 1.011.157.301.1.556.26.766.478.21.22.369.504.479.855.109.346.164.766.164 1.258V61h-1.655v-4.792c0-.374-.054-.663-.164-.868a.851.851 0 0 0-.451-.424 1.82 1.82 0 0 0-.704-.123c-.255 0-.481.048-.677.144a1.344 1.344 0 0 0-.485.39 1.732 1.732 0 0 0-.301.567 2.425 2.425 0 0 0-.096.697Zm5.913.793v-.157c0-.534.078-1.028.233-1.484.155-.46.378-.859.67-1.196a3.02 3.02 0 0 1 1.08-.793 3.513 3.513 0 0 1 1.449-.287c.542 0 1.025.096 1.449.287.429.187.791.451 1.087.793.296.337.522.736.677 1.196.155.456.232.95.232 1.484v.157c0 .533-.077 1.027-.232 1.483a3.555 3.555 0 0 1-.677 1.197 3.132 3.132 0 0 1-1.08.792c-.424.187-.904.28-1.442.28a3.603 3.603 0 0 1-1.456-.28 3.132 3.132 0 0 1-1.08-.793 3.538 3.538 0 0 1-.677-1.196 4.579 4.579 0 0 1-.233-1.483Zm1.648-.157v.157c0 .333.034.647.102.943.069.296.176.556.322.78.146.223.332.398.56.526.228.127.499.191.814.191.305 0 .569-.064.793-.191.228-.128.414-.303.56-.527.146-.223.253-.483.322-.779.072-.296.109-.61.109-.943v-.157c0-.329-.037-.638-.109-.93a2.39 2.39 0 0 0-.329-.786 1.56 1.56 0 0 0-1.36-.732c-.31 0-.579.066-.807.198a1.59 1.59 0 0 0-.553.534c-.146.228-.253.49-.322.786a4.084 4.084 0 0 0-.102.93Zm11.122 2.242V50.5h1.654V61h-1.497l-.157-1.531Zm-4.813-2.085v-.144c0-.56.067-1.07.199-1.531.132-.465.323-.864.574-1.196.251-.337.556-.595.916-.773.36-.182.766-.273 1.217-.273.446 0 .838.086 1.176.26.337.173.624.421.861.745.237.319.426.701.567 1.148.142.442.242.934.301 1.477v.458a7.327 7.327 0 0 1-.301 1.449c-.141.437-.33.816-.567 1.135a2.459 2.459 0 0 1-.868.738c-.338.173-.732.26-1.183.26-.447 0-.85-.094-1.21-.28a2.68 2.68 0 0 1-.909-.787 3.69 3.69 0 0 1-.574-1.19 5.412 5.412 0 0 1-.199-1.496Zm1.648-.144v.144c0 .337.03.651.089.943.064.292.162.55.294.773.132.218.303.392.512.52.215.122.47.184.766.184.374 0 .681-.082.923-.246.241-.164.431-.386.567-.663.142-.283.237-.598.287-.944v-1.237a2.988 2.988 0 0 0-.171-.752 2.016 2.016 0 0 0-.334-.609 1.416 1.416 0 0 0-.527-.41c-.205-.1-.449-.15-.731-.15-.301 0-.556.064-.766.191-.21.128-.383.303-.519.527a2.548 2.548 0 0 0-.294.779 4.495 4.495 0 0 0-.096.95Zm9.803 3.897a3.946 3.946 0 0 1-1.484-.267 3.28 3.28 0 0 1-1.121-.759 3.367 3.367 0 0 1-.704-1.141 3.999 3.999 0 0 1-.246-1.415v-.274c0-.578.084-1.103.253-1.572.169-.47.403-.87.704-1.203a3.026 3.026 0 0 1 1.066-.773 3.321 3.321 0 0 1 1.333-.266c.529 0 .992.089 1.388.266.397.178.725.429.984.752.265.32.461.7.588 1.142.133.442.199.93.199 1.463v.704h-5.715V56.61h4.088v-.13a2.318 2.318 0 0 0-.178-.834 1.423 1.423 0 0 0-.485-.628c-.219-.16-.511-.24-.875-.24-.274 0-.518.06-.732.178-.21.114-.385.28-.526.5a2.596 2.596 0 0 0-.328.792 4.45 4.45 0 0 0-.11 1.032v.274c0 .323.044.624.13.902.091.273.223.513.397.718.173.205.382.367.629.485.246.114.526.171.84.171.397 0 .75-.08 1.06-.24.31-.159.579-.384.807-.676l.868.84c-.16.233-.367.457-.622.67a3.13 3.13 0 0 1-.937.514 3.722 3.722 0 0 1-1.271.198Zm6.008-10.637V61h-1.654V50.5h1.654Z" fill="#6D0F3F"/>
  <path d="m163.22 425 30.73-44h156.1l30.73 44-30.73 44h-156.1l-30.73-44Z" fill="#F8F8F8" stroke="#6D0F3F" stroke-width="2"/>
  <path d="M243.453 409.047V419h-1.716l-4.464-7.13V419h-1.715v-9.953h1.715l4.478 7.143v-7.143h1.702Zm5.141 10.09a3.942 3.942 0 0 1-1.484-.267 3.27 3.27 0 0 1-1.121-.759 3.365 3.365 0 0 1-.704-1.141 4 4 0 0 1-.246-1.415v-.274c0-.579.084-1.103.253-1.572.169-.469.403-.87.704-1.203a3.035 3.035 0 0 1 1.066-.773 3.334 3.334 0 0 1 1.334-.266c.528 0 .991.089 1.387.266.397.178.725.429.985.752.264.319.46.7.587 1.142.133.442.199.93.199 1.463v.704h-5.715v-1.183h4.088v-.13a2.321 2.321 0 0 0-.178-.834 1.422 1.422 0 0 0-.485-.628c-.219-.16-.511-.24-.875-.24-.274 0-.518.06-.732.178-.209.114-.385.28-.526.499a2.624 2.624 0 0 0-.328.793c-.073.305-.11.649-.11 1.032v.274c0 .323.044.624.13.902.091.273.224.513.397.718.173.205.383.367.629.485.246.114.526.171.84.171.397 0 .75-.08 1.06-.239.31-.16.579-.385.807-.677l.868.841c-.16.232-.367.456-.622.67-.255.209-.568.38-.937.512-.364.133-.788.199-1.271.199Zm6.255-1.778 1.709-5.755h1.052l-.287 1.722-1.722 5.674h-.944l.192-1.641Zm-1.005-5.755 1.333 5.783.109 1.613h-1.053l-2.003-7.396h1.614Zm5.366 5.714 1.292-5.714h1.606L260.112 419h-1.052l.15-1.682Zm-1.422-5.714 1.689 5.687.211 1.709h-.943l-1.743-5.681-.287-1.715h1.073Zm10.582 1.421v8.819h-1.647v-10.24h1.517l.13 1.421Zm4.819 2.208v.144c0 .538-.063 1.037-.191 1.497a3.648 3.648 0 0 1-.554 1.196c-.241.338-.54.6-.895.786a2.608 2.608 0 0 1-1.231.281c-.46 0-.863-.085-1.21-.253a2.48 2.48 0 0 1-.868-.732 3.964 3.964 0 0 1-.574-1.107 7.11 7.11 0 0 1-.301-1.408v-.554c.059-.542.16-1.034.301-1.477a4 4 0 0 1 .574-1.141c.237-.319.527-.565.868-.738.342-.174.741-.26 1.197-.26.465 0 .877.091 1.237.273.36.178.663.433.909.766.246.328.431.724.554 1.189.123.461.184.973.184 1.538Zm-1.647.144v-.144c0-.341-.032-.658-.096-.95a2.5 2.5 0 0 0-.3-.779 1.482 1.482 0 0 0-.527-.52 1.435 1.435 0 0 0-.759-.191c-.291 0-.542.05-.752.15a1.45 1.45 0 0 0-.526.404 1.901 1.901 0 0 0-.328.608 3.616 3.616 0 0 0-.164.745v1.326c.055.328.148.629.28.903.132.273.319.492.561.656.246.159.56.239.943.239.296 0 .549-.064.759-.191.209-.128.38-.303.513-.527.136-.227.236-.489.3-.786.064-.296.096-.61.096-.943Zm4.703-2.365V419h-1.647v-7.396h1.572l.075 1.408Zm2.263-1.456-.014 1.531a4.345 4.345 0 0 0-.67-.055c-.282 0-.531.041-.745.123a1.419 1.419 0 0 0-.54.342 1.507 1.507 0 0 0-.328.533c-.078.21-.123.445-.137.704l-.376.028c0-.465.046-.896.137-1.292a3.53 3.53 0 0 1 .41-1.046c.187-.301.419-.536.697-.704a1.87 1.87 0 0 1 .978-.253c.1 0 .207.009.321.027.119.018.208.039.267.062Zm.54 3.828v-.157c0-.534.077-1.028.232-1.484.155-.46.379-.859.67-1.196a3.02 3.02 0 0 1 1.08-.793 3.51 3.51 0 0 1 1.449-.287c.543 0 1.026.095 1.45.287.428.187.79.451 1.087.793.296.337.521.736.676 1.196.155.456.233.95.233 1.484v.157c0 .533-.078 1.027-.233 1.483a3.54 3.54 0 0 1-.676 1.196 3.136 3.136 0 0 1-1.08.793 3.542 3.542 0 0 1-1.443.281 3.605 3.605 0 0 1-1.456-.281 3.117 3.117 0 0 1-1.08-.793 3.543 3.543 0 0 1-.677-1.196 4.579 4.579 0 0 1-.232-1.483Zm1.647-.157v.157c0 .332.034.647.103.943.068.296.175.556.321.779.146.224.333.399.561.527.228.127.499.191.813.191.306 0 .57-.064.793-.191a1.59 1.59 0 0 0 .561-.527c.146-.223.253-.483.321-.779.073-.296.109-.611.109-.943v-.157c0-.329-.036-.638-.109-.93a2.391 2.391 0 0 0-.328-.786 1.563 1.563 0 0 0-.561-.533 1.534 1.534 0 0 0-.8-.199c-.309 0-.578.066-.806.199a1.585 1.585 0 0 0-.554.533 2.47 2.47 0 0 0-.321.786 4.028 4.028 0 0 0-.103.93Zm6.693-3.623h1.654v8.039c0 .505-.087.932-.26 1.278a1.744 1.744 0 0 1-.765.793c-.338.182-.75.273-1.238.273-.146 0-.296-.011-.451-.034a3.199 3.199 0 0 1-.451-.082l.007-1.285c.095.018.198.032.307.041.105.014.205.02.301.02.196 0 .36-.034.492-.102a.663.663 0 0 0 .301-.321c.069-.146.103-.34.103-.581v-8.039Zm-.144-1.942a.83.83 0 0 1 .253-.622c.169-.169.399-.253.691-.253.296 0 .526.084.69.253a.83.83 0 0 1 .253.622.821.821 0 0 1-.253.615c-.164.164-.394.246-.69.246-.292 0-.522-.082-.691-.246a.821.821 0 0 1-.253-.615Zm6.836 9.475a3.937 3.937 0 0 1-1.483-.267 3.252 3.252 0 0 1-1.121-.759 3.367 3.367 0 0 1-.705-1.141 4 4 0 0 1-.246-1.415v-.274c0-.579.085-1.103.253-1.572.169-.469.404-.87.704-1.203a3.039 3.039 0 0 1 1.067-.773c.41-.177.854-.266 1.333-.266.528 0 .991.089 1.388.266.396.178.724.429.984.752.264.319.46.7.588 1.142a5.1 5.1 0 0 1 .198 1.463v.704h-5.715v-1.183h4.088v-.13a2.3 2.3 0 0 0-.178-.834 1.408 1.408 0 0 0-.485-.628c-.219-.16-.51-.24-.875-.24-.273 0-.517.06-.731.178-.21.114-.386.28-.527.499a2.65 2.65 0 0 0-.328.793 4.447 4.447 0 0 0-.109 1.032v.274c0 .323.043.624.13.902.091.273.223.513.396.718.173.205.383.367.629.485.246.114.526.171.841.171.396 0 .749-.08 1.059-.239.31-.16.579-.385.807-.677l.868.841a3.382 3.382 0 0 1-.622.67 3.12 3.12 0 0 1-.936.512c-.365.133-.789.199-1.272.199Zm7.267-1.313c.269 0 .51-.052.724-.157.219-.109.394-.26.527-.451.136-.192.212-.413.225-.663h1.552c-.009.478-.15.913-.424 1.305a2.945 2.945 0 0 1-1.087.937 3.27 3.27 0 0 1-1.497.342c-.565 0-1.057-.096-1.476-.287a2.913 2.913 0 0 1-1.046-.807 3.546 3.546 0 0 1-.629-1.183 4.866 4.866 0 0 1-.205-1.435v-.239c0-.511.068-.989.205-1.436.141-.451.351-.848.629-1.189a2.841 2.841 0 0 1 1.046-.8c.419-.196.909-.294 1.469-.294.593 0 1.112.118 1.559.355.447.233.797.559 1.053.978.259.415.394.898.403 1.449h-1.552a1.642 1.642 0 0 0-.205-.738 1.344 1.344 0 0 0-.506-.533 1.433 1.433 0 0 0-.772-.199c-.333 0-.609.069-.827.205-.219.133-.39.315-.513.547a2.682 2.682 0 0 0-.267.773c-.05.282-.075.576-.075.882v.239c0 .305.025.601.075.888.051.288.137.545.26.773.128.223.301.403.52.54.218.132.496.198.834.198Zm7.683-6.22v1.203h-4.17v-1.203h4.17Zm-2.967-1.812h1.648v7.164c0 .228.032.403.096.526a.508.508 0 0 0 .28.24c.118.041.257.061.417.061.114 0 .223-.007.328-.02.105-.014.189-.028.253-.041l.007 1.257a4.004 4.004 0 0 1-.479.11 3.498 3.498 0 0 1-.615.048 2.4 2.4 0 0 1-1.005-.199 1.47 1.47 0 0 1-.683-.663c-.164-.305-.247-.711-.247-1.216v-7.267Zm-82.537 29.567 1.709-5.755h1.053l-.287 1.722-1.723 5.674h-.943l.191-1.641Zm-1.005-5.755 1.333 5.783.11 1.613h-1.053l-2.003-7.396h1.613Zm5.367 5.714 1.292-5.714h1.606L228.79 441h-1.053l.151-1.682Zm-1.422-5.714 1.688 5.687.212 1.709h-.943l-1.743-5.681-.287-1.715h1.073Zm7.205 0V441h-1.654v-7.396h1.654Zm-1.764-1.942c0-.251.082-.458.246-.622.169-.169.401-.253.698-.253.291 0 .521.084.69.253a.83.83 0 0 1 .253.622.821.821 0 0 1-.253.615c-.169.164-.399.246-.69.246-.297 0-.529-.082-.698-.246a.834.834 0 0 1-.246-.615Zm6.959 1.942v1.203h-4.17v-1.203h4.17Zm-2.967-1.812h1.648v7.164c0 .228.032.403.096.526a.508.508 0 0 0 .28.24c.118.041.257.061.417.061.114 0 .223-.007.328-.02.105-.014.189-.028.253-.041l.007 1.257a4.004 4.004 0 0 1-.479.11 3.506 3.506 0 0 1-.615.048 2.4 2.4 0 0 1-1.005-.199 1.47 1.47 0 0 1-.683-.663c-.165-.305-.247-.711-.247-1.216v-7.267Zm5.866-1.292V441h-1.641v-10.5h1.641Zm-.287 6.528-.534-.007c.005-.51.076-.982.212-1.415.142-.432.337-.808.588-1.127a2.62 2.62 0 0 1 2.099-1.012c.364 0 .692.05.984.15.296.1.552.262.766.486.214.218.376.505.485.861.114.351.171.779.171 1.285V441h-1.654v-4.765c0-.355-.053-.638-.157-.847a.913.913 0 0 0-.445-.451 1.62 1.62 0 0 0-.718-.144c-.296 0-.558.059-.786.178-.223.118-.41.28-.56.485a2.214 2.214 0 0 0-.342.711 3.276 3.276 0 0 0-.109.861Zm11.921-5.981V441h-1.715v-9.953h1.715Zm10.029 0V441h-1.716l-4.464-7.13V441h-1.716v-9.953h1.716l4.478 7.143v-7.143h1.702Zm5.933 0V441h-1.702v-9.953h1.702Zm3.124 0v1.367h-7.923v-1.367h7.923Zm7.561 7.239c0 .62-.144 1.142-.431 1.566a2.695 2.695 0 0 1-1.176.963c-.492.215-1.048.322-1.668.322-.619 0-1.178-.107-1.674-.322a2.695 2.695 0 0 1-1.176-.963c-.287-.424-.431-.946-.431-1.566 0-.41.08-.781.239-1.114.16-.337.386-.627.677-.868a3.184 3.184 0 0 1 1.039-.568 4.18 4.18 0 0 1 1.313-.198c.629 0 1.192.116 1.688.349.497.232.887.553 1.169.964.287.41.431.888.431 1.435Zm-1.654-.082c0-.333-.069-.624-.205-.875a1.442 1.442 0 0 0-.575-.581 1.727 1.727 0 0 0-.854-.205c-.328 0-.613.068-.855.205-.241.137-.43.33-.567.581a1.851 1.851 0 0 0-.198.875c0 .337.066.629.198.875.132.242.321.426.567.554.246.127.536.191.868.191.333 0 .62-.064.862-.191.241-.128.428-.312.56-.554.133-.246.199-.538.199-.875Zm1.428-4.539c0 .497-.132.939-.396 1.326-.26.388-.62.693-1.08.916-.461.219-.985.328-1.573.328-.592 0-1.121-.109-1.585-.328a2.707 2.707 0 0 1-1.087-.916 2.322 2.322 0 0 1-.39-1.326c0-.592.13-1.091.39-1.497.264-.41.626-.722 1.087-.937.46-.214.986-.321 1.579-.321.592 0 1.118.107 1.579.321a2.5 2.5 0 0 1 1.08.937c.264.406.396.905.396 1.497Zm-1.647.055c0-.296-.059-.556-.178-.78a1.29 1.29 0 0 0-.485-.533 1.411 1.411 0 0 0-.745-.191c-.287 0-.536.061-.745.184-.21.123-.372.297-.486.52a1.74 1.74 0 0 0-.171.8c0 .305.057.572.171.8.114.223.276.398.486.526.214.128.464.191.751.191.288 0 .536-.063.746-.191.209-.128.371-.303.485-.526.114-.228.171-.495.171-.8Zm8.552 1.387V441h-1.648v-7.396h1.552l.096 1.503Zm-.267 1.921-.561-.007c0-.51.064-.982.192-1.415.127-.432.314-.808.56-1.127.247-.324.552-.572.916-.746a2.93 2.93 0 0 1 1.279-.266c.337 0 .645.05.923.15.282.096.526.249.731.458.21.21.369.479.479.807.113.328.17.724.17 1.189V441H289.5v-4.785c0-.36-.055-.643-.164-.848a.909.909 0 0 0-.458-.437 1.662 1.662 0 0 0-.704-.137c-.31 0-.574.059-.793.178-.214.118-.39.28-.527.485a2.191 2.191 0 0 0-.3.711 3.712 3.712 0 0 0-.096.861Zm4.587-.437-.773.171c0-.447.062-.868.185-1.265.128-.401.312-.752.554-1.053.246-.305.549-.544.909-.717.36-.174.772-.26 1.237-.26.378 0 .716.052 1.012.157.301.1.556.26.766.479.209.218.369.503.478.854.109.346.164.766.164 1.258V441h-1.654v-4.792c0-.374-.055-.663-.164-.868a.85.85 0 0 0-.451-.424 1.82 1.82 0 0 0-.704-.123c-.256 0-.481.048-.677.144a1.35 1.35 0 0 0-.486.389 1.725 1.725 0 0 0-.3.568 2.421 2.421 0 0 0-.096.697Zm5.913.793v-.157c0-.534.077-1.028.232-1.484.155-.46.379-.859.67-1.196a3.037 3.037 0 0 1 1.08-.793 3.511 3.511 0 0 1 1.45-.287c.542 0 1.025.095 1.449.287a3.01 3.01 0 0 1 1.087.793c.296.337.522.736.677 1.196.154.456.232.95.232 1.484v.157c0 .533-.078 1.027-.232 1.483a3.543 3.543 0 0 1-.677 1.196 3.117 3.117 0 0 1-1.08.793 3.542 3.542 0 0 1-1.443.281 3.608 3.608 0 0 1-1.456-.281 3.117 3.117 0 0 1-1.08-.793 3.543 3.543 0 0 1-.677-1.196 4.579 4.579 0 0 1-.232-1.483Zm1.647-.157v.157c0 .332.035.647.103.943.068.296.175.556.321.779.146.224.333.399.561.527.228.127.499.191.813.191.306 0 .57-.064.793-.191a1.59 1.59 0 0 0 .561-.527c.146-.223.253-.483.321-.779a3.93 3.93 0 0 0 .11-.943v-.157c0-.329-.037-.638-.11-.93a2.391 2.391 0 0 0-.328-.786 1.563 1.563 0 0 0-.561-.533 1.53 1.53 0 0 0-.799-.199c-.31 0-.579.066-.807.199a1.585 1.585 0 0 0-.554.533 2.47 2.47 0 0 0-.321.786 4.084 4.084 0 0 0-.103.93Zm11.123 2.242V430.5h1.654V441h-1.497l-.157-1.531Zm-4.813-2.085v-.144c0-.56.066-1.071.198-1.531.132-.465.324-.864.575-1.196.25-.338.555-.595.916-.773.36-.182.765-.273 1.216-.273.447 0 .839.086 1.176.26.337.173.624.421.861.745.237.319.427.702.568 1.148.141.442.241.934.301 1.477v.458a7.488 7.488 0 0 1-.301 1.449 3.893 3.893 0 0 1-.568 1.135 2.447 2.447 0 0 1-.868.738c-.337.173-.731.26-1.182.26-.447 0-.85-.094-1.21-.281a2.646 2.646 0 0 1-.909-.786 3.685 3.685 0 0 1-.575-1.189 5.409 5.409 0 0 1-.198-1.497Zm1.647-.144v.144c0 .337.03.651.089.943.064.292.162.549.294.773.132.218.303.392.513.519.214.123.469.185.766.185.373 0 .681-.082.922-.246a1.68 1.68 0 0 0 .568-.663c.141-.283.237-.597.287-.944v-1.237a2.983 2.983 0 0 0-.171-.752 2.006 2.006 0 0 0-.335-.608 1.415 1.415 0 0 0-.526-.411c-.205-.1-.449-.15-.732-.15-.3 0-.556.064-.765.191-.21.128-.383.303-.52.527-.132.223-.23.483-.294.779a4.492 4.492 0 0 0-.096.95Zm9.803 3.897a3.937 3.937 0 0 1-1.483-.267 3.261 3.261 0 0 1-1.121-.759 3.349 3.349 0 0 1-.704-1.141 4 4 0 0 1-.246-1.415v-.274c0-.579.084-1.103.252-1.572a3.58 3.58 0 0 1 .705-1.203c.3-.337.656-.595 1.066-.773.41-.177.854-.266 1.333-.266.529 0 .991.089 1.388.266.396.178.724.429.984.752.264.319.46.7.588 1.142a5.1 5.1 0 0 1 .198 1.463v.704h-5.715v-1.183h4.088v-.13a2.32 2.32 0 0 0-.177-.834 1.417 1.417 0 0 0-.486-.628c-.219-.16-.51-.24-.875-.24-.273 0-.517.06-.731.178a1.45 1.45 0 0 0-.527.499 2.65 2.65 0 0 0-.328.793 4.447 4.447 0 0 0-.109 1.032v.274c0 .323.043.624.13.902.091.273.223.513.396.718.173.205.383.367.629.485.246.114.526.171.841.171.396 0 .75-.08 1.06-.239a2.44 2.44 0 0 0 .806-.677l.868.841a3.382 3.382 0 0 1-.622.67 3.12 3.12 0 0 1-.936.512c-.365.133-.789.199-1.272.199Zm6.009-10.637V441h-1.654v-10.5h1.654Z" fill="#6D0F3F"/>
  <path d="m24.237 426.992 1.976-6.945h.957l-.554 2.7L24.49 430h-.95l.697-3.008Zm-2.044-6.945 1.573 6.808.471 3.145h-.943l-2.413-9.953h1.312Zm7.534 6.802 1.538-6.802h1.319L30.178 430h-.944l.493-3.151Zm-2.413-6.802 1.92 6.945.698 3.008h-.95l-2.051-7.253-.56-2.7h.943Zm7.806-.547V430h-1.264v-10.5h1.264Zm-.3 6.521-.527-.02a4.44 4.44 0 0 1 .226-1.401c.145-.433.35-.809.615-1.128.264-.319.579-.565.943-.739.37-.177.777-.266 1.224-.266.364 0 .692.05.984.15.292.096.54.251.745.465.21.214.37.492.479.834.11.337.164.75.164 1.237V430H38.4v-4.86c0-.388-.057-.698-.17-.93a1.052 1.052 0 0 0-.5-.513c-.218-.109-.487-.164-.806-.164-.315 0-.602.066-.861.198a2.077 2.077 0 0 0-.664.547 2.757 2.757 0 0 0-.43.8c-.1.296-.15.611-.15.943Zm11.108 2.714v-3.807c0-.292-.06-.545-.178-.759a1.165 1.165 0 0 0-.52-.506c-.232-.118-.52-.178-.86-.178-.32 0-.6.055-.842.164-.237.11-.423.253-.56.431a.944.944 0 0 0-.199.574h-1.264c0-.264.068-.526.205-.786a2.3 2.3 0 0 1 .588-.704c.26-.214.57-.383.93-.506a3.68 3.68 0 0 1 1.216-.191c.538 0 1.012.091 1.422.273.415.183.739.458.97.827.238.365.356.823.356 1.374v3.446c0 .246.02.508.062.786.046.278.112.517.198.718V430h-1.32a2.373 2.373 0 0 1-.15-.581 4.695 4.695 0 0 1-.054-.684Zm.219-3.219.013.888h-1.278c-.36 0-.681.03-.964.089a2.21 2.21 0 0 0-.711.253 1.205 1.205 0 0 0-.438.431c-.1.168-.15.367-.15.594 0 .233.053.445.157.636.105.192.262.344.472.458.214.11.476.164.786.164.388 0 .73-.082 1.026-.246.296-.164.53-.364.704-.601.177-.237.273-.467.287-.691l.54.609a1.834 1.834 0 0 1-.26.635 3.073 3.073 0 0 1-1.401 1.197 2.73 2.73 0 0 1-1.08.205c-.502 0-.942-.098-1.32-.294a2.256 2.256 0 0 1-.875-.786 2.082 2.082 0 0 1-.307-1.115c0-.396.077-.745.232-1.046.155-.305.378-.558.67-.758.292-.205.643-.36 1.053-.465.41-.105.868-.157 1.374-.157h1.47Zm6.131-2.912v.97H48.28v-.97h4Zm-2.645-1.798h1.264v7.362c0 .251.04.44.117.567a.554.554 0 0 0 .3.253c.123.041.256.062.397.062.105 0 .214-.009.328-.028.119-.022.207-.041.267-.054l.007 1.032c-.1.032-.233.062-.397.089-.16.032-.353.048-.581.048-.31 0-.595-.062-.855-.185a1.374 1.374 0 0 1-.622-.615c-.15-.292-.225-.684-.225-1.176v-7.355Zm12.264 7.758V419.5h1.271V430h-1.162l-.11-1.436Zm-4.977-2.18v-.144c0-.565.068-1.078.205-1.538.141-.465.34-.863.595-1.196.26-.333.567-.588.923-.766.36-.182.76-.273 1.203-.273.465 0 .87.082 1.217.246.35.159.647.394.888.704.246.305.44.674.581 1.107.142.433.24.923.294 1.47v.629a6.447 6.447 0 0 1-.294 1.463 3.443 3.443 0 0 1-.58 1.107c-.242.306-.539.54-.89.704-.35.16-.76.24-1.23.24-.433 0-.83-.094-1.19-.281a2.788 2.788 0 0 1-.922-.786 3.824 3.824 0 0 1-.595-1.189 5.235 5.235 0 0 1-.205-1.497Zm1.271-.144v.144c0 .369.037.715.11 1.039.077.323.196.608.355.854.16.246.363.44.609.581.246.137.54.205.882.205.419 0 .763-.088 1.032-.266.273-.178.492-.413.656-.704a4.09 4.09 0 0 0 .383-.95v-1.648a3.63 3.63 0 0 0-.24-.724 2.225 2.225 0 0 0-.396-.629 1.721 1.721 0 0 0-.595-.445 1.932 1.932 0 0 0-.827-.164 1.75 1.75 0 0 0-.895.219 1.74 1.74 0 0 0-.609.588c-.16.246-.278.533-.355.861-.073.324-.11.67-.11 1.039Zm6.61.144v-.157c0-.534.078-1.028.233-1.484.155-.46.378-.859.67-1.196a2.989 2.989 0 0 1 1.06-.793 3.28 3.28 0 0 1 1.394-.287c.52 0 .987.095 1.402.287.419.187.774.451 1.066.793.296.337.522.736.677 1.196.155.456.232.95.232 1.484v.157c0 .533-.077 1.027-.232 1.483-.155.456-.38.855-.677 1.196a3.086 3.086 0 0 1-1.06.793c-.41.187-.875.281-1.394.281-.52 0-.987-.094-1.401-.281a3.155 3.155 0 0 1-1.067-.793 3.6 3.6 0 0 1-.67-1.196 4.579 4.579 0 0 1-.232-1.483Zm1.265-.157v.157c0 .369.044.718.13 1.046.087.323.217.61.39.861.178.251.399.449.663.595.264.141.572.212.923.212.346 0 .65-.071.91-.212.263-.146.482-.344.655-.595a2.76 2.76 0 0 0 .39-.861c.091-.328.137-.677.137-1.046v-.157c0-.365-.046-.709-.137-1.033a2.663 2.663 0 0 0-.396-.868 1.877 1.877 0 0 0-.657-.601 1.839 1.839 0 0 0-.916-.219c-.346 0-.651.073-.916.219a1.96 1.96 0 0 0-.656.601 2.75 2.75 0 0 0-.39.868c-.086.324-.13.668-.13 1.033Zm12.4 2.461 1.901-6.084h.834l-.164 1.209L79.103 430h-.814l.178-1.312Zm-1.277-6.084 1.62 6.152.116 1.244h-.855l-2.146-7.396h1.264Zm5.83 6.104 1.545-6.104h1.258L83.676 430h-.848l.191-1.292Zm-1.633-6.104 1.86 5.981.211 1.415h-.807l-1.989-6.2-.164-1.196h.889Zm8.804 7.533c-.514 0-.982-.087-1.4-.26a3.18 3.18 0 0 1-1.074-.745 3.31 3.31 0 0 1-.684-1.135 4.159 4.159 0 0 1-.239-1.435v-.288c0-.601.089-1.137.267-1.606a3.59 3.59 0 0 1 .724-1.203 3.097 3.097 0 0 1 1.04-.745 2.979 2.979 0 0 1 1.202-.253c.529 0 .985.091 1.368.273.387.183.704.438.95.766.246.323.428.706.547 1.148.118.438.177.916.177 1.436v.567h-5.523v-1.032h4.259v-.096a3.154 3.154 0 0 0-.205-.957 1.715 1.715 0 0 0-.547-.765c-.25-.201-.593-.301-1.026-.301a1.722 1.722 0 0 0-1.415.718 2.683 2.683 0 0 0-.403.868 4.4 4.4 0 0 0-.144 1.182v.288c0 .35.048.681.144.991.1.305.244.574.43.806.192.233.422.415.691.547.274.132.583.198.93.198.446 0 .825-.091 1.135-.273.31-.182.58-.426.813-.731l.766.608c-.16.242-.363.472-.609.69-.246.219-.549.397-.909.534-.355.136-.777.205-1.265.205Zm12.62-7.533h1.148v7.239c0 .651-.132 1.207-.396 1.668a2.59 2.59 0 0 1-1.108 1.046c-.469.241-1.012.362-1.627.362-.255 0-.556-.041-.902-.123a3.667 3.667 0 0 1-1.012-.403 2.53 2.53 0 0 1-.827-.759l.663-.752c.31.374.633.633.97.779.343.146.68.219 1.012.219.401 0 .748-.075 1.04-.226.291-.15.517-.373.676-.67.164-.291.246-.651.246-1.08v-5.674l.117-1.626Zm-5.093 3.78v-.144c0-.565.066-1.078.198-1.538.137-.465.33-.863.581-1.196a2.61 2.61 0 0 1 2.14-1.039c.465 0 .87.082 1.217.246.35.159.647.394.888.704.246.305.44.674.581 1.107a6.9 6.9 0 0 1 .294 1.47v.629a6.43 6.43 0 0 1-.294 1.463 3.44 3.44 0 0 1-.581 1.107c-.241.306-.538.54-.888.704-.351.16-.762.24-1.231.24-.442 0-.843-.094-1.203-.281a2.722 2.722 0 0 1-.916-.786 3.718 3.718 0 0 1-.588-1.189 5.405 5.405 0 0 1-.198-1.497Zm1.264-.144v.144c0 .369.037.715.11 1.039.077.323.194.608.349.854.159.246.362.44.608.581.246.137.54.205.882.205.419 0 .765-.088 1.039-.266.273-.178.49-.413.649-.704a4.08 4.08 0 0 0 .383-.95v-1.648a3.378 3.378 0 0 0-.232-.724 2.247 2.247 0 0 0-.397-.629 1.718 1.718 0 0 0-.595-.445 1.98 1.98 0 0 0-.834-.164c-.346 0-.644.073-.895.219a1.739 1.739 0 0 0-.609.588 2.818 2.818 0 0 0-.348.861c-.073.324-.11.67-.11 1.039Zm9.967 3.897c-.515 0-.982-.087-1.401-.26a3.17 3.17 0 0 1-1.073-.745 3.307 3.307 0 0 1-.684-1.135 4.17 4.17 0 0 1-.239-1.435v-.288c0-.601.089-1.137.266-1.606.178-.474.42-.875.725-1.203a3.097 3.097 0 0 1 1.039-.745 2.975 2.975 0 0 1 1.203-.253c.529 0 .985.091 1.367.273.388.183.704.438.951.766.246.323.428.706.546 1.148.119.438.178.916.178 1.436v.567h-5.523v-1.032h4.259v-.096a3.165 3.165 0 0 0-.206-.957 1.711 1.711 0 0 0-.546-.765c-.251-.201-.593-.301-1.026-.301a1.723 1.723 0 0 0-1.415.718 2.692 2.692 0 0 0-.403.868 4.387 4.387 0 0 0-.144 1.182v.288c0 .35.048.681.144.991.1.305.244.574.43.806.192.233.422.415.691.547.273.132.583.198.93.198.446 0 .824-.091 1.134-.273.31-.182.581-.426.814-.731l.765.608a3.486 3.486 0 0 1-.608.69 2.904 2.904 0 0 1-.909.534c-.356.136-.777.205-1.265.205Zm7.451-7.533v.97H112.4v-.97h3.999Zm-2.645-1.798h1.265v7.362c0 .251.038.44.116.567a.55.55 0 0 0 .301.253c.123.041.255.062.396.062.105 0 .214-.009.328-.028.119-.022.208-.041.267-.054l.007 1.032a2.924 2.924 0 0 1-.397.089 3 3 0 0 1-.581.048c-.31 0-.595-.062-.854-.185a1.375 1.375 0 0 1-.623-.615c-.15-.292-.225-.684-.225-1.176v-7.355Zm6.877 6.391h-1.272c.005-.437.044-.795.117-1.073.077-.283.202-.54.376-.772.173-.233.403-.497.69-.793.21-.215.401-.415.574-.602.178-.191.322-.396.431-.615a1.81 1.81 0 0 0 .164-.8c0-.314-.057-.586-.171-.813a1.168 1.168 0 0 0-.492-.527c-.214-.123-.481-.184-.8-.184-.264 0-.515.047-.752.143a1.298 1.298 0 0 0-.574.444c-.146.196-.221.454-.226.773h-1.264c.009-.515.136-.957.382-1.326a2.43 2.43 0 0 1 1.012-.848 3.35 3.35 0 0 1 1.422-.294c.579 0 1.071.105 1.477.315.41.209.722.51.936.902.214.387.321.848.321 1.381 0 .41-.084.788-.253 1.135a4.337 4.337 0 0 1-.635.963c-.26.301-.536.588-.827.862-.251.232-.42.494-.506.786-.087.292-.13.606-.13.943Zm-1.326 2.167c0-.205.063-.378.191-.519.128-.142.312-.212.554-.212.246 0 .433.07.56.212a.744.744 0 0 1 .192.519.728.728 0 0 1-.192.506c-.127.141-.314.212-.56.212-.242 0-.426-.071-.554-.212a.727.727 0 0 1-.191-.506Z" fill="#757575"/>
</svg>
