<svg xmlns="http://www.w3.org/2000/svg">
  <defs>
    <!-- autorenew -->
    <symbol id="autorenew" viewBox="0 0 24 24" xmlns="http://www.w3.org/2000/svg">
        <path d="M12 6V9L16 5L12 1V4C7.58 4 4 7.58 4 12C4 13.57 4.46 15.03 5.24 16.26L6.7 14.8C6.25 13.97 6 13.01 6 12C6 8.69 8.69 6 12 6ZM18.76 7.74L17.3 9.2C17.74 10.04 18 10.99 18 12C18 15.31 15.31 18 12 18V15L8 19L12 23V20C16.42 20 20 16.42 20 12C20 10.43 19.54 8.97 18.76 7.74Z"/>
    </symbol>

    <!-- arrow_back -->
    <symbol id="back_arrow" viewBox="0 0 24 24" xmlns="http://www.w3.org/2000/svg">
      <path d="M20 11H7.83L13.42 5.41L12 4L4 12L12 20L13.41 18.59L7.83 13H20V11Z"/>
    </symbol>

    <!-- cached -->
    <symbol id="cached" viewBox="0 0 24 24" xmlns="http://www.w3.org/2000/svg">
        <path d="M19 8L15 12H18C18 15.31 15.31 18 12 18C10.99 18 10.03 17.75 9.2 17.3L7.74 18.76C8.97 19.54 10.43 20 12 20C16.42 20 20 16.42 20 12H23L19 8ZM6 12C6 8.69 8.69 6 12 6C13.01 6 13.97 6.25 14.8 6.7L16.26 5.24C15.03 4.46 13.57 4 12 4C7.58 4 4 7.58 4 12H1L5 16L9 12H6Z"/>
    </symbol>

    <!-- check -->
    <symbol id="check" viewBox="0 0 24 24" xmlns="http://www.w3.org/2000/svg">
        <path d="M8.99991 16.1701L4.82991 12.0001L3.40991 13.4101L8.99991 19.0001L20.9999 7.00009L19.5899 5.59009L8.99991 16.1701Z"/>
    </symbol>

    <!-- check_box -->
    <symbol id="checkbox" viewBox="0 0 24 24" xmlns="http://www.w3.org/2000/svg">
        <path d="M19 3H5C3.9 3 3 3.9 3 5V19C3 20.1 3.9 21 5 21H19C20.1 21 21 20.1 21 19V5C21 3.9 20.1 3 19 3ZM19 19H5V5H19V19ZM17.99 9L16.58 7.58L9.99 14.17L7.41 11.6L5.99 13.01L9.99 17L17.99 9Z"/>
    </symbol>

    <!-- check_box_outline_blank -->
    <symbol id="checkbox_blank" viewBox="0 0 24 24" xmlns="http://www.w3.org/2000/svg">
        <path d="M19 5V19H5V5H19ZM19 3H5C3.9 3 3 3.9 3 5V19C3 20.1 3.9 21 5 21H19C20.1 21 21 20.1 21 19V5C21 3.9 20.1 3 19 3Z"/>
    </symbol>

    <!-- clear -->
    <symbol id="close" viewBox="0 0 24 24" xmlns="http://www.w3.org/2000/svg">
        <path d="M19 6.41L17.59 5L12 10.59L6.41 5L5 6.41L10.59 12L5 17.59L6.41 19L12 13.41L17.59 19L19 17.59L13.41 12L19 6.41Z"/>
    </symbol>

    <!-- close_fullscreen -->
    <symbol id="close_full" viewBox="0 0 24 24" xmlns="http://www.w3.org/2000/svg">
        <path d="M22 3.41L16.71 8.7L20 12H12V4L15.29 7.29L20.59 2L22 3.41ZM3.41 22L8.7 16.71L12 20V12H4L7.29 15.29L2 20.59L3.41 22Z"/>
    </symbol>

    <!-- content_copy -->
    <symbol id="copy" viewBox="0 0 24 24" xmlns="http://www.w3.org/2000/svg">
        <path d="M16 1H4C2.9 1 2 1.9 2 3V17H4V3H16V1ZM19 5H8C6.9 5 6 5.9 6 7V21C6 22.1 6.9 23 8 23H19C20.1 23 21 22.1 21 21V7C21 5.9 20.1 5 19 5ZM19 21H8V7H19V21Z"/>
    </symbol>

    <!-- create -->
    <symbol id="create" viewBox="0 0 24 24" xmlns="http://www.w3.org/2000/svg">
        <path d="M3 17.25V21H6.75L17.81 9.94L14.06 6.19L3 17.25ZM5.92 19H5V18.08L14.06 9.02L14.98 9.94L5.92 19ZM20.71 5.63L18.37 3.29C18.17 3.09 17.92 3 17.66 3C17.4 3 17.15 3.1 16.96 3.29L15.13 5.12L18.88 8.87L20.71 7.04C21.1 6.65 21.1 6.02 20.71 5.63Z"/>
    </symbol>

    <!-- delete -->
    <symbol id="delete" viewBox="0 0 24 24" xmlns="http://www.w3.org/2000/svg">
        <path d="M16 9V19H8V9H16ZM14.5 3H9.5L8.5 4H5V6H19V4H15.5L14.5 3ZM18 7H6V19C6 20.1 6.9 21 8 21H16C17.1 21 18 20.1 18 19V7Z"/>
    </symbol>

    <!-- download -->
    <symbol id="download" viewBox="0 0 24 24" xmlns="http://www.w3.org/2000/svg">
        <path d="M19 9H15V3H9V9H5L12 16L19 9ZM11 11V5H13V11H14.17L12 13.17L9.83 11H11ZM5 18H19V20H5V18Z"/>
    </symbol>

    <!-- download_done -->
    <symbol id="download_done" viewBox="0 0 24 24" xmlns="http://www.w3.org/2000/svg">
        <path d="M5 18H19V20H5V18ZM9.6 15.3L5 10.7L7 8.8L9.6 11.4L17 4L19 6L9.6 15.3Z"/>
    </symbol>

    <!-- error_outline -->
    <symbol id="error_outline" viewBox="0 0 24 24" xmlns="http://www.w3.org/2000/svg">
        <path d="M11 15H13V17H11V15ZM11 7H13V13H11V7ZM11.99 2C6.47 2 2 6.48 2 12C2 17.52 6.47 22 11.99 22C17.52 22 22 17.52 22 12C22 6.48 17.52 2 11.99 2ZM12 20C7.58 20 4 16.42 4 12C4 7.58 7.58 4 12 4C16.42 4 20 7.58 20 12C20 16.42 16.42 20 12 20Z"/>
    </symbol>

    <!-- expand_less -->
    <symbol id="expand_less" viewBox="0 0 24 24" xmlns="http://www.w3.org/2000/svg">
        <path d="M12 8L6 14L7.41 15.41L12 10.83L16.59 15.41L18 14L12 8Z"/>
    </symbol>

    <!-- expand_more -->
    <symbol id="expand_more" viewBox="0 0 24 24" xmlns="http://www.w3.org/2000/svg">
        <path d="M16.59 8.59009L12 13.1701L7.41 8.59009L6 10.0001L12 16.0001L18 10.0001L16.59 8.59009Z"/>
    </symbol>

    <!-- highlight_off -->
    <symbol id="close_circle" viewBox="0 0 24 24" xmlns="http://www.w3.org/2000/svg">
        <path d="M14.59 8L12 10.59L9.41 8L8 9.41L10.59 12L8 14.59L9.41 16L12 13.41L14.59 16L16 14.59L13.41 12L16 9.41L14.59 8ZM12 2C6.47 2 2 6.47 2 12C2 17.53 6.47 22 12 22C17.53 22 22 17.53 22 12C22 6.47 17.53 2 12 2ZM12 20C7.59 20 4 16.41 4 12C4 7.59 7.59 4 12 4C16.41 4 20 7.59 20 12C20 16.41 16.41 20 12 20Z"/>
    </symbol>

    <!-- info -->
    <symbol id="info_outline" viewBox="0 0 24 24" xmlns="http://www.w3.org/2000/svg">
        <path d="M11 7H13V9H11V7ZM11 11H13V17H11V11ZM12 2C6.48 2 2 6.48 2 12C2 17.52 6.48 22 12 22C17.52 22 22 17.52 22 12C22 6.48 17.52 2 12 2ZM12 20C7.59 20 4 16.41 4 12C4 7.59 7.59 4 12 4C16.41 4 20 7.59 20 12C20 16.41 16.41 20 12 20Z"/>
    </symbol>

    <!-- more_vert -->
    <symbol id="more" viewBox="0 0 24 24" xmlns="http://www.w3.org/2000/svg">
        <path d="M12 8C13.1 8 14 7.1 14 6C14 4.9 13.1 4 12 4C10.9 4 10 4.9 10 6C10 7.1 10.9 8 12 8ZM12 10C10.9 10 10 10.9 10 12C10 13.1 10.9 14 12 14C13.1 14 14 13.1 14 12C14 10.9 13.1 10 12 10ZM12 16C10.9 16 10 16.9 10 18C10 19.1 10.9 20 12 20C13.1 20 14 19.1 14 18C14 16.9 13.1 16 12 16Z"/>
    </symbol>

    <!-- open_in_full -->
    <symbol id="open_full" viewBox="0 0 24 24" xmlns="http://www.w3.org/2000/svg">
        <path d="M21 11V3H13L16.29 6.29L6.29 16.29L3 13V21H11L7.71 17.71L17.71 7.71L21 11Z"/>
    </symbol>

    <!-- radio_button_checked -->
    <symbol id="radiobutton_checked" viewBox="0 0 24 24" xmlns="http://www.w3.org/2000/svg">
        <path d="M12 2C6.48 2 2 6.48 2 12C2 17.52 6.48 22 12 22C17.52 22 22 17.52 22 12C22 6.48 17.52 2 12 2ZM12 20C7.58 20 4 16.42 4 12C4 7.58 7.58 4 12 4C16.42 4 20 7.58 20 12C20 16.42 16.42 20 12 20Z"/>
        <path d="M12 17C14.7614 17 17 14.7614 17 12C17 9.23858 14.7614 7 12 7C9.23858 7 7 9.23858 7 12C7 14.7614 9.23858 17 12 17Z"/>
    </symbol>

    <!-- radio_button_unchecked -->
    <symbol id="radiobutton_unchecked" viewBox="0 0 24 24" xmlns="http://www.w3.org/2000/svg">
        <path d="M12 2C6.48 2 2 6.48 2 12C2 17.52 6.48 22 12 22C17.52 22 22 17.52 22 12C22 6.48 17.52 2 12 2ZM12 20C7.58 20 4 16.42 4 12C4 7.58 7.58 4 12 4C16.42 4 20 7.58 20 12C20 16.42 16.42 20 12 20Z"/>
    </symbol>

    <!-- search -->
    <symbol id="search" viewBox="0 0 24 24" xmlns="http://www.w3.org/2000/svg">
        <path d="M15.5 14H14.71L14.43 13.73C15.41 12.59 16 11.11 16 9.5C16 5.91 13.09 3 9.5 3C5.91 3 3 5.91 3 9.5C3 13.09 5.91 16 9.5 16C11.11 16 12.59 15.41 13.73 14.43L14 14.71V15.5L19 20.49L20.49 19L15.5 14ZM9.5 14C7.01 14 5 11.99 5 9.5C5 7.01 7.01 5 9.5 5C11.99 5 14 7.01 14 9.5C14 11.99 11.99 14 9.5 14Z"/>
    </symbol>

    <!-- settings -->
    <symbol id="settings" viewBox="0 0 24 24" xmlns="http://www.w3.org/2000/svg">
        <path d="M19.4301 12.98C19.4701 12.66 19.5001 12.34 19.5001 12C19.5001 11.66 19.4701 11.34 19.4301 11.02L21.5401 9.37C21.7301 9.22 21.7801 8.95 21.6601 8.73L19.6601 5.27C19.5701 5.11 19.4001 5.02 19.2201 5.02C19.1601 5.02 19.1001 5.03 19.0501 5.05L16.5601 6.05C16.0401 5.65 15.4801 5.32 14.8701 5.07L14.4901 2.42C14.4601 2.18 14.2501 2 14.0001 2H10.0001C9.75008 2 9.54008 2.18 9.51008 2.42L9.13008 5.07C8.52008 5.32 7.96008 5.66 7.44008 6.05L4.95008 5.05C4.89008 5.03 4.83008 5.02 4.77008 5.02C4.60008 5.02 4.43008 5.11 4.34008 5.27L2.34008 8.73C2.21008 8.95 2.27008 9.22 2.46008 9.37L4.57008 11.02C4.53008 11.34 4.50008 11.67 4.50008 12C4.50008 12.33 4.53008 12.66 4.57008 12.98L2.46008 14.63C2.27008 14.78 2.22008 15.05 2.34008 15.27L4.34008 18.73C4.43008 18.89 4.60008 18.98 4.78008 18.98C4.84008 18.98 4.90008 18.97 4.95008 18.95L7.44008 17.95C7.96008 18.35 8.52008 18.68 9.13008 18.93L9.51008 21.58C9.54008 21.82 9.75008 22 10.0001 22H14.0001C14.2501 22 14.4601 21.82 14.4901 21.58L14.8701 18.93C15.4801 18.68 16.0401 18.34 16.5601 17.95L19.0501 18.95C19.1101 18.97 19.1701 18.98 19.2301 18.98C19.4001 18.98 19.5701 18.89 19.6601 18.73L21.6601 15.27C21.7801 15.05 21.7301 14.78 21.5401 14.63L19.4301 12.98ZM17.4501 11.27C17.4901 11.58 17.5001 11.79 17.5001 12C17.5001 12.21 17.4801 12.43 17.4501 12.73L17.3101 13.86L18.2001 14.56L19.2801 15.4L18.5801 16.61L17.3101 16.1L16.2701 15.68L15.3701 16.36C14.9401 16.68 14.5301 16.92 14.1201 17.09L13.0601 17.52L12.9001 18.65L12.7001 20H11.3001L11.1101 18.65L10.9501 17.52L9.89008 17.09C9.46008 16.91 9.06008 16.68 8.66008 16.38L7.75008 15.68L6.69008 16.11L5.42008 16.62L4.72008 15.41L5.80008 14.57L6.69008 13.87L6.55008 12.74C6.52008 12.43 6.50008 12.2 6.50008 12C6.50008 11.8 6.52008 11.57 6.55008 11.27L6.69008 10.14L5.80008 9.44L4.72008 8.6L5.42008 7.39L6.69008 7.9L7.73008 8.32L8.63008 7.64C9.06008 7.32 9.47008 7.08 9.88008 6.91L10.9401 6.48L11.1001 5.35L11.3001 4H12.6901L12.8801 5.35L13.0401 6.48L14.1001 6.91C14.5301 7.09 14.9301 7.32 15.3301 7.62L16.2401 8.32L17.3001 7.89L18.5701 7.38L19.2701 8.59L18.2001 9.44L17.3101 10.14L17.4501 11.27ZM12.0001 8C9.79008 8 8.00008 9.79 8.00008 12C8.00008 14.21 9.79008 16 12.0001 16C14.2101 16 16.0001 14.21 16.0001 12C16.0001 9.79 14.2101 8 12.0001 8ZM12.0001 14C10.9001 14 10.0001 13.1 10.0001 12C10.0001 10.9 10.9001 10 12.0001 10C13.1001 10 14.0001 10.9 14.0001 12C14.0001 13.1 13.1001 14 12.0001 14Z"/>
    </symbol>

    <!-- sort -->
    <symbol id="sort" viewBox="0 0 24 24" xmlns="http://www.w3.org/2000/svg">
        <path d="M3 18H9V16H3V18ZM3 6V8H21V6H3ZM3 13H15V11H3V13Z"/>
    </symbol>

    <!-- undo -->
    <symbol id="undo" viewBox="0 0 24 24" xmlns="http://www.w3.org/2000/svg">
        <path d="M12.5 8c-2.65 0-5.05.99-6.9 2.6L2 7v9h9l-3.62-3.62c1.39-1.16 3.16-1.88 5.12-1.88 3.54 0 6.55 2.31 7.6 5.5l2.37-.78C21.08 11.03 17.15 8 12.5 8z"/>
    </symbol>

    <!-- toggle_off -->
    <symbol id="toggle_off" viewBox="0 0 24 24" xmlns="http://www.w3.org/2000/svg">
        <path d="M17 6H7C3.69 6 1 8.69 1 12C1 15.31 3.69 18 7 18H17C20.31 18 23 15.31 23 12C23 8.69 20.31 6 17 6ZM17 16H7C4.79 16 3 14.21 3 12C3 9.79 4.79 8 7 8H17C19.21 8 21 9.79 21 12C21 14.21 19.21 16 17 16ZM7 9C5.34 9 4 10.34 4 12C4 13.66 5.34 15 7 15C8.66 15 10 13.66 10 12C10 10.34 8.66 9 7 9Z"/>
    </symbol>

    <!-- toggle_on -->
    <symbol id="toggle_on" viewBox="0 0 24 24" xmlns="http://www.w3.org/2000/svg">
        <path d="M17 6H7C3.69 6 1 8.69 1 12C1 15.31 3.69 18 7 18H17C20.31 18 23 15.31 23 12C23 8.69 20.31 6 17 6ZM17 16H7C4.79 16 3 14.21 3 12C3 9.79 4.79 8 7 8H17C19.21 8 21 9.79 21 12C21 14.21 19.21 16 17 16ZM17 9C15.34 9 14 10.34 14 12C14 13.66 15.34 15 17 15C18.66 15 20 13.66 20 12C20 10.34 18.66 9 17 9Z"/>
    </symbol>

    <!-- unfold_less -->
    <symbol id="unfold_less" viewBox="0 0 24 24" xmlns="http://www.w3.org/2000/svg">
        <path d="M7.40991 18.59L8.82991 20L11.9999 16.83L15.1699 20L16.5799 18.59L11.9999 14L7.40991 18.59ZM16.5899 5.41L15.1699 4L11.9999 7.17L8.82991 4L7.40991 5.41L11.9999 10L16.5899 5.41Z"/>
    </symbol>

    <!-- unfold_more -->
    <symbol id="unfold_more" viewBox="0 0 24 24" xmlns="http://www.w3.org/2000/svg">
        <path d="M11.9999 5.83L15.1699 9L16.5799 7.59L11.9999 3L7.40991 7.59L8.82991 9L11.9999 5.83ZM11.9999 18.17L8.82991 15L7.41991 16.41L11.9999 21L16.5899 16.41L15.1699 15L11.9999 18.17Z"/>
    </symbol>

    <!-- update -->
    <symbol id="update" viewBox="0 0 24 24" xmlns="http://www.w3.org/2000/svg">
        <path d="M11 8V13L15.25 15.52L16.02 14.24L12.5 12.15V8H11ZM21 10V3L18.36 5.64C16.74 4.01 14.49 3 12 3C7.03 3 3 7.03 3 12C3 16.97 7.03 21 12 21C16.97 21 21 16.97 21 12H19C19 15.86 15.86 19 12 19C8.14 19 5 15.86 5 12C5 8.14 8.14 5 12 5C13.93 5 15.68 5.79 16.95 7.05L14 10H21Z"/>
    </symbol>

    <!-- upload -->
    <symbol id="upload" viewBox="0 0 24 24" xmlns="http://www.w3.org/2000/svg">
        <path d="M9 16H15V10H19L12 3L5 10H9V16ZM12 5.83L14.17 8H13V14H11V8H9.83L12 5.83ZM5 18H19V20H5V18Z"/>
    </symbol>

    <!-- visibility -->
    <symbol id="visibility" viewBox="0 0 24 24" xmlns="http://www.w3.org/2000/svg">
        <path d="M12 6C15.79 6 19.17 8.13 20.82 11.5C19.17 14.87 15.79 17 12 17C8.21 17 4.83 14.87 3.18 11.5C4.83 8.13 8.21 6 12 6ZM12 4C7 4 2.73 7.11 1 11.5C2.73 15.89 7 19 12 19C17 19 21.27 15.89 23 11.5C21.27 7.11 17 4 12 4ZM12 9C13.38 9 14.5 10.12 14.5 11.5C14.5 12.88 13.38 14 12 14C10.62 14 9.5 12.88 9.5 11.5C9.5 10.12 10.62 9 12 9ZM12 7C9.52 7 7.5 9.02 7.5 11.5C7.5 13.98 9.52 16 12 16C14.48 16 16.5 13.98 16.5 11.5C16.5 9.02 14.48 7 12 7Z"/>
    </symbol>

    <!-- visibility_off -->
    <symbol id="visibility_off" viewBox="0 0 24 24" xmlns="http://www.w3.org/2000/svg">
        <path d="M12 5.99995C15.79 5.99995 19.17 8.12995 20.82 11.5C20.23 12.72 19.4 13.77 18.41 14.62L19.82 16.03C21.21 14.8 22.31 13.26 23 11.5C21.27 7.10995 17 3.99995 12 3.99995C10.73 3.99995 9.51 4.19995 8.36 4.56995L10.01 6.21995C10.66 6.08995 11.32 5.99995 12 5.99995ZM10.93 7.13995L13 9.20995C13.57 9.45995 14.03 9.91995 14.28 10.49L16.35 12.56C16.43 12.22 16.49 11.86 16.49 11.49C16.5 9.00995 14.48 6.99995 12 6.99995C11.63 6.99995 11.28 7.04995 10.93 7.13995ZM2.01 3.86995L4.69 6.54995C3.06 7.82995 1.77 9.52995 1 11.5C2.73 15.89 7 19 12 19C13.52 19 14.98 18.71 16.32 18.18L19.74 21.6L21.15 20.19L3.42 2.44995L2.01 3.86995ZM9.51 11.37L12.12 13.98C12.08 13.99 12.04 14 12 14C10.62 14 9.5 12.88 9.5 11.5C9.5 11.45 9.51 11.42 9.51 11.37ZM6.11 7.96995L7.86 9.71995C7.63 10.27 7.5 10.87 7.5 11.5C7.5 13.98 9.52 16 12 16C12.63 16 13.23 15.87 13.77 15.64L14.75 16.62C13.87 16.86 12.95 17 12 17C8.21 17 4.83 14.87 3.18 11.5C3.88 10.07 4.9 8.88995 6.11 7.96995Z"/>
    </symbol>

    <!-- warning_amber -->
    <symbol id="warning" viewBox="0 0 24 24" xmlns="http://www.w3.org/2000/svg">
        <path d="M12 5.99L19.53 19H4.47L12 5.99ZM12 2L1 21H23L12 2ZM13 16H11V18H13V16ZM13 10H11V14H13V10Z"/>
    </symbol>

    <!-- watch_later -->
    <symbol id="watch" viewBox="0 0 24 24" xmlns="http://www.w3.org/2000/svg">
        <path d="M12 2C6.5 2 2 6.5 2 12C2 17.5 6.5 22 12 22C17.5 22 22 17.5 22 12C22 6.5 17.5 2 12 2ZM12 20C7.59 20 4 16.41 4 12C4 7.59 7.59 4 12 4C16.41 4 20 7.59 20 12C20 16.41 16.41 20 12 20ZM12.5 7H11V13L16.2 16.2L17 14.9L12.5 12.2V7Z"/>
    </symbol>

    <!-- water_damage -->
    <symbol id="home" viewBox="0 0 24 24" xmlns="http://www.w3.org/2000/svg">
        <path d="M12 3L2 12H5V20H19V12H22L12 3ZM7 18V10.19L12 5.69L17 10.19V18H7Z"/>
    </symbol>

    <!-- zoom_in -->
    <symbol id="zoom_in" viewBox="0 0 24 24" xmlns="http://www.w3.org/2000/svg">
        <path d="M15.5 14H14.71L14.43 13.73C15.41 12.59 16 11.11 16 9.5C16 5.91 13.09 3 9.5 3C5.91 3 3 5.91 3 9.5C3 13.09 5.91 16 9.5 16C11.11 16 12.59 15.41 13.73 14.43L14 14.71V15.5L19 20.49L20.49 19L15.5 14ZM9.5 14C7.01 14 5 11.99 5 9.5C5 7.01 7.01 5 9.5 5C11.99 5 14 7.01 14 9.5C14 11.99 11.99 14 9.5 14ZM10 7H9V9H7V10H9V12H10V10H12V9H10V7Z"/>
    </symbol>

    <!-- zoom_out -->
    <symbol id="zoom_out" viewBox="0 0 24 24" xmlns="http://www.w3.org/2000/svg">
        <path d="M15.5 14H14.71L14.43 13.73C15.41 12.59 16 11.11 16 9.5C16 5.91 13.09 3 9.5 3C5.91 3 3 5.91 3 9.5C3 13.09 5.91 16 9.5 16C11.11 16 12.59 15.41 13.73 14.43L14 14.71V15.5L19 20.49L20.49 19L15.5 14ZM9.5 14C7.01 14 5 11.99 5 9.5C5 7.01 7.01 5 9.5 5C11.99 5 14 7.01 14 9.5C14 11.99 11.99 14 9.5 14ZM7 9H12V10H7V9Z"/>
    </symbol>

    <!-- hourglass_empty -->
    <symbol id="hourglass" viewBox="0 0 24 24" xmlns="http://www.w3.org/2000/svg">
        <path d="M0 0h24v24H0V0z" fill="none"/>
        <path d="M6 2v6h.01L6 8.01 10 12l-4 4 .01.01H6V22h12v-5.99h-.01L18 16l-4-4 4-3.99-.01-.01H18V2H6zm10 14.5V20H8v-3.5l4-4 4 4zm-4-5l-4-4V4h8v3.5l-4 4z"/>
    </symbol>

    <!-- lightbulb -->
    <symbol id="lightbulb" viewBox="0 0 24 24" xmlns="http://www.w3.org/2000/svg">
      <path d="M9 21c0 .55.45 1 1 1h4c.55 0 1-.45 1-1v-1H9v1zm3-19C8.14 2 5 5.14 5 9c0 2.38 1.19 4.47 3 5.74V17c0 .55.45 1 1 1h6c.55 0 1-.45 1-1v-2.26c1.81-1.27 3-3.36 3-5.74 0-3.86-3.14-7-7-7zm2.85 11.1l-.85.6V16h-4v-2.3l-.85-.6C7.8 12.16 7 10.63 7 9c0-2.76 2.24-5 5-5s5 2.24 5 5c0 1.63-.8 3.16-2.15 4.1z"/>
    </symbol>

    <!-- feedback -->
    <symbol id="feedback" viewBox="0 0 24 24" xmlns="http://www.w3.org/2000/svg">
      <path d="M20 2H4C2.9 2 2.01 2.9 2.01 4L2 22L6 18H20C21.1 18 22 17.1 22 16V4C22 2.9 21.1 2 20 2ZM20 16H5.17L4.58 16.59L4 17.17V4H20V16ZM11 12H13V14H11V12ZM11 6H13V10H11V6Z"/>
    </symbol>

    <!-- view_list -->
    <symbol id="list" viewBox="0 0 24 24" xmlns="http://www.w3.org/2000/svg">
      <path d="M3,5v14h18V5H3z M7,7v2H5V7H7z M5,13v-2h2v2H5z M5,15h2v2H5V15z M19,17H9v-2h10V17z M19,13H9v-2h10V13z M19,9H9V7h10V9z"/>
    </symbol>

    <!-- view_module -->
    <symbol id="grid" viewBox="0 0 24 24" xmlns="http://www.w3.org/2000/svg">
      <path d="M3,5v14h18V5H3z M19,11h-3.33V7H19V11z M13.67,11h-3.33V7h3.33V11z M8.33,7v4H5V7H8.33z M5,17v-4h3.33v4H5z M10.33,17v-4 h3.33v4H10.33z M15.67,17v-4H19v4H15.67z"/>
    </symbol>

    <!-- not in mockups -->

    <!-- help -->
    <symbol id="help" viewBox="0 0 24 24" xmlns="http://www.w3.org/2000/svg">
        <path d="M0 0h24v24H0z" fill="none"/>
        <path d="M11 18h2v-2h-2v2zm1-16C6.48 2 2 6.48 2 12s4.48 10 10 10 10-4.48 10-10S17.52 2 12 2zm0 18c-4.41 0-8-3.59-8-8s3.59-8 8-8 8 3.59 8 8-3.59 8-8 8zm0-14c-2.21 0-4 1.79-4 4h2c0-1.1.9-2 2-2s2 .9 2 2c0 2-3 1.75-3 5h2c0-2.25 3-2.5 3-5 0-2.21-1.79-4-4-4z"/>
    </symbol>

    <!-- code -->
    <symbol id="expand" viewBox="0 0 24 24" xmlns="http://www.w3.org/2000/svg">
        <path d="M0 0h24v24H0V0z" fill="none"/>
        <path d="M9.4 16.6L4.8 12l4.6-4.6L8 6l-6 6 6 6 1.4-1.4zm5.2 0l4.6-4.6-4.6-4.6L16 6l6 6-6 6-1.4-1.4z"/>
    </symbol>

    <!-- arrow-right -->
    <symbol id="arrow_collapsed" viewBox="0 0 24 24" xmlns="http://www.w3.org/2000/svg">
        <path d="M10 17l5-5-5-5v10z"/>
        <path d="M0 24V0h24v24H0z" fill="none"/>
    </symbol>

    <!-- arrow-drop-down -->
    <symbol id="arrow_expanded" viewBox="0 0 24 24" xmlns="http://www.w3.org/2000/svg">
        <path d="M0 0h24v24H0z" fill="none"/>
        <path d="M7 10l5 5 5-5z"/>
    </symbol>

    <!-- expand_less -->
    <symbol id="arrow_up" viewBox="0 0 24 24" xmlns="http://www.w3.org/2000/svg">
        <path d="M0 0h24v24H0z" fill="none"/>
        <path d="M12 8l-6 6 1.41 1.41L12 10.83l4.59 4.58L18 14z"/>
    </symbol>

    <!-- expand_more -->
    <symbol id="arrow_down" viewBox="0 0 24 24" xmlns="http://www.w3.org/2000/svg">
        <path d="M0 0h24v24H0z" fill="none"/>
        <path d="M16.59 8.59L12 13.17 7.41 8.59 6 10l6 6 6-6z"/>
    </symbol>

    <!-- add -->
    <symbol id="add" xmlns="http://www.w3.org/2000/svg" viewBox="0 0 24 24">
        <path d="M0 0h24v24H0z" fill="none"/>
        <path d="M19 13h-6v6h-2v-6H5v-2h6V5h2v6h6v2z"/>
    </symbol>

    <!-- add_circle_outline -->
    <symbol id="add_circle" viewBox="0 0 24 24" xmlns="http://www.w3.org/2000/svg">
        <path d="M0 0h24v24H0z" fill="none"/><path d="M13 7h-2v4H7v2h4v4h2v-4h4v-2h-4V7zm-1-5C6.48 2 2 6.48 2 12s4.48 10 10 10 10-4.48 10-10S17.52 2 12 2zm0 18c-4.41 0-8-3.59-8-8s3.59-8 8-8 8 3.59 8 8-3.59 8-8 8z"/>
    </symbol>

    <!-- remove_circle_outline -->
    <symbol id="remove_circle" viewBox="0 0 24 24" xmlns="http://www.w3.org/2000/svg">
        <path d="M0 0h24v24H0z" fill="none"/><path d="M7 11v2h10v-2H7zm5-9C6.48 2 2 6.48 2 12s4.48 10 10 10 10-4.48 10-10S17.52 2 12 2zm0 18c-4.41 0-8-3.59-8-8s3.59-8 8-8 8 3.59 8 8-3.59 8-8 8z"/>
    </symbol>

    <!-- arrow_forward -->
    <symbol id="arrow_forward" viewBox="0 0 24 24" xmlns="http://www.w3.org/2000/svg">
        <path d="M0 0h24v24H0z" fill="none"/><path d="M12 4l-1.41 1.41L16.17 11H4v2h12.17l-5.58 5.59L12 20l8-8z"/>
    </symbol>

    <!-- block -->
    <symbol id="block" viewBox="0 0 24 24" xmlns="http://www.w3.org/2000/svg">
        <path d="M0 0h24v24H0z" fill="none"/><path d="M12 2C6.48 2 2 6.48 2 12s4.48 10 10 10 10-4.48 10-10S17.52 2 12 2zM4 12c0-4.42 3.58-8 8-8 1.85 0 3.55.63 4.9 1.69L5.69 16.9C4.63 15.55 4 13.85 4 12zm8 8c-1.85 0-3.55-.63-4.9-1.69L18.31 7.1C19.37 8.45 20 10.15 20 12c0 4.42-3.58 8-8 8z"/>
    </symbol>

    <!-- more_vert -->
    <symbol id="more" viewBox="0 0 24 24" xmlns="http://www.w3.org/2000/svg">
        <path d="M12 8c1.1 0 2-.9 2-2s-.9-2-2-2-2 .9-2 2 .9 2 2 2zm0 2c-1.1 0-2 .9-2 2s.9 2 2 2 2-.9 2-2-.9-2-2-2zm0 6c-1.1 0-2 .9-2 2s.9 2 2 2 2-.9 2-2-.9-2-2-2z"/>
    </symbol>

    <!-- not material icon -->
    <symbol id="spinner" xmlns="http://www.w3.org/2000/svg" width="16" height="16" viewBox="0 0 16 16">
        <g fill="#1738C6" fill-rule="evenodd">
            <rect width="1.6" height="5.867" x="7.2" rx=".8"/>
            <rect width="1.6" height="5.867" x="7.2" y="10.133" opacity=".6" rx=".8"/>
            <path d="M13.657 2.343c.312.313.312.82 0 1.132L10.64 6.492c-.313.312-.82.312-1.132 0-.312-.313-.312-.82 0-1.132l3.017-3.017c.313-.312.82-.312 1.132 0z" opacity=".3"/>
            <path d="M6.492 9.508c.312.313.312.82 0 1.132l-3.017 3.017c-.313.312-.82.312-1.132 0-.312-.313-.312-.82 0-1.132L5.36 9.508c.313-.312.82-.312 1.132 0z" opacity=".7"/>
            <path d="M16 8c0 .442-.358.8-.8.8h-4.267c-.441 0-.8-.358-.8-.8 0-.442.359-.8.8-.8H15.2c.442 0 .8.358.8.8z" opacity=".4"/>
            <path d="M5.867 8c0 .442-.359.8-.8.8H.8C.358 8.8 0 8.442 0 8c0-.442.358-.8.8-.8h4.267c.441 0 .8.358.8.8z" opacity=".8"/>
            <path d="M13.657 13.657c-.313.312-.82.312-1.132 0L9.508 10.64c-.312-.313-.312-.82 0-1.132.313-.312.82-.312 1.132 0l3.017 3.017c.312.313.312.82 0 1.132z" opacity=".5"/>
            <path d="M6.492 6.492c-.313.312-.82.312-1.132 0L2.343 3.475c-.312-.313-.312-.82 0-1.132.313-.312.82-.312 1.132 0L6.492 5.36c.312.313.312.82 0 1.132z" opacity=".9"/>
        </g>
    </symbol>

    <symbol id="replay" viewBox="0 0 24 24" xmlns="http://www.w3.org/2000/svg">
        <path d="M12 5V1L17 6L12 11V7C8.69 7 6 9.69 6 13C6 16.31 8.69 19 12 19C15.31 19 18 16.31 18 13H20C20 17.42 16.42 21 12 21C7.58 21 4 17.42 4 13C4 8.58 7.58 5 12 5Z"/>
    </symbol>

    <!--  text_fields  -->
    <symbol id="text_fields" viewBox="0 0 24 24" xmlns="http://www.w3.org/2000/svg">
      <path d="M2.5,4v3h5v12h3V7h5V4H2.5z M21.5,9h-9v3h3v7h3v-7h3V9z"/>
    </symbol>

    <!--  image  -->
    <symbol id="image" viewBox="0 0 24 24" xmlns="http://www.w3.org/2000/svg">
      <path d="M0 0h24v24H0V0z" fill="none"/><path d="M19 5v14H5V5h14m0-2H5c-1.1 0-2 .9-2 2v14c0 1.1.9 2 2 2h14c1.1 0 2-.9 2-2V5c0-1.1-.9-2-2-2zm-4.86 8.86l-3 3.87L9 13.14 6 17h12l-3.86-5.14z"/>
    </symbol>

    <!--  openvino  -->
    <symbol id="openvino" viewBox="0 0 20 20" xmlns="http://www.w3.org/2000/svg">
      <path d="M9.99107 2.81299C6.01265 2.81299 2.91406 6.06596 2.91406 10.0127C2.91406 13.9594 6.01265 17.1868 9.99107 17.1868C13.9965 17.1868 17.0937 13.9594 17.0937 10.0127C17.0937 6.06596 13.9965 2.81299 9.99107 2.81299Z" fill="white"/>
      <path d="M13.7009 8.45559C13.4418 8.98452 12.91 9.35331 12.2702 9.35331C11.3718 9.35331 10.6727 8.62489 10.6727 7.73418C10.6727 7.09041 11.0404 6.53291 11.5819 6.27087C11.0976 6.06168 10.562 5.94468 9.99298 5.94468C7.74814 5.94468 6 7.78055 6 10.0079C6 12.2352 7.74814 14.0554 9.99298 14.0554C12.2535 14.0554 14.0016 12.2352 14.0016 10.0079C14.0016 9.45953 13.8942 8.93492 13.7009 8.45559Z" fill="#6C24F0"/>
      <path d="M17.0895 10C17.0895 6.05327 13.9922 2.79991 9.98677 2.79991C6.00837 2.79991 2.91051 6.05327 2.91051 10C2.91051 13.9467 6.00837 17.1731 9.98677 17.1731C13.9922 17.1731 17.0895 13.9467 17.0895 10ZM0 10C0 4.47997 4.45944 0 9.98677 0C15.5406 0 20 4.47997 20 10C20 15.52 15.5406 20 9.98677 20C4.45944 20 0 15.52 0 10Z" fill="#4A4A4A"/>
    </symbol>

    <!--  hugging_face  -->
    <symbol id="hugging_face" viewBox="0 0 21 20" xmlns="http://www.w3.org/2000/svg">
      <defs>
        <clipPath id="c">
          <path d="M0 0h21v20H0z"/>
        </clipPath>
        <filter id="a" filterUnits="objectBoundingBox" x="0%" y="0%" width="100%" height="100%">
          <feColorMatrix in="SourceGraphic" values="0 0 0 0 1 0 0 0 0 1 0 0 0 0 1 0 0 0 1 0"/>
        </filter>
        <mask id="e">
          <g filter="url(#a)">
            <use xlink:href="#b"/>
          </g>
        </mask>
        <g id="d" clip-path="url(#c)">
          <path d="M10.438 15.113c.945 0 1.75-.707 1.894-1.668.145-.96-.41-1.886-1.312-2.18-.184-.062-.38.59-.582.59-.192 0-.376-.656-.551-.601-.91.277-1.489 1.203-1.348 2.172.137.969.945 1.687 1.899 1.687Zm0 0" fill="#f94040"/>
        </g>
      </defs>
      <path d="M10.438 17.387c4.242 0 7.68-3.535 7.68-7.899 0-4.363-3.438-7.898-7.68-7.898-4.243 0-7.684 3.535-7.684 7.898 0 4.364 3.441 7.899 7.684 7.899Zm0 0" fill="#ffd21e"/>
      <path d="M18.117 9.488c0-4.363-3.437-7.898-7.68-7.898-4.242 0-7.683 3.535-7.683 7.898 0 4.364 3.441 7.899 7.684 7.899 4.242 0 7.68-3.535 7.68-7.899Zm-16.246 0c0-4.863 3.836-8.804 8.566-8.804 4.731 0 8.567 3.941 8.567 8.804 0 4.864-3.836 8.809-8.567 8.809-4.73 0-8.566-3.945-8.566-8.809Zm0 0" fill="#ff9d0b"/>
      <path d="M12.934 7.34c.28.101.39.695.675.543.54-.297.746-.985.457-1.54a1.084 1.084 0 0 0-1.492-.468c-.539.293-.746.98-.457 1.535.133.262.563-.164.817-.07Zm-5.207 0c-.286.101-.395.695-.68.543a1.157 1.157 0 0 1-.457-1.54 1.089 1.089 0 0 1 1.496-.468c.539.293.742.98.457 1.535-.137.262-.566-.164-.816-.07Zm2.656 5.453c2.172 0 2.87-1.992 2.87-3.016 0-.53-.347-.363-.901-.078-.516.262-1.207.621-1.97.621-1.589 0-2.874-1.562-2.874-.543 0 1.024.699 3.016 2.875 3.016Zm0 0" fill="#3a3b45"/>
      <use xlink:href="#d" mask="url(#e)"/>
      <path d="M15.633 8.41a.728.728 0 0 0 .715-.738c0-.41-.32-.738-.715-.738a.726.726 0 0 0-.719.738c0 .406.32.738.719.738Zm-10.281 0a.729.729 0 0 0 .718-.738c0-.41-.32-.738-.718-.738a.729.729 0 0 0-.72.738c0 .406.325.738.72.738Zm-1.477 2.5c-.36 0-.68.149-.902.426-.137.168-.282.441-.293.851a1.614 1.614 0 0 0-.43-.07c-.344 0-.652.137-.871.383a1.332 1.332 0 0 0-.176 1.59 1.209 1.209 0 0 0-.394.637c-.094.37-.032.761.175 1.078a1.217 1.217 0 0 0-.082 1.145c.227.523.79.94 1.883 1.386.68.277 1.3.453 1.309.457.898.238 1.71.36 2.414.36 1.297 0 2.222-.407 2.754-1.212.86-1.293.734-2.476-.375-3.617-.614-.633-1.024-1.562-1.106-1.77-.172-.6-.625-1.277-1.383-1.277-.062 0-.125.008-.187.016a1.27 1.27 0 0 0-.828.543c-.223-.281-.438-.508-.633-.637-.297-.191-.59-.289-.875-.289Zm0 .906c.113 0 .25.051.402.149.47.308 1.38 1.918 1.715 2.543.11.21.301.297.473.297.34 0 .605-.348.031-.79-.867-.667-.562-1.757-.148-1.824.015 0 .035-.004.05-.004.38 0 .543.668.543.668s.489 1.254 1.32 2.11c.837.86.88 1.547.27 2.465-.414.625-1.207.812-2.023.812-.844 0-1.707-.203-2.196-.332-.023-.004-2.972-.863-2.597-1.59.062-.125.164-.172.297-.172.523 0 1.48.805 1.894.805.09 0 .156-.039.184-.14.176-.645-2.668-.918-2.426-1.852.04-.168.156-.234.316-.234.696 0 2.254 1.257 2.582 1.257.024 0 .043-.007.051-.023.164-.274.074-.461-1.078-1.18-1.156-.719-1.965-1.152-1.504-1.668.051-.058.13-.086.219-.086.7 0 2.355 1.551 2.355 1.551s.45.477.72.477a.167.167 0 0 0 .152-.086c.191-.332-1.782-1.871-1.895-2.504-.074-.43.055-.649.293-.649Zm0 0" fill="#ff9d0b"/>
      <path d="M8.531 17.43c.61-.918.567-1.606-.27-2.465-.831-.856-1.32-2.11-1.32-2.11s-.18-.73-.593-.664c-.414.067-.72 1.157.148 1.825.867.664-.172 1.117-.504.492-.336-.625-1.246-2.235-1.715-2.543-.472-.305-.804-.133-.695.5.113.633 2.086 2.172 1.895 2.504-.196.332-.872-.39-.872-.39s-2.113-1.981-2.574-1.466c-.46.516.348.95 1.504 1.668 1.152.719 1.242.906 1.078 1.18-.164.27-2.71-1.938-2.949-1-.242.934 2.602 1.207 2.426 1.851-.176.649-2.004-1.222-2.375-.492-.375.727 2.574 1.586 2.598 1.59.953.254 3.375.793 4.218-.48Zm0 0" fill="#ffd21e"/>
      <path d="M17.11 10.91c.359 0 .68.149.902.426.136.168.281.441.293.851.148-.042.293-.07.43-.07.34 0 .652.137.87.383.282.313.407.7.352 1.086-.027.18-.086.351-.176.504.188.156.328.375.395.637.094.37.031.761-.176 1.078a1.23 1.23 0 0 1 .082 1.145c-.227.523-.789.94-1.883 1.386-.68.277-1.304.453-1.308.457-.899.238-1.711.36-2.418.36-1.293 0-2.22-.407-2.754-1.212-.856-1.293-.735-2.476.375-3.617.617-.633 1.023-1.562 1.11-1.77.171-.6.624-1.277 1.378-1.277.066 0 .129.008.191.016.332.055.622.25.825.543.222-.281.441-.508.636-.637.293-.191.59-.289.875-.289Zm0 .906c-.114 0-.25.051-.403.149-.473.308-1.383 1.918-1.715 2.543-.11.21-.3.297-.472.297-.344 0-.61-.348-.032-.79.864-.667.563-1.757.149-1.824-.02 0-.035-.004-.055-.004-.375 0-.539.668-.539.668s-.488 1.254-1.324 2.11c-.832.86-.875 1.547-.27 2.465.418.625 1.211.812 2.024.812.847 0 1.71-.203 2.195-.332.023-.004 2.973-.863 2.602-1.59-.063-.125-.168-.172-.297-.172-.528 0-1.485.805-1.895.805-.094 0-.156-.039-.183-.14-.176-.645 2.664-.918 2.425-1.852-.043-.168-.156-.234-.316-.234-.695 0-2.258 1.257-2.582 1.257-.027 0-.043-.007-.055-.023-.164-.274-.074-.461 1.082-1.18 1.153-.719 1.965-1.152 1.504-1.668a.286.286 0 0 0-.219-.086c-.703 0-2.359 1.551-2.359 1.551s-.445.477-.715.477a.166.166 0 0 1-.152-.086c-.192-.332 1.781-1.871 1.89-2.504.079-.43-.05-.649-.289-.649Zm0 0" fill="#ff9d0b"/>
      <path d="M12.453 17.43c-.61-.918-.566-1.606.27-2.465.832-.856 1.32-2.11 1.32-2.11s.18-.73.594-.664c.414.067.715 1.157-.149 1.825-.867.664.172 1.117.504.492s1.242-2.235 1.715-2.543c.473-.305.805-.133.691.5-.109.633-2.082 2.172-1.89 2.504.191.332.867-.39.867-.39s2.117-1.981 2.578-1.466c.461.516-.348.95-1.504 1.668-1.156.719-1.246.906-1.082 1.18.164.27 2.715-1.938 2.953-1 .239.934-2.601 1.207-2.425 1.851.175.649 2-1.222 2.375-.492.37.727-2.579 1.586-2.602 1.59-.953.254-3.371.793-4.215-.48Zm0 0" fill="#ffd21e"/>
    </symbol>

    <!--  file  -->
    <symbol id="file" viewBox="0 0 20 20" xmlns="http://www.w3.org/2000/svg">
      <path d="M6.66927 13.3334H13.3359V15.0001H6.66927V13.3334ZM6.66927 10.0001H13.3359V11.6667H6.66927V10.0001ZM11.6693 1.66675H5.0026C4.08594 1.66675 3.33594 2.41675 3.33594 3.33341V16.6667C3.33594 17.5834 4.0776 18.3334 4.99427 18.3334H15.0026C15.9193 18.3334 16.6693 17.5834 16.6693 16.6667V6.66675L11.6693 1.66675ZM15.0026 16.6667H5.0026V3.33341H10.8359V7.50008H15.0026V16.6667Z" fill="#323232"/>
    </symbol>

    <!--  lock  -->
    <symbol id="lock" viewBox="0 0 24 24" xmlns="http://www.w3.org/2000/svg">
      <path d="M18 8h-1V6c0-2.76-2.24-5-5-5S7 3.24 7 6v2H6c-1.1 0-2 .9-2 2v10c0 1.1.9 2 2 2h12c1.1 0 2-.9 2-2V10c0-1.1-.9-2-2-2zM9 6c0-1.66 1.34-3 3-3s3 1.34 3 3v2H9V6zm9 14H6V10h12v10zm-6-3"/>
    </symbol>

    <!--  sorting  -->
    <symbol id="swap_vert" viewBox="0 0 24 24" xmlns="http://www.w3.org/2000/svg">
      <path d="M16 17.01V10H14V17.01H11L15 21L19 17.01H16ZM9 3L5 6.99H8V14H10V6.99H13L9 3ZM16 17.01V10H14V17.01H11L15 21L19 17.01H16ZM9 3L5 6.99H8V14H10V6.99H13L9 3Z" fill="#383838"/>
    </symbol>

    <!--  filters  -->
    <symbol id="filters" viewBox="0 0 24 24" fill="none" xmlns="http://www.w3.org/2000/svg">
      <path d="M3 17V19H9V17H3ZM3 5V7H13V5H3ZM13 21V19H21V17H13V15H11V21H13ZM7 9V11H3V13H7V15H9V9H7ZM21 13V11H11V13H21ZM15 9H17V7H21V5H17V3H15V9Z" fill="#383838"/>
    </symbol>

    <!--  undo  -->
    <symbol id="undo" viewBox="0 0 20 20" xmlns="http://www.w3.org/2000/svg">
      <path d="M10.418 6.66732C8.20964 6.66732 6.20964 7.49232 4.66797 8.83399L1.66797 5.83398V13.334H9.16797L6.1513 10.3173C7.30964 9.35065 8.78464 8.75065 10.418 8.75065C13.368 8.75065 15.8763 10.6757 16.7513 13.334L18.7263 12.684C17.568 9.19232 14.293 6.66732 10.418 6.66732Z" fill="#6D0F3F"/>
    </symbol>

    <!--  license  -->
    <symbol id="license" viewBox="0 0 18 18" xmlns="http://www.w3.org/2000/svg">
      <path d="M14.25 1.5H11.115C10.8 0.63 9.975 0 9 0C8.025 0 7.2 0.63 6.885 1.5H3.75C2.925 1.5 2.25 2.175 2.25 3V15C2.25 15.825 2.925 16.5 3.75 16.5H14.25C15.075 16.5 15.75 15.825 15.75 15V3C15.75 2.175 15.075 1.5 14.25 1.5ZM9 1.5C9.4125 1.5 9.75 1.8375 9.75 2.25C9.75 2.6625 9.4125 3 9 3C8.5875 3 8.25 2.6625 8.25 2.25C8.25 1.8375 8.5875 1.5 9 1.5ZM14.25 15H3.75V3H5.25V5.25H12.75V3H14.25V15Z" fill="#6300C7"/>
    </symbol>

    <!--  list_alt  -->
    <symbol id="list_alt" viewBox="0 0 18 18" xmlns="http://www.w3.org/2000/svg">
      <path d="M8.25 5.25H12.75V6.75H8.25V5.25ZM8.25 8.25H12.75V9.75H8.25V8.25ZM8.25 11.25H12.75V12.75H8.25V11.25ZM5.25 5.25H6.75V6.75H5.25V5.25ZM5.25 8.25H6.75V9.75H5.25V8.25ZM5.25 11.25H6.75V12.75H5.25V11.25ZM15.075 2.25H2.925C2.55 2.25 2.25 2.55 2.25 2.925V15.075C2.25 15.375 2.55 15.75 2.925 15.75H15.075C15.375 15.75 15.75 15.375 15.75 15.075V2.925C15.75 2.55 15.375 2.25 15.075 2.25ZM14.25 14.25H3.75V3.75H14.25V14.25Z" fill="#BB4300"/>
    </symbol>

    <!--  caffe  -->
    <symbol id="caffe" viewBox="0 0 14 16" xmlns="http://www.w3.org/2000/svg">
      <path d="M0 15.26a.77.77 0 0 1 .84-.52H12.4c.13 0 .27.02.4.05a.6.6 0 0 1 .41.67.6.6 0 0 1-.55.53H.84A.78.78 0 0 1 0 15.5v-.24ZM8.5 0a.64.64 0 0 1 .32.68c-.02.18 0 .37 0 .59h.72a.48.48 0 0 1 .53.37.46.46 0 0 1-.48.55h-.77v.73a.47.47 0 0 1-.47.53c-.26 0-.44-.2-.45-.51v-.68l-.03-.06h-.73c-.4-.03-.64-.4-.41-.7.12-.12.27-.2.44-.22.25-.02.5-.02.74 0V.64A.58.58 0 0 1 8.26 0h.24Zm3.22 7.48a2.18 2.18 0 0 1 1.7.72 2.08 2.08 0 0 1 .38 2.36 2.09 2.09 0 0 1-1.96 1.27h-.81a.39.39 0 0 0-.36.19 5 5 0 0 1-4.2 2.01A5.08 5.08 0 0 1 1.5 9.47c-.09-.87-.04-1.75-.04-2.63a.58.58 0 0 1 .5-.57l.28-.02h8.7l.33.03a.57.57 0 0 1 .46.54v.66Zm-9.03 0v1.4A3.93 3.93 0 0 0 9.2 11.8c.58-.51.98-1.2 1.16-1.96.1-.69.14-1.38.14-2.07.02-.24-.06-.3-.3-.3H2.99l-.3.01Zm8.82 3.1a1 1 0 0 0 1.06-.39.9.9 0 0 0 .04-1.01.83.83 0 0 0-.82-.43l-.28 1.82ZM5.2 4.26h-.74a.46.46 0 1 1 0-.91h.74v-.79a.4.4 0 0 1 .28-.43.62.62 0 0 1 .46.07c.11.1.17.26.18.41v.73h.71c.35 0 .56.18.56.46s-.22.45-.56.46H6.2a.44.44 0 0 0-.08.02v.68c0 .36-.17.54-.47.54-.29 0-.45-.2-.46-.55v-.7Z" fill="#2F3847"/>
    </symbol>

    <!--  tensorflow  -->
    <symbol id="tensorflow" viewBox="0 0 15 16" xmlns="http://www.w3.org/2000/svg">
      <g clip-path="url(#a)">
        <path d="M8.53 2.46v2.46l4.26 2.46V4.92L8.53 2.46ZM0 4.92v2.46l2.13 1.23V6.15L0 4.92Zm6.4 1.23L4.25 7.38v7.39L6.4 16v-4.92l2.14 1.23V9.85L6.39 8.62V6.15Z" fill="#E55B2D"/>
        <path d="m8.53 2.46-6.4 3.7V8.6L6.4 6.15v2.46l2.13-1.23V2.46Zm6.4 1.23-2.14 1.23v2.46l2.13-1.23V3.7Zm-4.27 4.93L8.53 9.85v2.46l2.13-1.23V8.62ZM8.53 12.3 6.4 11.08V16l2.13-1.23V12.3Z" fill="#ED8E24"/>
        <path d="M8.53 0 0 4.92l2.13 1.23 6.4-3.69 4.26 2.46 2.13-1.23L8.52 0Zm0 7.38L6.39 8.62l2.14 1.23 2.13-1.23-2.13-1.24Z" fill="#F8BF3C"/>
      </g>
      <defs>
        <clipPath id="a">
          <path fill="#fff" d="M0 0h14.92v16H0z"/>
        </clipPath>
      </defs>
    </symbol>

    <!--  pytorch  -->
    <symbol id="pytorch" viewBox="0 0 14 16" xmlns="http://www.w3.org/2000/svg">
      <path d="m6.65 0-4.7 4.7a6.58 6.58 0 0 0 0 9.35 6.58 6.58 0 0 0 9.35 0 6.53 6.53 0 0 0 .05-9.35L10.2 5.86a4.97 4.97 0 1 1-7.02 0l3.1-3.1.38-.44V0Zm2.38 2.6a.88.88 0 1 0 0 1.77.88.88 0 0 0 0-1.77Z" fill="#DB583A"/>
    </symbol>

    <!--  onnx  -->
    <symbol id="onnx" viewBox="-1 0 18 16" xmlns="http://www.w3.org/2000/svg">
      <path d="M15.73 7.52c-.08 0-.13-.04-.17-.1l-2.63-4.87a.2.2 0 0 1-.01-.18.66.66 0 0 0-1.02-.76.27.27 0 0 1-.24.05L6.48.62a.18.18 0 0 1-.16-.14c-.25-.86-1.54-.46-1.27.4.03.07.02.15-.03.21L.92 7c-.06.08-.12.1-.2.08a.66.66 0 0 0-.71.57.65.65 0 0 0 .56.75c.08 0 .15.06.17.14l2.21 5.44c.03.06.03.12.01.2a.66.66 0 0 0 1.05.7.23.23 0 0 1 .18-.04l6.66.65a.17.17 0 0 1 .17.11c.38.87 1.66.2 1.17-.6a.16.16 0 0 1 0-.2l3.36-5.83a.18.18 0 0 1 .18-.11c.9 0 .9-1.34 0-1.33ZM5.44 2.26l.2-.82c0-.06.03-.1.12-.11.16 0 .32-.09.42-.22a.15.15 0 0 1 .18-.06l5.2 1.04.09.03-1.64.71-4.94 2.15-.07.03c-.05.02-.1.07-.16.02s-.02-.1 0-.15l.6-2.63Zm-.37-.46.03.02-.7 3a.17.17 0 0 1-.13.14.63.63 0 0 0-.46.56c0 .07-.03.13-.09.16L1.5 6.98a.28.28 0 0 1-.05.02l3.62-5.2ZM3.32 13.5l-.03.13-2.13-5.23a.23.23 0 0 1 .04-.27.5.5 0 0 0 .12-.38.19.19 0 0 1 .12-.2L3.87 6.1c.04-.02.09-.09.15-.02.06.05.15.08.13.2l-.22 1.87-.61 5.34Zm.76.41a.5.5 0 0 0-.26-.17c-.06-.02-.1-.04-.08-.1l.2-1.66.37-3.3.27-2.32c.01-.15.12-.15.21-.2.1-.06.12.03.17.06l5.5 4.79c.12.12.09.33-.06.4l-6.14 2.54c-.08.03-.13.04-.18-.04Zm7.19.87a.28.28 0 0 0-.13.1c-.08.19-.23.16-.38.15l-6.38-.63v-.03l.98-.41 5.17-2.14c.1-.04.16 0 .25.03.26.1.26.29.29.5l.26 2.28c0 .06 0 .11-.06.15Zm-.22-4.2c-.01.09-.05.11-.12.14a.16.16 0 0 1-.18-.04L9.42 9.52l-4.2-3.65a.46.46 0 0 1-.1-.4c.02-.06.1-.07.15-.09l6.36-2.77c.1-.04.17-.07.24.03.03.04.08.08.13.1.06.02.09.05.07.1l-.18 1.4-.84 6.34Zm.72 4.06-.1-.84-.19-1.61c-.02-.15-.03-.28.13-.4a.57.57 0 0 0 .2-.55c0-.06 0-.1.06-.14l3.11-2.12h.05l-3.26 5.66Zm3.38-6.77a.48.48 0 0 0-.07.38.17.17 0 0 1-.1.2l-3.33 2.29c-.04.02-.07.07-.13.03-.07-.03-.05-.09-.04-.14l1.01-7.67.04-.2.6 1.1 2.02 3.73c.07.08.07.2 0 .28Z" fill="#343433"/>
      <path d="M12.07 2.83c.02-.04-.01-.07-.07-.1a.3.3 0 0 1-.14-.09c-.07-.1-.14-.08-.23-.03l-1 .43-5.36 2.34c-.05.02-.12.03-.15.08a.46.46 0 0 0 .11.4l5.52 4.8a.15.15 0 0 0 .19.05c.06-.03.1-.05.11-.14l.42-3.18.42-3.15.18-1.4Z" fill="#FEFEFE"/>
      <path d="M10.46 11 4.96 6.2c-.05-.03-.08-.12-.17-.06-.08.05-.2.05-.22.2l-.26 2.32-.38 3.3-.19 1.66c-.02.06.02.08.08.1.1.03.2.09.26.17.05.08.1.07.18.04l6.14-2.54a.26.26 0 0 0 .06-.4Z" fill="#F4F5F6"/>
      <path d="m13.13 3.85-.6-1.1-.04.2-.34 2.62-.67 5.05c0 .05-.03.1.04.14.06.04.09-.01.12-.03l3.34-2.3a.17.17 0 0 0 .1-.2.48.48 0 0 1 .07-.37.22.22 0 0 0 0-.28l-2.02-3.73Z" fill="#DEDFDF"/>
      <path d="M4.84 5.04c.06.05.1 0 .16-.02l.08-.03L10 2.84l1.64-.71-.08-.03a11201.05 11201.05 0 0 1-5.3-1.05.16.16 0 0 0-.09.06.57.57 0 0 1-.42.22c-.09.01-.11.05-.13.12l-.18.81-.62 2.63c0 .05-.05.1 0 .15Zm6.23 7.3c-.02-.2-.03-.4-.29-.5-.09-.03-.15-.07-.24-.02l-5.18 2.12-.99.41.02.03 6.37.63c.15.02.3.04.39-.14a.28.28 0 0 1 .12-.1c.07-.04.07-.09.06-.15l-.26-2.28Z" fill="#D1D1D1"/>
      <path d="M4.15 6.27c.02-.12-.06-.14-.12-.2-.07-.06-.12 0-.16.03L1.44 7.53a.19.19 0 0 0-.12.2.5.5 0 0 1-.12.38.23.23 0 0 0-.04.28c.47 1.12.92 2.25 1.38 3.38l.75 1.84.03-.12a2546.3 2546.3 0 0 0 .62-5.34l.21-1.87Z" fill="#D8D8D8"/>
      <path d="M11.87 11.1c-.06.04-.06.08-.05.14a.57.57 0 0 1-.21.55c-.16.11-.15.24-.13.4l.19 1.6.1.85 3.26-5.67H15l-3.12 2.14ZM3.72 5.68a.18.18 0 0 0 .09-.16.63.63 0 0 1 .46-.56.17.17 0 0 0 .13-.15l.7-3h-.03L1.45 7a2751.84 2751.84 0 0 1 2.27-1.32Z" fill="#B2B2B2"/>
    </symbol>

    <!--  mxnet  -->
    <symbol id="mxnet" viewBox="0 0 16 16" xmlns="http://www.w3.org/2000/svg">
      <circle cx="8" cy="8" r="8" fill="#008FD2"/>
      <path d="M13.01 9.78c0 .36.34.54 1.02.54V11h-3.44v-.68c.52 0 .79-.18.79-.54V7.1c0-.5-.06-.86-.18-1.08a.56.56 0 0 0-.53-.32c-.36 0-.7.14-1.03.42-.32.28-.6.67-.82 1.17v2.48c0 .36.26.54.77.54V11h-3.2v-.68c.54 0 .8-.18.8-.54V7.1c0-.5-.06-.86-.18-1.08a.6.6 0 0 0-.55-.32c-.36 0-.71.14-1.05.42-.32.28-.6.67-.8 1.17v2.48c0 .36.26.54.8.54V11H1.96v-.68c.67 0 1-.18 1-.54V6.12c0-.36-.33-.54-1-.54v-.69h2.64v1.26a3.28 3.28 0 0 1 .98-.96c.21-.13.44-.23.69-.3.25-.08.52-.12.83-.12.45 0 .83.12 1.12.35.3.22.5.58.57 1.06.26-.4.6-.73 1.03-1 .42-.27.91-.4 1.46-.4.53 0 .95.13 1.25.41.31.28.47.74.47 1.37v3.22Z" fill="#fff"/>
    </symbol>

    <!--  sentiment_dissatisfied  -->
    <symbol id="sentiment_dissatisfied" viewBox="0 0 50 50" xmlns="http://www.w3.org/2000/svg">
      <path d="M32.293 22.916C34.0189 22.916 35.418 21.5169 35.418 19.791C35.418 18.0651 34.0189 16.666 32.293 16.666C30.5671 16.666 29.168 18.0651 29.168 19.791C29.168 21.5169 30.5671 22.916 32.293 22.916Z" fill="#E3E3E3"/>
      <path d="M17.707 22.916C19.4329 22.916 20.832 21.5169 20.832 19.791C20.832 18.0651 19.4329 16.666 17.707 16.666C15.9811 16.666 14.582 18.0651 14.582 19.791C14.582 21.5169 15.9811 22.916 17.707 22.916Z" fill="#E3E3E3"/>
      <path d="M25.0013 29.166C20.1471 29.166 16.0013 32.1869 14.3346 36.4577H17.8138C19.2513 33.9785 21.918 32.291 25.0013 32.291C28.0846 32.291 30.7305 33.9785 32.1888 36.4577H35.668C34.0013 32.1869 29.8555 29.166 25.0013 29.166ZM24.9805 4.16602C13.4805 4.16602 4.16797 13.4993 4.16797 24.9994C4.16797 36.4994 13.4805 45.8327 24.9805 45.8327C36.5013 45.8327 45.8346 36.4994 45.8346 24.9994C45.8346 13.4993 36.5013 4.16602 24.9805 4.16602ZM25.0013 41.666C15.793 41.666 8.33464 34.2077 8.33464 24.9994C8.33464 15.791 15.793 8.33268 25.0013 8.33268C34.2096 8.33268 41.668 15.791 41.668 24.9994C41.668 34.2077 34.2096 41.666 25.0013 41.666Z" fill="#E3E3E3"/>
    </symbol>
  </defs>
</svg>
