<svg width="30" height="30" fill="none" xmlns="http://www.w3.org/2000/svg"><path d="M15 1.5c7.456 0 13.5 6.044 13.5 13.5S22.456 28.5 15 28.5 1.5 22.456 1.5 15 7.544 1.5 15 1.5z" fill="#0358AD" stroke="#0358AD" stroke-width="3"/><path d="M10.906 20V8.625h3.985c1.38 0 2.427.266 3.14.797.714.526 1.07 1.3 1.07 2.32 0 .557-.143 1.05-.43 1.477a2.49 2.49 0 01-1.194.93c.583.145 1.041.44 1.375.882.338.443.507.985.507 1.625 0 1.094-.349 1.922-1.047 2.485-.697.562-1.692.849-2.984.859h-4.422zm2.344-4.953v3.07h2.008c.552 0 .982-.13 1.289-.39.312-.266.469-.63.469-1.094 0-1.042-.54-1.57-1.618-1.586H13.25zm0-1.656h1.734c1.183-.021 1.774-.493 1.774-1.414 0-.516-.151-.886-.453-1.11-.297-.229-.768-.344-1.414-.344H13.25v2.868z" fill="#fff"/></svg>