<svg xmlns="http://www.w3.org/2000/svg" fill="none" viewBox="0 0 920 151">
  <path fill="#E9E9E9" d="m756.688 86.372 58.755-34.467L876.8 87.29l-58.702 34.953-61.41-35.872Z"/>
  <g stroke="#6D0F3F" stroke-linecap="round" stroke-linejoin="round" opacity=".5">
    <path d="m638.219 75.572 13.931 8.036 13.932-8.036-13.932-8.036-13.931 8.036Z" opacity=".5"/>
    <path stroke-dasharray="2.93 2.93" d="m659.098 79.603 34.684 19.926L817.048 28.19l31.708 18.225" opacity=".5"/>
    <path d="m841.098 50.828 13.931 8.036 13.931-8.036-13.931-8.03-13.931 8.03Z" opacity=".5"/>
  </g>
  <g stroke="#6D0F3F" stroke-linecap="round" stroke-linejoin="round" opacity=".5">
    <path d="m388.746 127.451 13.932-8.036 13.931 8.036-13.931 8.035-13.932-8.035ZM496.207 117.235l13.925-8.036 13.931 8.036-13.931 8.036-13.925-8.036Z" opacity=".5"/>
    <path stroke-dasharray="2.93 2.93" d="M503.575 112.987 465.79 89.399l-56.173 34.021" opacity=".5"/>
  </g>
  <path fill="#6D0F3F" d="m372.207 35.879 8.011-4.622 8.004 4.622-8.004 4.615-8.011-4.615ZM386.129 44.184l8.004-4.622 8.01 4.622-8.01 4.615-8.004-4.615ZM358.281 27.646l8.004-4.615 8.011 4.615-8.011 4.622-8.004-4.622ZM344.355 19.413l8.004-4.615 8.011 4.615-8.011 4.622-8.004-4.622Z" opacity=".3"/>
  <path fill="#6D0F3F" stroke="#6D0F3F" d="m148.186 34.987-7.009-4.039 7.009-4.044 7.004 4.044-7.004 4.039ZM120.335 34.678l-7.01-4.038 7.01-4.045 7.003 4.045-7.003 4.038ZM134.26 26.76l-7.009-4.044 7.009-4.039 7.004 4.039-7.004 4.044Z" opacity=".3"/>
  <path fill="#6D0F3F" d="m742.703 102.391 8.004-4.615 8.004 4.615-8.004 4.622-8.004-4.622ZM714.852 102.083l8.004-4.616 8.004 4.616-8.004 4.621-8.004-4.621ZM728.777 94.165l8.004-4.622 8.004 4.622-8.004 4.615-8.004-4.615ZM559.887 122.382l-8.004 4.622-8.004-4.622 8.004-4.615 8.004 4.615ZM587.734 122.691l-8.003 4.615-8.004-4.615 8.004-4.616 8.003 4.616ZM573.819 130.615l-8.01 4.615-8.004-4.615 8.004-4.622 8.01 4.622ZM720.766 53.086l8.01-4.615 8.004 4.615-8.004 4.622-8.01-4.622ZM734.691 45.169l8.011-4.622 8.004 4.622-8.004 4.615-8.011-4.615Z" opacity=".3"/>
  <g stroke="#6D0F3F" stroke-linecap="round" stroke-linejoin="round" opacity=".5">
    <path d="m26.258 60.853 13.931 8.036 13.932-8.036-13.932-8.036-13.931 8.036ZM164.453 108.963l13.932 8.036 13.931-8.036-13.931-8.036-13.932 8.036Z" opacity=".5"/>
    <path stroke-dasharray="2.93 2.93" d="m47.026 64.943 20.818 11.975-36.63 21.357 83.208 47.991 57.205-33.174" opacity=".5"/>
  </g>
  <path fill="#F6E5E5" d="m800.465 67.47 16.284-9.387 16.271 9.388-16.278 9.388-16.277-9.388Z"/>
  <path fill="#6D0F3F" d="M816.742 95.635V76.86l16.278-9.388v18.776l-16.278 9.388Z"/>
  <path fill="#A36F8A" d="M816.742 95.635V76.86l-16.277-9.388v18.776l16.277 9.388Z"/>
  <path fill="#F6E5E5" d="m800.465 45.707 16.284-9.388 16.271 9.388-16.278 9.388-16.277-9.388Z"/>
  <path fill="#6D0F3F" d="M816.742 73.872V55.095l16.278-9.388v18.777l-16.278 9.388Z"/>
  <path fill="#A36F8A" d="M816.742 73.872V55.095l-16.277-9.388v18.777l16.277 9.388Z"/>
  <path fill="#AEAEAE" d="m526.891 89.57 27.744 16.012V94.598l-27.744-16V89.57Z"/>
  <path fill="gray" d="m554.633 105.582 55.463-32.006v-16l-13.873-7.995-13.865 7.996v21.022l-27.725 16.019v10.964Z"/>
  <path fill="#E9E9E9" d="m526.891 78.605 27.744 15.993 27.725-16-27.725-15.986-27.744 15.993Z"/>
  <path fill="#AEAEAE" d="m554.629 41.584 27.731 15.993v21.022l-27.725-15.987-.006-21.028Z"/>
  <path fill="#E9E9E9" d="m568.495 33.581 27.731 16-13.866 7.996-27.731-15.993 13.866-8.003Z"/>
  <path fill="#AEAEAE" d="M596.227 65.52V52.79l-11.039 6.37v12.742l11.039-6.381ZM598.605 64.168l8.701-4.983-8.701-5.015v9.998Z"/>
  <path fill="#fff" d="m604.348 74.791.335.112 1.57.886-1.905 1.149V74.79Z"/>
  <path fill="#262626" d="M594.266 82.722c-.102-1.79.181-3.58.829-5.252 1.715-4.596 5.421-7.439 8.28-6.369 1.656.617 2.661 2.43 2.878 4.734l-2.34-1.392-9.647 8.279Z"/>
  <path fill="#525252" d="m597.686 86.26-4.706-2.816 1.315-.735c-.101-1.79.181-3.58.828-5.253 1.176-3.138 3.285-5.468 5.415-6.276l2.339 1.313-5.191 13.767Z"/>
  <path fill="gray" d="M604.581 80.976c1.425-3.81.655-7.62-1.722-8.506-2.376-.888-5.458 1.483-6.884 5.293-1.425 3.811-.654 7.62 1.722 8.507 2.377.887 5.459-1.483 6.884-5.294Z"/>
  <path fill="#E9E9E9" d="M602.227 80.096c.645-1.725.298-3.45-.777-3.85-1.074-.401-2.468.672-3.113 2.398-.646 1.725-.298 3.449.776 3.85 1.074.4 2.469-.673 3.114-2.398Z"/>
  <path fill="#fff" d="m571.918 93.515.329.112 1.57.892-1.899 1.143v-2.147Z"/>
  <path fill="#262626" d="M561.858 101.426c-.096-1.79.187-3.579.828-5.252 1.715-4.596 5.421-7.439 8.28-6.368 1.663.617 2.629 2.429 2.878 4.727l-2.372-1.346-9.614 8.239Z"/>
  <path fill="#525252" d="m565.255 104.984-4.712-2.816 1.314-.742c-.095-1.79.187-3.579.828-5.252 1.177-3.138 3.286-5.469 5.415-6.277l2.34 1.314-5.185 13.773Z"/>
  <path fill="gray" d="M572.155 99.7c1.426-3.81.655-7.618-1.722-8.506-2.376-.887-5.458 1.483-6.883 5.294-1.426 3.811-.655 7.619 1.722 8.507 2.376.887 5.458-1.483 6.883-5.294Z"/>
  <path fill="#E9E9E9" d="M569.797 98.82c.646-1.725.298-3.449-.776-3.85-1.075-.4-2.469.673-3.114 2.398-.646 1.726-.298 3.449.776 3.851 1.075.401 2.469-.673 3.114-2.398Z"/>
  <path fill="#3070AA" d="m537.023 92.07 7.479 4.314v-2.961l-7.479-4.313v2.96Z"/>
  <path fill="#F6E5E5" d="m537.16 58.036 17.474-10.077 17.467 10.077-17.467 10.078-17.474-10.078Z"/>
  <path fill="#6D0F3F" d="M554.633 88.27V68.113L572.1 58.036v20.156l-17.467 10.077Z"/>
  <path fill="#A36F8A" d="M554.634 88.27V68.113L537.16 58.036v20.156l17.474 10.077Z"/>
  <path fill="#FFB8B8" d="M554.814 67.083a1.156 1.156 0 0 0-.665.602 1.157 1.157 0 0 0-.039.895.957.957 0 0 0 .086.184l-2.727 3.138 2.142.29 2.261-3.027a1.178 1.178 0 0 0-1.058-2.081ZM538.286 68.6a1.165 1.165 0 0 1-.979 1.313h-.21l-1.465 3.887-1.269-1.753 1.591-3.42a1.173 1.173 0 0 1 1.14-1.056 1.175 1.175 0 0 1 1.192.996v.033ZM540.867 109.81h1.426l.677-5.495h-2.103v5.495Z"/>
  <path fill="#2F2E41" d="M540.508 109.344h2.806a1.793 1.793 0 0 1 1.794 1.792v.059h-4.6v-1.851Z"/>
  <path fill="#FFB8B8" d="M533.535 108.031h1.426l.677-5.495h-2.103v5.495Z"/>
  <path fill="#2F2E41" d="M533.168 107.565h2.813a1.794 1.794 0 0 1 1.794 1.792v.059h-4.6l-.007-1.851Z"/>
  <path fill="#FFB8B8" d="M540.573 72.263a2.857 2.857 0 0 0 2.859-2.856 2.857 2.857 0 0 0-2.859-2.855 2.857 2.857 0 0 0-2.858 2.855 2.857 2.857 0 0 0 2.858 2.856Z"/>
  <path fill="#2F2E41" d="m540.224 107.985-.237-15.048a.177.177 0 0 0-.17-.177.185.185 0 0 0-.109.04.188.188 0 0 0-.062.098l-3.877 12.94a.526.526 0 0 1-.533.4l-2.129-.085a.508.508 0 0 1-.199-.05.51.51 0 0 1-.27-.298.502.502 0 0 1-.03-.203.09.09 0 0 1 0-.04l3.285-17.142v-.052l9.161.433h.059l-1.971 19.21a.532.532 0 0 1-.519.486h-1.893a.536.536 0 0 1-.506-.512Z"/>
  <path fill="#2F2E41" d="m547.46 90.075-13.288-1.09a.512.512 0 0 1-.358-.182.5.5 0 0 1-.099-.179.502.502 0 0 1-.022-.204.413.413 0 0 1 0-.131l2.096-5.784.118-6.86a1.873 1.873 0 0 1 .576-1.323 1.88 1.88 0 0 1 1.343-.529l.887-.8h3.24l.282.373 2.254.342a1.9 1.9 0 0 1 1.578 1.608l1.991 14.168a.527.527 0 0 1-.447.59h-.151Z"/>
  <path fill="#2F2E41" d="m544.871 74.377 5.671-1.66 2.563-3.375a.526.526 0 0 1 .657-.164l1.604.656a.532.532 0 0 1 .276.657v.059l-1.919 3.282c-.309.54-.784.966-1.354 1.215l-6.663 2.941-.835-3.61ZM534.06 76.445a2.437 2.437 0 0 1-.558-2.317l.887-3.178a.533.533 0 0 1 .611-.374l1.84.388a.524.524 0 0 1 .407.617.47.47 0 0 1 0 .091l-.657 1.675 2.235 1.516-2.852 3.578-1.913-1.996ZM542.235 65.98s-2.99-1.608-4.6.29c-1.61 1.897.618 4.864.618 4.864l3.207.407s.118-2.18.88-2.133c.762.046 3.089-2.712-.105-3.427Z"/>
  <g opacity=".8">
    <path fill="#F6E5E5" d="m363.496 38.84 3.904-2.246 3.896 2.246-3.896 2.252-3.904-2.252Z" opacity=".8"/>
    <path fill="#6D0F3F" d="M367.402 45.596v-4.504l3.897-2.252v4.504l-3.897 2.252Z" opacity=".8"/>
    <path fill="#A36F8A" d="M367.4 45.596v-4.504l-3.904-2.252v4.504l3.904 2.252Z" opacity=".8"/>
    <path fill="#F6E5E5" d="m353.508 39.043 3.897-2.252 3.903 2.252-3.903 2.252-3.897-2.252Z" opacity=".8"/>
    <path fill="#6D0F3F" d="M357.406 45.792v-4.497l3.904-2.252v4.504l-3.904 2.245Z" opacity=".8"/>
    <path fill="#A36F8A" d="M357.405 45.792v-4.497l-3.897-2.252v4.504l3.897 2.245Z" opacity=".8"/>
    <path fill="#F6E5E5" d="m358.504 41.853 3.903-2.252 3.897 2.252-3.903 2.252-3.897-2.252Z" opacity=".8"/>
    <path fill="#6D0F3F" d="M362.398 48.602v-4.497l3.904-2.252v4.497l-3.904 2.252Z" opacity=".8"/>
    <path fill="#A36F8A" d="M362.401 48.602v-4.497l-3.897-2.252v4.497l3.897 2.252Z" opacity=".8"/>
    <path fill="#F6E5E5" d="m363.496 44.67 3.904-2.252 3.896 2.252-3.896 2.252-3.904-2.252Z" opacity=".8"/>
    <path fill="#6D0F3F" d="M367.402 51.419v-4.497l3.897-2.252v4.497l-3.897 2.252Z" opacity=".8"/>
    <path fill="#A36F8A" d="M367.4 51.419v-4.497l-3.904-2.252v4.497l3.904 2.252Z" opacity=".8"/>
    <path fill="#F6E5E5" d="m348.508 41.919 3.903-2.245 3.904 2.245-3.904 2.252-3.903-2.252Z" opacity=".8"/>
    <path fill="#6D0F3F" d="M352.41 48.675V44.17l3.904-2.252v4.504l-3.904 2.252Z" opacity=".8"/>
    <path fill="#A36F8A" d="M352.411 48.675V44.17l-3.903-2.252v4.504l3.903 2.252Z" opacity=".8"/>
    <path fill="#F6E5E5" d="m353.508 44.729 3.897-2.252 3.903 2.252-3.903 2.252-3.897-2.252Z" opacity=".8"/>
    <path fill="#6D0F3F" d="M357.406 51.478V46.98l3.904-2.252v4.497l-3.904 2.252Z" opacity=".8"/>
    <path fill="#A36F8A" d="M357.405 51.478V46.98l-3.897-2.252v4.497l3.897 2.252Z" opacity=".8"/>
    <path fill="#F6E5E5" d="m348.508 36.2 3.903-2.251 3.904 2.252-3.904 2.252-3.903-2.252Z" opacity=".8"/>
    <path fill="#6D0F3F" d="M352.41 42.95v-4.498l3.904-2.251v4.497l-3.904 2.252Z" opacity=".8"/>
    <path fill="#A36F8A" d="M352.411 42.95v-4.498l-3.903-2.251v4.497l3.903 2.252Z" opacity=".8"/>
    <path fill="#F6E5E5" d="m358.504 47.545 3.903-2.245 3.897 2.245-3.903 2.252-3.897-2.252Z" opacity=".8"/>
    <path fill="#6D0F3F" d="M362.398 54.294v-4.497l3.904-2.252v4.504l-3.904 2.245Z" opacity=".8"/>
    <path fill="#A36F8A" d="M362.401 54.294v-4.497l-3.897-2.252v4.504l3.897 2.245Z" opacity=".8"/>
    <path fill="#F6E5E5" d="m368.309 52.81 3.896-2.251 3.904 2.252-3.904 2.245-3.896-2.245Z" opacity=".8"/>
    <path fill="#6D0F3F" d="M372.203 59.56v-4.504l3.904-2.245v4.497l-3.904 2.252Z" opacity=".8"/>
    <path fill="#A36F8A" d="M372.205 59.56v-4.504l-3.896-2.245v4.497l3.896 2.252Z" opacity=".8"/>
  </g>
  <g opacity=".8">
    <path fill="#F6E5E5" d="m273.348 121.141 5.355-3.092 5.356 3.092-5.356 3.086-5.355-3.086Z" opacity=".8"/>
    <path fill="#6D0F3F" d="M278.703 130.411v-6.184l5.356-3.086v6.178l-5.356 3.092Z" opacity=".8"/>
    <path fill="#A36F8A" d="M278.703 130.411v-6.184l-5.355-3.086v6.178l5.355 3.092Z" opacity=".8"/>
    <path fill="#F6E5E5" d="m273.348 129.144 5.355-3.092 5.356 3.092-5.356 3.086-5.355-3.086Z" opacity=".8"/>
    <path fill="#6D0F3F" d="M278.703 138.414v-6.184l5.356-3.086v6.178l-5.356 3.092Z" opacity=".8"/>
    <path fill="#A36F8A" d="M278.703 138.414v-6.184l-5.355-3.086v6.178l5.355 3.092Z" opacity=".8"/>
    <path fill="#F6E5E5" d="m252.758 125.369 5.362-3.092 5.356 3.092-5.356 3.093-5.362-3.093Z" opacity=".8"/>
    <path fill="#6D0F3F" d="M258.121 134.639v-6.177l5.356-3.093v6.178l-5.356 3.092Z" opacity=".8"/>
    <path fill="#A36F8A" d="M258.12 134.639v-6.177l-5.362-3.093v6.178l5.362 3.092Z" opacity=".8"/>
    <path fill="#F6E5E5" d="m259.617 129.223 5.362-3.092 5.356 3.092-5.356 3.092-5.362-3.092Z" opacity=".8"/>
    <path fill="#6D0F3F" d="M264.98 138.493v-6.178l5.356-3.092v6.185l-5.356 3.085Z" opacity=".8"/>
    <path fill="#A36F8A" d="M264.979 138.493v-6.178l-5.362-3.092v6.185l5.362 3.085Z" opacity=".8"/>
    <path fill="#F6E5E5" d="m259.617 121.588 5.362-3.092 5.356 3.092-5.356 3.092-5.362-3.092Z" opacity=".8"/>
    <path fill="#6D0F3F" d="M264.98 130.858v-6.178l5.356-3.092v6.184l-5.356 3.086Z" opacity=".8"/>
    <path fill="#A36F8A" d="M264.979 130.858v-6.178l-5.362-3.092v6.184l5.362 3.086Z" opacity=".8"/>
  </g>
  <path fill="#FEB8B8" d="M331.245 59.652a.93.93 0 0 1 .171.098l5.598-2.39.198-1.47h2.234l-.132 3.374-7.386 1.97a1.277 1.277 0 0 1-1.893.667 1.27 1.27 0 0 1-.563-1.334 1.277 1.277 0 0 1 1.799-.89l-.026-.025ZM340.262 90.252h-1.531l-.723-5.909h2.254v5.91Z"/>
  <path fill="#2F2E41" d="M337.641 89.819h2.95v1.851h-4.79a1.849 1.849 0 0 1 1.853-1.851h-.013Z"/>
  <path fill="#FEB8B8" d="m346.207 89.819-1.518.15-1.314-5.79 2.247-.223.585 5.863Z"/>
  <path fill="#2F2E41" d="m343.561 89.641 2.931-.288.184 1.851-4.784.466a1.855 1.855 0 0 1 1.669-2.029Z"/>
  <path fill="#FEB8B8" d="M340.687 49.64a3.061 3.061 0 0 0 3.063-3.06c0-1.69-1.371-3.06-3.063-3.06a3.06 3.06 0 0 0-3.062 3.06 3.06 3.06 0 0 0 3.062 3.06Z"/>
  <path fill="#2F2E41" d="M338.387 89.064a.559.559 0 0 1-.545-.466c-.795-4.386-3.384-18.744-3.443-19.138v-1.103a.164.164 0 0 1 .032-.105l.342-.48a.199.199 0 0 1 .145-.078c1.971-.092 8.326-.355 8.635 0 .308.387.203 1.563.177 1.792l2.865 18.324a.557.557 0 0 1-.088.427.56.56 0 0 1-.372.23l-1.794.295a.558.558 0 0 1-.657-.381c-.552-1.773-2.412-7.72-3.056-10.019a.046.046 0 0 0-.009-.021.06.06 0 0 0-.063-.024.06.06 0 0 0-.038.019.064.064 0 0 0-.015.04c0 2.199.112 7.792.138 9.73v.203a.576.576 0 0 1-.512.57l-1.728.152-.014.033Z"/>
  <path fill="#757575" d="M338.743 50.841a2.582 2.582 0 0 0-1.039 1.497 14.137 14.137 0 0 0-.611 3.388l-.19 3.433-2.419 9.12c2.084 1.765 3.286 1.365 6.086-.08 2.799-1.444 3.121.48 3.121.48l.565-7.754.802-8.482a3.937 3.937 0 0 0-.611-.584 6.189 6.189 0 0 0-5.257-1.116l-.447.098Z"/>
  <path fill="#FEB8B8" d="m337.962 61.49.19.085 5.533-2.764.092-1.497 2.281-.157.118 3.414-7.393 2.455a1.31 1.31 0 0 1-1.066 1.003 1.314 1.314 0 1 1 .093-2.572l.152.046v-.013Z"/>
  <path fill="#E6E6E6" d="M345 52.482c1.367.48 1.604 5.68 1.604 5.68-1.604-.88-3.523.557-3.523.557s-.4-1.359-.88-3.118a3.044 3.044 0 0 1 .657-2.876 2.18 2.18 0 0 1 2.142-.243Z"/>
  <path fill="#2F2E41" d="M343.437 47.388c-.382-.309-.901.25-.901.25l-.309-2.745a11.048 11.048 0 0 1-3.128-.079c-1.222-.302-1.412 1.11-1.412 1.11a9.415 9.415 0 0 1-.04-1.72c.079-.657 1.071-1.373 2.826-1.832 1.754-.46 2.668 1.53 2.668 1.53 1.202.61.677 3.788.296 3.486Z"/>
  <path fill="#E9E9E9" d="M430.788 81.212s-20.253-15.337-20.253-15.448a20.29 20.29 0 0 1 1.794-1.425l27.515 15.849-9.056 1.024Z"/>
  <path fill="#E9E9E9" d="M414.18 66.867c0 2.967-2.235 4.477-4.285 5.659-2.05 1.182-4.278-1.91-4.278-4.267s2.162-3.112 4.278-4.274c2.116-1.163 4.285.794 4.285 2.882ZM266.938 50.867c0 2.974 2.234 4.484 4.284 5.666 2.05 1.182 4.278-1.91 4.278-4.274 0-2.363-2.162-3.105-4.278-4.267-2.116-1.162-4.284.788-4.284 2.875Z"/>
  <path fill="#E9E9E9" d="M249.799 65.127s20.286-15.33 20.286-15.441a18.848 18.848 0 0 0-1.794-1.432l-26.463 15.974 7.971.899Z"/>
  <path fill="#AEAEAE" d="M243.477 72.532v-8.54l27.744-16 110.932 63.971v8.542l-27.724 16.006-110.952-63.978Z"/>
  <path fill="#E9E9E9" d="m243.477 63.991 27.744-16 110.932 63.972-27.711 16.006-110.965-63.978Z"/>
  <path fill="#AEAEAE" d="M245.456 72.795c1.512-.565 2.007-2.98 1.103-5.396-.903-2.415-2.862-3.914-4.374-3.35-1.513.565-2.007 2.98-1.104 5.396.903 2.415 2.862 3.914 4.375 3.35Z"/>
  <path fill="#E9E9E9" d="M244.561 70.402c.687-.256.912-1.35.503-2.444-.41-1.094-1.298-1.773-1.985-1.516-.686.256-.911 1.35-.502 2.444.409 1.094 1.297 1.773 1.984 1.516Z"/>
  <path fill="gray" d="M437.635 88.525v-8.54l-27.744-16-56.672 32.701 1.156 16.255.079 23.57 83.181-47.986Z"/>
  <path fill="#E9E9E9" d="m437.636 79.984-27.744-16-83.162 47.979 27.712 16.006 83.194-47.985Z"/>
  <path fill="gray" d="M440.462 85.273c.903-2.414.409-4.83-1.104-5.395-1.513-.565-3.472.935-4.375 3.35s-.409 4.83 1.104 5.395c1.513.565 3.471-.935 4.375-3.35Z"/>
  <path fill="#AEAEAE" d="M438.97 84.715c.409-1.094.184-2.188-.503-2.445-.687-.256-1.575.423-1.984 1.517-.409 1.093-.184 2.188.503 2.444.686.256 1.575-.422 1.984-1.516Z"/>
  <g stroke="#AEAEAE" stroke-linecap="round" stroke-miterlimit="10" stroke-width="2" opacity=".5">
    <path d="m352.336 97.205-22.731 13.104M338.369 89.267l-22.724 13.104M324.412 81.323l-22.724 13.105M310.457 73.386l-22.73 13.104M296.496 65.449l-22.73 13.104M282.539 57.511l-22.73 13.104M268.576 49.574l-22.724 13.104M356.652 97.205l22.731 13.104M370.609 89.267l22.731 13.104M384.574 81.323l22.724 13.105M398.531 73.386l22.731 13.104M412.492 65.449l22.731 13.104M354.551 98.065v26.32" opacity=".5"/>
  </g>
  <path fill="#F6E5E5" d="m240.809 52.903 14.273-8.233 14.26 8.233-14.267 8.226-14.266-8.226Z"/>
  <path fill="#6D0F3F" d="M255.078 77.588v-16.46l14.267-8.225v16.452l-14.267 8.233Z"/>
  <path fill="#A36F8A" d="M255.075 77.588v-16.46l-14.266-8.225v16.452l14.266 8.233Z"/>
  <path fill="#F6E5E5" d="m330.418 58.85 4.6-2.645 4.593 2.646-4.593 2.652-4.6-2.652Z"/>
  <path fill="#6D0F3F" d="M335.02 66.808v-5.305l4.593-2.652v5.304l-4.593 2.653Z"/>
  <path fill="#A36F8A" d="M335.018 66.808v-5.305l-4.6-2.652v5.304l4.6 2.653Z"/>
  <path fill="#F6E5E5" d="m371.641 78.001 14.273-8.226 14.26 8.226-14.267 8.227L371.641 78Z"/>
  <path fill="#6D0F3F" d="M385.906 102.687v-16.46l14.267-8.226v16.46l-14.267 8.226Z"/>
  <path fill="#A36F8A" d="M385.907 102.687v-16.46l-14.266-8.226v16.46l14.266 8.226Z"/>
  <path fill="#F6E5E5" d="m298.574 72.52 14.267-8.233 14.26 8.232-14.26 8.227-14.267-8.227Z"/>
  <path fill="#6D0F3F" d="M312.84 97.205v-16.46l14.26-8.226v16.453l-14.26 8.233Z"/>
  <path fill="#6D0F3F" d="M312.841 97.205v-16.46l-14.267-8.226v16.453l14.267 8.233Z"/>
  <path fill="#fff" d="m317.598 72.513 4.751-2.738 4.751 2.738-4.751 2.744-4.751-2.744Z"/>
  <path fill="#fff" d="M322.348 80.739v-5.482l4.751-2.744v5.482l-4.751 2.744Z"/>
  <path fill="#fff" d="m317.598 72.513 4.751-2.738 4.751 2.738-4.751 2.744-4.751-2.744Z"/>
  <path fill="#fff" d="M322.348 80.739v-5.482l4.751-2.744v5.482l-4.751 2.744Z"/>
  <path fill="#F6E5E5" d="m322.348 75.257 4.751 2.738-4.751 2.744v-5.482Z"/>
  <path fill="#6D0F3F" d="m317.598 72.513 4.751-2.738v5.482l-4.751-2.744Z"/>
  <path fill="#FEB8B8" d="m337.962 61.49.19.085 5.533-2.764.092-1.497 2.281-.157.118 3.414-7.393 2.455a1.31 1.31 0 0 1-1.066 1.003 1.314 1.314 0 1 1 .093-2.572l.152.046v-.013Z"/>
  <path fill="#757575" d="M345 52.482c1.367.48 1.604 5.68 1.604 5.68-1.604-.88-3.523.557-3.523.557s-.4-1.359-.88-3.118a3.044 3.044 0 0 1 .657-2.876 2.18 2.18 0 0 1 2.142-.243Z"/>
  <path fill="#FFB8B8" d="M256.609 95.826h1.558l.736-5.994h-2.294v5.994Z"/>
  <path fill="#2F2E41" d="M256.207 95.32h3.069a1.972 1.972 0 0 1 1.971 1.97v.066h-5.02l-.02-2.036Z"/>
  <path fill="#FFB8B8" d="M251.023 94.644h1.558l.742-5.994h-2.3v5.994Z"/>
  <path fill="#2F2E41" d="M250.629 94.132h3.062a1.972 1.972 0 0 1 1.972 1.97v.065h-5.014l-.02-2.035ZM252.587 92.806h-1.314a.563.563 0 0 1-.566-.552l-.046-1.155c-.335-9.244-.657-17.621 1.466-21.915l7.09-.256 1.426 13.045a5.653 5.653 0 0 1-.065 1.668l-1.886 9.907a.565.565 0 0 1-.579.46l-1.485-.047a.572.572 0 0 1-.552-.59v-.04l1.17-9.191a3.089 3.089 0 0 0-.105-1.175l-1.452-5.075a.201.201 0 0 0-.034-.066.192.192 0 0 0-.129-.068.185.185 0 0 0-.074.009.179.179 0 0 0-.131.151l-2.169 14.398a.574.574 0 0 1-.565.492Z"/>
  <path fill="#FFB8B8" d="M253.431 55.85a3.113 3.113 0 1 0 0-6.224 3.114 3.114 0 0 0-3.115 3.112 3.114 3.114 0 0 0 3.115 3.112Z"/>
  <path fill="#757575" d="M258.912 69.854h-6.453a.576.576 0 0 1-.528-.353.566.566 0 0 1-.044-.218v-.079l.322-2.18-1.872-5.14a3.775 3.775 0 0 1 1.003-4.081 3.783 3.783 0 0 1 1.264-.764 3.775 3.775 0 0 1 4.724 1.937l.408.873 1.735 9.335a.568.568 0 0 1-.093.424.57.57 0 0 1-.367.233l-.099.013Z"/>
  <path fill="#FFB8B8" d="M241.027 70.8a1.362 1.362 0 0 0 1.604-1.064v-.243l8.155-7.018-2.326-1.845-7.262 7.458a1.38 1.38 0 0 0-1.314 1.431 1.359 1.359 0 0 0 1.11 1.313l.033-.033Z"/>
  <path fill="#757575" d="m249.354 64.044-2.011-2.33a.612.612 0 0 1 .073-.86l.072-.053 2.629-1.635a1.693 1.693 0 0 1 2.181.341 1.695 1.695 0 0 1-.006 2.206l-2.011 2.311a.613.613 0 0 1-.927 0v.02Z"/>
  <path fill="#FFB8B8" d="M270.025 53.973a1.4 1.4 0 0 1-.755.876 1.396 1.396 0 0 1-1.157.003l-11.52 4.596-.624-2.895 11.526-3.624a1.366 1.366 0 0 1 2.517 1.03l.013.014Z"/>
  <path fill="#757575" d="M259.688 58.89a.653.653 0 0 1-.394.322l-2.971.774a1.695 1.695 0 0 1-1.314-3.118l2.629-1.608a.617.617 0 0 1 .841.203l.039.079 1.209 2.836a.594.594 0 0 1-.039.512Z"/>
  <path fill="#2F2E41" d="M257.528 51.432c0-.28-.04-.559-.118-.827a3.76 3.76 0 0 0-4.212-2.679c-.364-.1-.74-.15-1.117-.15a4.01 4.01 0 0 0-3.943 3.387l-1.505 9.664h8.122l1.314-8.43c.048-.315.059-.634.033-.952l1.426-.013Z"/>
  <g stroke="#6D0F3F" stroke-linecap="round" stroke-linejoin="round" opacity=".5">
    <path d="m320.14 39.004-13.931-8.036-13.932 8.036 13.932 8.03 13.931-8.03ZM202.152 59.107 188.22 51.07l-13.931 8.036 13.931 8.035 13.932-8.035Z" opacity=".5"/>
    <path stroke-dasharray="2.93 2.93" d="m195.18 55.089 69.401-40.048 34.683 19.925" opacity=".5"/>
  </g>
  <g opacity=".8">
    <path fill="#F6E5E5" d="m46.465 22.072 11.559-6.67 11.546 6.67-11.553 6.664-11.552-6.664Z" opacity=".8"/>
    <path fill="#6D0F3F" d="M58.02 42.063V28.736l11.552-6.664V35.4L58.02 42.063Z" opacity=".8"/>
    <path fill="#A36F8A" d="M58.017 42.063V28.736l-11.552-6.664V35.4l11.552 6.663Z" opacity=".8"/>
    <path fill="#F6E5E5" d="m61.258 30.384 11.559-6.664 11.553 6.664-11.553 6.663-11.56-6.663Z" opacity=".8"/>
    <path fill="#6D0F3F" d="M72.816 50.375V37.047l11.553-6.663V43.71l-11.553 6.664Z" opacity=".8"/>
    <path fill="#A36F8A" d="M72.817 50.375V37.047l-11.56-6.663V43.71l11.56 6.664Z" opacity=".8"/>
    <path fill="#F6E5E5" d="m61.258 15.198 11.559-6.663 11.553 6.663-11.553 6.664-11.56-6.663Z" opacity=".8"/>
    <path fill="#6D0F3F" d="M72.816 35.19V21.862L84.37 15.2v13.327L72.816 35.19Z" opacity=".8"/>
    <path fill="#A36F8A" d="M72.817 35.19V21.862L61.257 15.2v13.327l11.56 6.664Z" opacity=".8"/>
  </g>
  <path fill="#E9E9E9" d="m119.418 77.102 29.118-16.794 29.105 16.794-29.112 16.794-29.111-16.794Z"/>
  <path fill="gray" d="M148.527 99.49v-5.594l29.112-16.794v5.593L148.527 99.49Z"/>
  <path fill="#AEAEAE" d="M148.529 99.49v-5.594l-29.111-16.794v5.593l29.111 16.794Z"/>
  <path stroke="#2F2E41" stroke-linecap="round" stroke-linejoin="round" stroke-width="4.75" d="m132.896 90.56-21.029 12.757"/>
  <path fill="#F6E5E5" d="m134.262 61.05 14.266-8.233 14.26 8.233-14.26 8.226-14.266-8.226Z"/>
  <path fill="#6D0F3F" d="M148.527 85.735V69.276l14.26-8.226v16.452l-14.26 8.233Z"/>
  <path fill="#A36F8A" d="M148.528 85.735V69.276l-14.266-8.226v16.452l14.266 8.233Z"/>
  <path fill="#E9E9E9" d="m109.347 122.271 13.859-7.997V82.282l-27.731-16-3.056 1.622-10.935 22.25.198 16.052 27.665 16.065Z"/>
  <path fill="gray" d="m120.053 84.343 3.154-2.061v31.992l-13.859 7.997v-15.98l10.705-21.948Z"/>
  <path fill="#383838" d="m84.383 88.768 24.439 13.505 8.576-17.93-23.559-13.491-9.456 17.916Z"/>
  <path stroke="#fff" stroke-linecap="round" stroke-linejoin="round" d="m97.302 81.533-1.005-1.293 1.63-.223M102.105 79.452l1.63-.216 1.006 1.293M107.32 83.864l1.005 1.3-1.63.217M102.515 85.945l-1.623.223-1.005-1.3M99.669 92.885l-1.63.216.624-1.516"/>
  <path stroke="#fff" stroke-linecap="round" stroke-linejoin="round" d="m100.266 87.685.624-1.517 1.623-.223M106.695 85.38l1.63-.216-.624 1.517M106.102 90.58l-.625 1.517-1.629.223M97.035 91.808l1.006 1.293.624-1.516"/>
  <path stroke="#fff" stroke-linecap="round" stroke-linejoin="round" d="m100.268 87.685.624-1.517-1.005-1.3M97.302 81.533l-1.006-1.3-.624 1.524M94.077 85.656l-.624 1.517 1.005 1.3"/>
  <path fill="#A0616A" d="M89.793 114.852h2.47l-.794 6.447h-1.676v-6.447Z"/>
  <path fill="#2F2E41" d="M94.695 122.855h-5.257V120.8h3.22a2.034 2.034 0 0 1 1.89 1.269c.1.25.15.517.147.786Z"/>
  <path fill="#A0616A" d="M83.516 112.482h2.464l-.795 6.447h-1.67v-6.447Z"/>
  <path fill="#2F2E41" d="M88.417 120.485H83.16v-2.035h3.227a2.037 2.037 0 0 1 2.03 2.035Z"/>
  <path fill="#A0616A" d="M83.719 102.089a1.472 1.472 0 0 1-1.88-2.245l.086-15.304 3.174-.308L84 99.864a1.468 1.468 0 0 1-.282 2.225Z"/>
  <path fill="#2F2E41" d="M89.844 118.056a.662.662 0 0 1-.61-.545l-.974-8.128a.475.475 0 0 0-.4-.414.47.47 0 0 0-.546.394l-1.229 5.417a.596.596 0 0 1-.604.512h-1.972a.613.613 0 0 1-.61-.617c-.034-6.92 0-11.214.952-14.884a.604.604 0 0 1 .526-.604l7.373-1.07h.092a.605.605 0 0 1 .605.617c1.031 3.106.361 11.161-.125 18.626a.613.613 0 0 1-.585.61l-1.847.086h-.046Z"/>
  <path fill="#757575" d="M86.02 100.448a6.39 6.39 0 0 1-2.076-.368.653.653 0 0 1-.401-.551c-.06-1.405-.434-8.666-1.518-13.091a4.533 4.533 0 0 1 1.728-4.72l.177-.119a4.4 4.4 0 0 1 4.285-.341 4.547 4.547 0 0 1 2.629 3.545l1.76 13.13a.59.59 0 0 1-.124.466.604.604 0 0 1-.414.23 9.153 9.153 0 0 0-3.51 1.202 5.271 5.271 0 0 1-2.536.617Z"/>
  <path fill="#757575" d="m83.864 89.582-2.911-.787a.617.617 0 0 1-.428-.755l1.019-3.769a1.694 1.694 0 0 1 3.325.538l-.23 4.209a.623.623 0 0 1-.775.564Z"/>
  <path fill="#A0616A" d="M87.097 79.472a3.35 3.35 0 0 0 3.352-3.348 3.35 3.35 0 0 0-3.352-3.349 3.35 3.35 0 0 0-3.35 3.349 3.35 3.35 0 0 0 3.35 3.348ZM99.23 82.722c0-.06.032-.118.052-.17a1.431 1.431 0 0 1 2.092-.725 1.433 1.433 0 0 1 .667 1.444 1.432 1.432 0 0 1-1.912 1.118l-6.69 5.252-3.048-2.166 1.518-1.97 1.426.821 5.861-3.381c0-.079 0-.151.033-.223Z"/>
  <path fill="#757575" d="m92.87 86.477-2.53 1.635a.613.613 0 0 1-.848-.177l-2.09-3.244a1.686 1.686 0 0 1 1.505-2.68c.434.037.836.24 1.124.566l2.983 2.98a.616.616 0 0 1-.098.953l-.046-.033Z"/>
  <path fill="#2F2E41" d="M83.32 76.728a3.936 3.936 0 0 1 .4-3.342 4.896 4.896 0 0 1 2.32-1.608 5.92 5.92 0 0 1 2.458-.48 2.894 2.894 0 0 1 2.175 1.103c.395.565.434 1.49-.17 1.825-.605.335-1.413 0-1.702.578-.224.414.118.991-.171 1.366-.473.604-1.643-.361-2.143.302a.709.709 0 0 0-.111.295c.022.406.094.807.217 1.195.006.07.006.14 0 .21a1.082 1.082 0 0 1-1.346.912c-.2-.051-.38-.158-.52-.308a6.314 6.314 0 0 1-1.407-2.048Z"/>
  <path fill="#A0616A" d="M64.138 30.45a1.519 1.519 0 0 0 0 .17l-3.851 3.23-1.144-.413-.854 1.648 2.51 1.194 4.22-4.72a1.066 1.066 0 0 0 1.25-1.066 1.062 1.062 0 0 0-1.288-1.021 1.065 1.065 0 0 0-.824.846.9.9 0 0 0 0 .131h-.02ZM61.113 48.228h1.242l.592-4.793h-1.834v4.793Z"/>
  <path fill="#2F2E41" d="M64.728 49.377h-3.943v-1.503h2.432a1.512 1.512 0 0 1 1.511 1.503Z"/>
  <path fill="#A0616A" d="m58.012 46.613 1.018.716 3.24-3.578-1.498-1.077-2.76 3.939Z"/>
  <path fill="#2F2E41" d="m60.208 49.41-3.2-2.245.867-1.209 1.972 1.38a1.517 1.517 0 0 1 .368 2.1l-.007-.026Z"/>
  <path fill="#A0616A" d="M63.809 39.588s3.101-.36 2.543 1.648c-.559 2.01-6.762 3.755-6.762 3.755l4.219-5.403ZM61.674 29.32a2.49 2.49 0 1 0-2.49-2.488 2.49 2.49 0 0 0 2.49 2.488Z"/>
  <path fill="#757575" d="M53.722 44.578c-1.42-1.655-1.912-4.182.348-6.29a7.43 7.43 0 0 1 1.873-1.24l1.827-5.095a2.764 2.764 0 0 1 2.563-1.845 2.67 2.67 0 0 1 2.582 1.654c.224.518.25 1.1.073 1.635a26.19 26.19 0 0 1-2.13 4.858l.093.755 4.6.408-.04.072a27.842 27.842 0 0 1-5.158 5.744 4.754 4.754 0 0 1-2.97 1.103 4.946 4.946 0 0 1-3.661-1.76Z"/>
  <path fill="#2F2E41" d="M53.288 27.613a4.372 4.372 0 0 0 .782-1.877 11.4 11.4 0 0 1 .96-3.1 3.007 3.007 0 0 1 2.628-1.66 3.05 3.05 0 0 1 2.412 1.91.834.834 0 0 1 .697 0 .655.655 0 0 1 .183.959 2.297 2.297 0 0 1 1.873-.046 2.266 2.266 0 0 1 1.374 1.924 1.259 1.259 0 0 1-.329.925c-.48.493-1.156.322-1.754.197-.598-.124-1.262-.15-1.584.388-.124.226-.16.49-.099.741.168.508.487.952.914 1.274l.059.118a2.788 2.788 0 0 1-3.192-2.024 2.781 2.781 0 0 1 1.766-3.34.5.5 0 0 1-.513-.479.519.519 0 0 1 .066-.262 2.4 2.4 0 0 0-1.222-.283 2.183 2.183 0 0 0-1.63 1.116 6.558 6.558 0 0 0-.657 1.924 5.838 5.838 0 0 1-.723 1.91 3.026 3.026 0 0 1-3.117 1.296 3.03 3.03 0 0 1-1.095-.455 2.96 2.96 0 0 1-.657-.591 2.426 2.426 0 0 0 2.858-.565Z"/>
  <path fill="#A0616A" d="M69.104 33.2c-.025.05-.047.1-.066.151l-4.863 1.313-.867-.866-1.472 1.11 1.768 2.153 5.822-2.489a1.065 1.065 0 0 0 1.392-1.595 1.065 1.065 0 0 0-1.642.112.664.664 0 0 0-.072.111Z"/>
  <path fill="#757575" d="m62.118 35.918-2.8-2.797a1.393 1.393 0 1 1 1.972-1.97l2.793 2.798a.447.447 0 0 1 0 .656l-1.314 1.313a.454.454 0 0 1-.658 0h.007Z"/>
  <path fill="#FFB8B8" d="M838.578 77.22a1.457 1.457 0 0 1 1.571-1.576l2.162-4.713 1.426 2.284-2.267 4.123a1.463 1.463 0 0 1-1.512 1.243 1.468 1.468 0 0 1-1.399-1.368l.019.007Z"/>
  <path fill="#3F3D56" d="M841.993 76.11a.66.66 0 0 1-.375-.118l-1.018-.702a.653.653 0 0 1-.257-.703l1.196-4.523-1.445-8.397a2.103 2.103 0 0 1 4.205 0l1.19 5.252a6.687 6.687 0 0 1-.657 4.688l-2.274 4.195a.617.617 0 0 1-.421.322.558.558 0 0 1-.144-.013Z"/>
  <path fill="#FFB8B8" d="M821.758 60.735a1.472 1.472 0 0 1 1.886.853c.028.08.05.16.065.243l5.126.781-1.8 1.97-4.6-1.05a1.466 1.466 0 0 1-1.439-2.151c.169-.314.447-.555.781-.679l-.019.033Z"/>
  <path fill="#3F3D56" d="M824.385 63.866a.656.656 0 0 1 0-.387l.401-1.175a.655.655 0 0 1 .604-.44l4.679-.092 7.688-3.696a2.108 2.108 0 0 1 2.606 1.434 2.102 2.102 0 0 1-1.436 2.604l-4.712 2.58a6.739 6.739 0 0 1-4.691.656l-4.653-1.01a.663.663 0 0 1-.427-.316.527.527 0 0 1-.059-.158Z"/>
  <path fill="#FFB8B8" d="M839.541 56.592a3.566 3.566 0 1 0 0-7.13 3.566 3.566 0 1 0 0 7.13ZM838.095 99.752h-1.781l-.841-6.854h2.622v6.854Z"/>
  <path fill="#2F2E41" d="M835.045 99.246h3.43v2.16h-5.592a2.161 2.161 0 0 1 2.162-2.16Z"/>
  <path fill="#FFB8B8" d="M843.902 97.848h-1.781l-.848-6.86h2.629v6.86Z"/>
  <path fill="#2F2E41" d="M840.853 97.336h3.431v2.16h-5.593a2.161 2.161 0 0 1 2.162-2.16Z"/>
  <path fill="#757575" d="M844.035 95.471h-2.09a.656.656 0 0 1-.657-.486l-3.003-8.58a.072.072 0 0 0-.085-.052.079.079 0 0 0-.053.078l.605 10.55a.66.66 0 0 1-.618.69h-.092l-2.34-.19a.657.657 0 0 1-.598-.578l-2.135-22.151.828.492 7.741-1.313 3.115 20.805a.66.66 0 0 1-.559.735h-.059Z"/>
  <path fill="#3F3D56" d="M835.584 77.082a4.752 4.752 0 0 1-2.418-.656.661.661 0 0 1-.316-.657c.276-1.667 1.702-10.209 2.997-14.87.525-1.897 1.689-2.922 3.463-3.04a4.94 4.94 0 0 1 3.466 1.229 4.926 4.926 0 0 1 1.653 3.282c.427 4.7-1.314 11.39-2.05 14.043a.657.657 0 0 1-.808.453c-.086 0-1.032.17-1.499.23a31.01 31.01 0 0 1-4.488-.014Z"/>
  <path fill="#000" d="m838.935 62.114-4.212 3.545.289-1.399 3.923-2.147ZM844.322 63.63l-.039 6.893-1.439 4.235.847-4.28.631-6.848Z" opacity=".2"/>
  <path fill="#2F2E41" d="M841.576 55.955c.318.006.633-.052.927-.17.131-.046.263-.086.394-.138a3.196 3.196 0 0 0 1.926-2.882 4.152 4.152 0 0 0-1.551-3.197 5.992 5.992 0 0 0-3.391-1.314c-1.314-.105-2.8.23-3.536 1.313-.11.139-.187.3-.225.474-.038.173-.035.353.009.524a.6.6 0 0 0 .184.276c.328.295.657.072.985.053a1.095 1.095 0 0 1 1.025.787 2.33 2.33 0 0 1 0 1.36 3.599 3.599 0 0 0-.177.827.829.829 0 0 0 .348.735.969.969 0 0 0 .953-.099c.267-.204.551-.386.848-.544a.762.762 0 0 1 .913.183c.054.106.092.219.112.335.164.736.125.657.289 1.431l-.033.046Z"/>
  <path fill="#F6E5E5" d="m607.812 91.434 16.403-9.46 16.402 9.46-16.402 9.46-16.403-9.46Z"/>
  <path fill="#6D0F3F" d="M624.215 119.815v-18.921l16.402-9.46v18.921l-16.402 9.46Z"/>
  <path fill="#A36F8A" d="M624.215 119.815v-18.921l-16.403-9.46v18.921l16.403 9.46Z"/>
  <path fill="#F6E5E5" d="m628.812 103.238 16.409-9.46 16.396 9.46-16.402 9.461-16.403-9.461Z"/>
  <path fill="#6D0F3F" d="M645.215 131.619v-18.92l16.402-9.461v18.921l-16.402 9.46Z"/>
  <path fill="#A36F8A" d="M645.215 131.619v-18.92l-16.403-9.461v18.921l16.403 9.46Z"/>
  <path fill="#6D0F3F" d="m748.559 37.264 8.004-4.622 8.01 4.622-8.01 4.615-8.004-4.615Z" opacity=".3"/>
  <path fill="#E9E9E9" d="M508.949 62.698c6.09 0 11.027-10.068 11.027-22.486 0-12.419-4.937-22.486-11.027-22.486-6.09 0-11.027 10.067-11.027 22.486 0 12.418 4.937 22.486 11.027 22.486Z"/>
  <path stroke="#AEAEAE" stroke-linecap="round" stroke-miterlimit="10" d="M507.52 23.963a177.022 177.022 0 0 1 .078 52.6M517.784 40.678l-8.261 5.476M501.441 34.33l7.807 6.348"/>
  <path fill="gray" d="M495.538 70.7c5.052 0 9.147-8.347 9.147-18.644 0-10.298-4.095-18.646-9.147-18.646-5.052 0-9.147 8.348-9.147 18.646 0 10.297 4.095 18.645 9.147 18.645Z"/>
  <path stroke="#E9E9E9" stroke-linecap="round" stroke-miterlimit="10" d="M494.059 38.124a150.764 150.764 0 0 1 .065 44.729M503.378 53.159l-7.616 3.84M488.441 48.537l7.091 3.8"/>
  <path fill="#E9E9E9" d="M629.391 29.465c0-5.423 4.396-18.291 9.857-18.291 5.461 0 9.857 12.868 9.857 18.29a9.843 9.843 0 0 1-3.133 6.466 9.861 9.861 0 0 1-13.39 0 9.847 9.847 0 0 1-3.132-6.465h-.059Z"/>
  <path stroke="#AEAEAE" stroke-linecap="round" stroke-miterlimit="10" stroke-width=".75" d="M639.512 53.355V19.343M646.367 26.011l-6.847 6.677M636.141 21.908l3.345 3.342"/>
  <path fill="#AEAEAE" d="M642.745 49.403a2.166 2.166 0 0 0 2.096-.374c.736-.61.966-1.628 1.15-2.567l.559-2.784-1.163.801a8.474 8.474 0 0 0-2.267 1.97 2.854 2.854 0 0 0-.362 2.869"/>
  <path fill="#E9E9E9" d="M642.924 52.962a13.87 13.87 0 0 1-.19-3.217c.069-.95.407-1.86.972-2.627a4.553 4.553 0 0 1 1.13-1.024.11.11 0 0 1 .087-.025.106.106 0 0 1 .074.05.098.098 0 0 1 .014.044.09.09 0 0 1-.006.045.1.1 0 0 1-.063.064 4.218 4.218 0 0 0-1.656 1.97 6.753 6.753 0 0 0-.362 2.895c.04.59.118 1.175.197 1.759a.109.109 0 0 1-.008.08.108.108 0 0 1-.064.051.106.106 0 0 1-.125-.072v.007Z"/>
  <path fill="#AEAEAE" d="M644 51.255a1.595 1.595 0 0 0 1.393.715 3.161 3.161 0 0 0 1.82-.991l1.571-1.379-1.038-.052a6.304 6.304 0 0 0-2.221.164A2.11 2.11 0 0 0 644 51.209"/>
  <path fill="#E9E9E9" d="M642.506 53.572c.703-1.24 1.518-2.626 2.977-3.066a3.287 3.287 0 0 1 1.255-.131c.131 0 .098.217 0 .203a3.08 3.08 0 0 0-1.972.532 5.085 5.085 0 0 0-1.426 1.477c-.23.348-.433.71-.657 1.07-.052.112-.243.033-.177-.085Z"/>
  <path fill="gray" d="M864.268 87.803h-4.364c-.657 0-.972-.519-1.176-1.175a19.802 19.802 0 0 1-.565-2.593 23.842 23.842 0 0 1-.243-5.331h8.332a25.86 25.86 0 0 1-.21 4.904 14.389 14.389 0 0 1-.598 3.02c-.23.61-.545 1.228-1.176 1.175Z"/>
  <path fill="#3F3D56" d="M862.1 79.564c2.312 0 4.186-.385 4.186-.86s-1.874-.86-4.186-.86-4.186.385-4.186.86 1.874.86 4.186.86Z"/>
  <path fill="#D0D0D0" d="M865.392 66.06s4.6-2.036 5.297-5.7c.315-1.68.893-3.938-1.604-4.713-2.28-.729-4.357.715-5.132 3.86-.868 3.52 1.439 6.552 1.439 6.552ZM865.055 75.145s3.351.559 5.257-1.313c.861-.866 2.09-1.97 1.051-3.38-.946-1.314-2.674-1.235-4.383.321a6.4 6.4 0 0 0-1.925 4.373Z"/>
  <path stroke="#AEAEAE" stroke-linecap="round" stroke-miterlimit="10" stroke-width=".75" d="M867.948 56.166a179.958 179.958 0 0 0-2.687 10.609 174.21 174.21 0 0 0-2.281 12.296"/>
  <path stroke="#AEAEAE" stroke-linecap="round" stroke-miterlimit="10" stroke-width=".75" d="M869.178 71.049a10.14 10.14 0 0 1-5.737 5.134"/>
  <path fill="#D0D0D0" d="M859.353 75.546s-3.621.341-5.665-1.937c-.939-1.037-2.28-2.37-1.163-3.873 1.019-1.366 3.286-.453 4.745.728 2.326 1.832 2.083 5.082 2.083 5.082ZM859.707 69.788s-4.278-1.97-4.922-5.521c-.296-1.622-.835-3.788 1.485-4.596 2.116-.702 4.054.696 4.771 3.736.808 3.466-1.334 6.381-1.334 6.381ZM861.421 73.15s3.187-.578 4.291-2.915c.506-1.07 1.275-2.469-.098-3.427-1.255-.874-2.8-.256-3.851 1.72a6.278 6.278 0 0 0-.342 4.622Z"/>
  <path stroke="#AEAEAE" stroke-linecap="round" stroke-miterlimit="10" stroke-width=".75" d="M861.377 79.13a47.447 47.447 0 0 0-3.877-16.852"/>
  <path stroke="#AEAEAE" stroke-linecap="round" stroke-miterlimit="10" stroke-width=".75" d="M854.508 71.968a18.994 18.994 0 0 0 2.773 2.593 18.665 18.665 0 0 0 3.903 2.285M864.995 68.094l-4.12 5.903"/>
  <path fill="gray" d="M862.098 88.092c1.518 0 2.747-.253 2.747-.564 0-.312-1.229-.565-2.747-.565-1.517 0-2.746.253-2.746.565 0 .311 1.229.564 2.746.564Z"/>
  <g stroke="#6D0F3F" stroke-linecap="round" stroke-linejoin="round" opacity=".5">
    <path d="m759.594 119.336 13.931 8.029 13.932-8.029-13.932-8.036-13.931 8.036Z" opacity=".5"/>
    <path stroke-dasharray="2.93 2.93" d="m780.465 123.367 34.69 19.925 54.806-31.723" opacity=".5"/>
    <path d="m863.113 107.624 13.932 8.035 13.931-8.035-13.931-8.036-13.932 8.036Z" opacity=".5"/>
  </g>
  <path fill="#9E616A" d="M792.602 99.128h1.136l.539-4.366h-1.675v4.366Z"/>
  <path fill="#2F2E41" d="M792.309 98.754h2.234a1.427 1.427 0 0 1 1.419 1.425v.046h-3.653v-1.471Z"/>
  <path fill="#9E616A" d="M802.898 101.433h1.137l.539-4.366h-1.676v4.366Z"/>
  <path fill="#2F2E41" d="M802.609 101.065h2.235a1.418 1.418 0 0 1 1.419 1.418v.046h-3.654v-1.464Z"/>
  <path fill="#9E616A" d="m801.528 66.368.743 4.707-7.025.092.927-4.523 5.355-.276Z"/>
  <path fill="#757575" d="m802.069 69.926 2.234 5.948.276 24.653h-1.893l-3.89-18.534-4.653 15.71h-1.846l1.15-19.38s-.381-4.36 1.57-6.926l.474-1.372 6.578-.099Z"/>
  <path fill="#9E616A" d="M792.475 74.561a1.376 1.376 0 0 0 .973-1.7 1.573 1.573 0 0 0-.086-.23l2.99-9.73-2.201-.433-2.727 9.54a1.39 1.39 0 0 0-.601 1.739 1.393 1.393 0 0 0 1.652.814Z"/>
  <path fill="#3F3D56" d="M796.412 68.968h-.118a.657.657 0 0 1-.506-.572 32.09 32.09 0 0 0-1.026-4.917 3.894 3.894 0 0 1 3.913-4.871 3.898 3.898 0 0 1 3.249 1.97c.255.45.416.948.474 1.463a18.925 18.925 0 0 1-.532 6.369.653.653 0 0 1-.598.479l-4.843.092-.013-.013Z"/>
  <path fill="#9E616A" d="M809.935 60.4a1.84 1.84 0 0 0-.073.203l-6.059 2.055-1.169-1.024-1.775 1.57 1.9 2.008a1.038 1.038 0 0 0 1.222.21l6.479-3.282a1.357 1.357 0 0 0 1.976-.687 1.359 1.359 0 0 0-.35-1.46 1.357 1.357 0 0 0-2.073.282l-.078.151V60.4Z"/>
  <path fill="#3F3D56" d="m803.596 62.79-2.208 1.93a.574.574 0 0 1-.815-.06.263.263 0 0 1-.053-.065l-1.583-2.455a1.615 1.615 0 0 1 1.942-2.538c.192.106.361.25.496.424l2.214 1.884a.57.57 0 0 1 .205.397.577.577 0 0 1-.198.483ZM796.005 65.396l-2.734-1.057a.58.58 0 0 1-.329-.755l.04-.079 1.452-2.527a1.615 1.615 0 0 1 2.06-.825 1.616 1.616 0 0 1 .943 2.007l-.657 2.836a.585.585 0 0 1-.697.44h-.078v-.04Z"/>
  <path fill="#9E616A" d="M798.021 57.997c1.64 0 2.97-1.328 2.97-2.967a2.969 2.969 0 0 0-2.97-2.968 2.969 2.969 0 0 0-2.97 2.968 2.969 2.969 0 0 0 2.97 2.967Z"/>
  <path fill="#2F2E41" d="M800.065 53.835h1.912a1.674 1.674 0 0 0-.427-1.202 4.86 4.86 0 0 0-1.005-.827 3.25 3.25 0 0 0-1.183-.597 3.465 3.465 0 0 0-1.104 0l-1.466.203a3.39 3.39 0 0 0-1.531.48 3.286 3.286 0 0 0-.999 1.903l-1.051 3.94 6.184.656c.216.044.44.044.657 0a.588.588 0 0 0 .433-.466 1.028 1.028 0 0 0-.348-.657 3.05 3.05 0 0 1-.263-3.44l.191.007Z"/>
</svg>
